<svg width="32" height="32" viewBox="0 0 32 32" fill="none" xmlns="http://www.w3.org/2000/svg">
<circle cx="16" cy="16" r="14" fill="#F11E15"/>
<path fill-rule="evenodd" clip-rule="evenodd" d="M19.0171 25.21C19.9797 24.7732 21.0395 24.2348 22.0663 23.5984C21.0742 24.7405 20.011 25.0432 19.0171 25.21ZM16.6617 27.2277C16.5646 27.2277 15.7355 27.2277 15.7355 26.925C15.7355 26.7581 16.0009 26.218 16.2333 26.1526C16.7294 25.9497 17.7908 25.6796 17.8567 25.6796C17.9556 25.6796 18.8194 25.7828 18.9165 25.7828C18.9824 25.7828 19.6138 25.7467 19.9797 25.6487C20.4081 25.5455 20.9407 25.346 21.4367 25.0432C21.9345 24.7405 22.663 24.1006 22.9943 23.5623C23.192 23.2595 23.2926 22.857 23.5267 22.587C23.8233 22.1862 24.387 21.8474 24.8501 21.4122C25.315 20.9392 25.7815 20.4369 26.2099 19.9003C25.315 24.1351 19.8792 27.2277 16.6617 27.2277ZM18.6875 4.20299C20.3769 4.5728 22.3004 5.309 23.9551 6.99294C24.4876 7.5296 24.9525 8.2709 25.1502 8.84024C25.2474 9.07417 25.2474 9.44571 25.4156 9.67964C25.681 10.0856 26.1441 10.4193 26.4753 10.8579C26.9072 11.3275 27.1709 11.8331 27.405 12.3698C27.5022 12.5367 27.5369 12.7723 27.6357 12.9753C27.7675 13.2419 28 14.5199 28 14.9929C28 15.9682 27.6704 17.1774 27.2368 18.1183C27.2368 18.1527 27.2732 18.1527 27.2732 18.2524V19.0918C26.9073 24.2709 20.7741 28 16.927 28C16.4639 28 15.1388 27.9329 15.1388 26.992C15.1388 26.8888 15.2065 26.5878 15.2724 26.3522C14.5404 26.4554 13.1146 26.7237 12.2856 26.7237C11.6594 26.7237 8.77326 26.691 8.77326 25.1103C8.77326 23.6293 11.3594 23.5296 11.8572 23.5296C13.2482 23.5296 14.7069 23.9321 16.1326 24.6046C15.8985 24.6734 15.4701 24.8076 15.4042 24.8076C15.3036 24.8076 15.1718 24.7044 15.0382 24.6734C14.112 24.3346 13.0488 24.135 12.0879 24.135C11.5259 24.135 11.4253 24.1006 10.7627 24.2709C10.6968 24.2709 9.53643 24.5737 9.53643 25.0432C9.53643 25.3769 10.4644 25.5799 10.6621 25.6126C11.0593 25.6796 11.8884 25.7467 11.9543 25.7467C17.8568 25.7467 27.0078 20.7723 27.0078 14.8226C27.0078 13.7149 26.51 12.1359 25.5127 11.1245C25.4468 11.5631 25.3497 12.0327 25.1815 12.5057C25.0843 12.8084 24.819 13.3451 24.819 13.4122C24.819 13.4122 26.4753 15.2595 26.4753 15.6655C26.4753 15.9011 26.1129 16.94 26.1129 16.9744C25.7816 16.0679 25.315 15.1597 24.3871 14.2533C24.2552 14.3874 24.1234 14.587 23.9899 14.7573C23.8234 14.9929 23.6239 15.2286 23.4261 15.4625C22.9943 15.9682 22.0005 16.8403 22.0005 16.94C22.0005 16.94 23.192 18.1527 23.5927 19.5631C23.6586 19.7661 23.7575 20.1668 23.7575 20.2356C23.7575 20.4369 23.0949 20.8755 23.0949 20.9082C23.0602 19.7661 22.5971 18.5552 21.3691 17.413C19.9451 18.4881 18.4534 19.3636 17.0277 20.0671C17.8897 20.8084 18.3875 21.8835 18.3875 22.6558C18.3875 23.0256 18.1881 23.834 18.0216 23.9321C17.8221 24.068 17.5931 24.135 17.359 24.2038C17.6243 23.865 17.8567 23.0927 17.8567 22.759C17.8567 22.1535 17.4595 21.2109 16.7952 20.7052C16.6305 20.6055 16.3981 20.3698 16.3322 20.3698C16.2333 20.3698 15.4042 20.7397 14.9411 20.9082C14.4086 21.1112 13.8467 21.278 13.283 21.4448C11.5919 21.9505 9.99953 22.2533 8.37606 22.2533C7.74644 22.2533 4.99211 22.1862 4.99211 20.6725C4.99211 18.421 10.1019 18.2181 10.7939 18.2181C12.3203 18.2181 13.7808 18.3883 15.3383 19.0918C15.0383 19.1916 14.4745 19.4272 14.4086 19.4272C14.3098 19.4272 12.5857 18.925 11.0281 18.925C10.3309 18.925 9.47055 18.9938 8.80798 19.1245C8.2755 19.2277 7.74647 19.3636 7.28163 19.5631C7.11512 19.5975 5.88883 20.1359 5.88883 20.6055C5.88883 20.6726 6.08658 20.8084 6.22013 20.8755C6.88444 21.2109 7.48106 21.1782 8.14363 21.1782C14.4086 21.1782 24.0211 16.1677 24.5865 10.9577V10.1183C24.2864 6.72287 19.116 4.53668 16.5958 4.53668C16.5299 4.53668 16.1014 4.57277 15.8326 4.63641C16.0008 4.70522 16.1985 4.70523 16.3668 4.77232C16.4986 4.80844 16.6617 4.87555 16.8299 4.93919C17.0953 5.04239 17.5584 5.27802 17.8567 5.54463C18.0874 5.7476 18.2192 6.05031 18.4534 6.21716C18.6199 6.38745 18.9512 6.35306 19.2166 6.45626C20.0769 6.72287 21.1401 7.12535 22.0351 7.52957C22.3976 7.72909 22.8607 7.93206 23.2614 8.16771C23.395 8.27092 23.4921 8.47046 23.5927 8.63731C23.7574 8.90736 23.9552 9.34594 24.0211 9.71576C22.3005 8.40163 20.5747 7.7291 18.8506 7.15976H18.7535C18.8194 8.06795 18.4534 8.97444 17.822 9.88263C19.7143 10.3883 21.7004 11.1245 23.6586 12.5057C23.558 12.7396 23.4262 13.008 23.2614 13.2419C22.4323 12.6364 21.5373 12.1669 20.7082 11.7644C20.5087 11.6663 17.7249 10.6222 17.293 10.6222C17.1924 10.6222 16.5299 11.2948 16.1673 11.5975C15.2724 12.3354 14.3773 12.9082 13.4806 13.4448C15.8985 13.7837 18.3215 14.3204 20.7394 15.9321C20.5746 16.0989 20.2087 16.4378 20.1115 16.4378C20.0456 16.4378 19.4143 15.9682 19.05 15.7979C17.3589 14.9568 14.1432 14.1535 12.1884 14.1535C12.0219 14.1535 10.1019 14.9929 9.63356 15.1254C8.27547 15.5296 6.78381 16.0318 5.3945 16.0318C4.92619 16.0318 4 16.0009 4 15.2286C4 13.7149 9.27106 13.3451 9.63356 13.3451H10.7939C9.96486 13.6805 8.97275 14.0503 8.17835 14.2533C7.41518 14.4562 6.62078 14.587 5.88883 14.8226C5.75527 14.857 5.62345 14.9568 5.49163 15.0256C5.49163 15.0256 5.4604 15.06 5.55753 15.06C5.62344 15.06 6.71794 14.8897 7.31286 14.7573C10.3309 14.0176 13.5778 12.8084 16.5645 10.0185C17.293 9.30981 17.8221 8.43778 17.9903 7.66547V6.99294C17.8897 6.25331 16.8299 5.48099 16.1673 5.27802C15.7355 5.14214 14.9063 4.9753 14.8092 4.9753C14.641 4.9753 14.4086 5.07506 14.2438 5.34511C15.3036 5.58076 16.5298 5.34508 17.4595 6.69017C17.4595 6.69017 17.4925 6.72287 17.4595 6.78995C17.1924 6.69019 13.9438 5.91444 13.4148 5.91444C13.217 5.91444 11.6594 7.02562 11.2935 7.25955C10.2996 7.86501 9.27108 8.43777 8.27549 8.94003L11.6907 8.97441C13.1806 9.07417 14.8751 9.27718 16.398 9.57991C16.3321 9.61259 15.7354 10.2524 15.6036 10.2524C15.5377 10.2524 14.4745 10.0494 13.9438 9.98236C12.9829 9.84648 11.989 9.81553 10.9934 9.74673L6.68668 9.84651C6.45252 9.81555 5.98945 9.78285 5.98945 9.37692C5.98945 9.07419 6.35193 8.87468 6.62077 8.77148C6.81851 8.70439 7.04918 8.57367 7.24691 8.50487C9.36991 7.5984 11.5571 6.38744 13.7148 5.00795C13.6489 4.97527 13.5119 4.9753 13.446 4.9753C13.3489 4.9753 13.0835 5.00796 12.8858 5.07504C12.917 5.11116 12.9516 5.11115 12.9828 5.11115C12.6862 5.278 12.1885 5.61172 12.0879 5.61172C11.8572 5.61172 11.5259 5.30896 11.5259 5.11115C11.5259 4.50569 12.8857 4.46959 12.9828 4.46959C14.3409 4.43691 14.4433 4.50571 14.5404 4.50571C14.6063 4.50571 15.1718 4.20298 15.5378 4.1359C16.0668 4.00002 16.3322 4 16.8299 4C17.3937 4 18.0562 4.0671 18.6875 4.20299Z" fill="white"/>
</svg>
