<svg width="574" height="390" viewBox="0 0 574 390" fill="none" xmlns="http://www.w3.org/2000/svg">
<g clip-path="url(#clip0_519_3037)">
<rect x="0.5" y="0.5" width="573" height="389" rx="31.5" fill="#202130" stroke="url(#paint0_linear_519_3037)"/>
<path d="M41.9176 49.5455H45.1136L50.6705 63.1136H50.875L56.4318 49.5455H59.6278V67H57.1222V54.3693H56.9602L51.8125 66.9744H49.733L44.5852 54.3608H44.4233V67H41.9176V49.5455ZM66.0902 49.5455V67H63.4567V49.5455H66.0902ZM84.4226 55.2216H81.7635C81.6612 54.6534 81.4709 54.1534 81.1925 53.7216C80.9141 53.2898 80.5732 52.9233 80.1697 52.6222C79.7663 52.321 79.3146 52.0937 78.8146 51.9403C78.3203 51.7869 77.7947 51.7102 77.2379 51.7102C76.2322 51.7102 75.3317 51.9631 74.5362 52.4688C73.7464 52.9744 73.1214 53.7159 72.6612 54.6932C72.2067 55.6705 71.9794 56.8636 71.9794 58.2727C71.9794 59.6932 72.2067 60.892 72.6612 61.8693C73.1214 62.8466 73.7493 63.5852 74.5447 64.0852C75.3402 64.5852 76.2351 64.8352 77.2294 64.8352C77.7805 64.8352 78.3033 64.7614 78.7976 64.6136C79.2976 64.4602 79.7493 64.2358 80.1527 63.9403C80.5561 63.6449 80.897 63.2841 81.1754 62.858C81.4595 62.4261 81.6555 61.9318 81.7635 61.375L84.4226 61.3835C84.2805 62.2415 84.005 63.0312 83.5959 63.7528C83.1925 64.4688 82.6726 65.0881 82.0362 65.6108C81.4055 66.1278 80.6839 66.5284 79.8714 66.8125C79.0589 67.0966 78.1726 67.2386 77.2124 67.2386C75.701 67.2386 74.3544 66.8807 73.1726 66.1648C71.9908 65.4432 71.0589 64.4119 70.3771 63.071C69.701 61.7301 69.3629 60.1307 69.3629 58.2727C69.3629 56.4091 69.7038 54.8097 70.3857 53.4744C71.0675 52.1335 71.9993 51.1051 73.1811 50.3892C74.3629 49.6676 75.7067 49.3068 77.2124 49.3068C78.1385 49.3068 79.0021 49.4403 79.8033 49.7074C80.6101 49.9687 81.3345 50.3551 81.9766 50.8665C82.6186 51.3722 83.1499 51.9915 83.5703 52.7244C83.9908 53.4517 84.2749 54.2841 84.4226 55.2216ZM87.5739 67V49.5455H90.2074V57.1307H98.9091V49.5455H101.551V67H98.9091V59.3892H90.2074V67H87.5739ZM106.861 67H104.065L110.347 49.5455H113.389L119.67 67H116.875L111.94 52.7159H111.804L106.861 67ZM107.33 60.1648H116.398V62.3807H107.33V60.1648ZM122.191 67V49.5455H133.134V51.8125H124.825V57.1307H132.563V59.3892H124.825V64.733H133.237V67H122.191ZM136.652 67V49.5455H139.286V64.733H147.195V67H136.652ZM158.025 67H155.229L161.511 49.5455H164.553L170.835 67H168.039L163.104 52.7159H162.968L158.025 67ZM158.494 60.1648H167.562V62.3807H158.494V60.1648ZM187.443 49.5455V67H185.023L176.151 54.1989H175.989V67H173.355V49.5455H175.793L184.673 62.3636H184.835V49.5455H187.443ZM196.935 67H191.285V49.5455H197.114C198.825 49.5455 200.293 49.8949 201.521 50.5938C202.748 51.2869 203.688 52.2841 204.342 53.5852C205.001 54.8807 205.33 56.4347 205.33 58.2472C205.33 60.0653 204.998 61.6278 204.333 62.9347C203.674 64.2415 202.719 65.2472 201.469 65.9517C200.219 66.6506 198.708 67 196.935 67ZM193.918 64.6989H196.79C198.12 64.6989 199.225 64.4489 200.106 63.9489C200.987 63.4432 201.646 62.7131 202.083 61.7585C202.521 60.7983 202.739 59.6278 202.739 58.2472C202.739 56.8778 202.521 55.7159 202.083 54.7614C201.651 53.8068 201.006 53.0824 200.148 52.5881C199.29 52.0937 198.225 51.8466 196.952 51.8466H193.918V64.6989ZM208.605 67V49.5455H214.827C216.179 49.5455 217.301 49.7784 218.193 50.2443C219.091 50.7102 219.761 51.3551 220.205 52.179C220.648 52.9972 220.869 53.9432 220.869 55.017C220.869 56.0852 220.645 57.0256 220.196 57.8381C219.753 58.6449 219.082 59.2727 218.185 59.7216C217.293 60.1705 216.17 60.3949 214.818 60.3949H210.105V58.1278H214.58C215.432 58.1278 216.125 58.0057 216.659 57.7614C217.199 57.517 217.594 57.1619 217.844 56.696C218.094 56.2301 218.219 55.6705 218.219 55.017C218.219 54.358 218.091 53.7869 217.835 53.304C217.585 52.821 217.19 52.4517 216.651 52.196C216.116 51.9347 215.415 51.804 214.545 51.804H211.239V67H208.605ZM217.222 59.125L221.534 67H218.534L214.307 59.125H217.222ZM224.074 67V49.5455H235.017V51.8125H226.707V57.1307H234.446V59.3892H226.707V64.733H235.119V67H224.074ZM249.759 49.5455H252.401V61.0256C252.401 62.2472 252.114 63.3295 251.54 64.2727C250.967 65.2102 250.16 65.9489 249.12 66.4886C248.08 67.0227 246.862 67.2898 245.464 67.2898C244.072 67.2898 242.856 67.0227 241.816 66.4886C240.776 65.9489 239.969 65.2102 239.396 64.2727C238.822 63.3295 238.535 62.2472 238.535 61.0256V49.5455H241.168V60.8125C241.168 61.6023 241.342 62.304 241.688 62.9176C242.04 63.5312 242.538 64.0142 243.18 64.3665C243.822 64.7131 244.583 64.8864 245.464 64.8864C246.35 64.8864 247.114 64.7131 247.756 64.3665C248.404 64.0142 248.898 63.5312 249.239 62.9176C249.586 62.304 249.759 61.6023 249.759 60.8125V49.5455ZM255.778 67V65.2443L264.957 51.8125H255.702V49.5455H268.179V51.3011L259 64.733H268.256V67H255.778ZM271.107 67V65.2443L280.286 51.8125H271.03V49.5455H283.507V51.3011L274.328 64.733H283.584V67H271.107ZM288.361 67H285.565L291.847 49.5455H294.889L301.17 67H298.375L293.44 52.7159H293.304L288.361 67ZM288.83 60.1648H297.898V62.3807H288.83V60.1648Z" fill="#F5F5F5"/>
<path d="M53.679 173.185H51.4631C51.3778 172.711 51.2192 172.295 50.9872 171.935C50.7552 171.575 50.4711 171.269 50.1349 171.018C49.7988 170.768 49.4223 170.578 49.0057 170.45C48.5938 170.322 48.1558 170.259 47.6918 170.259C46.8537 170.259 46.1032 170.469 45.4403 170.891C44.7822 171.312 44.2614 171.93 43.8778 172.744C43.4991 173.559 43.3097 174.553 43.3097 175.727C43.3097 176.911 43.4991 177.91 43.8778 178.724C44.2614 179.539 44.7846 180.154 45.4474 180.571C46.1103 180.988 46.8561 181.196 47.6847 181.196C48.1439 181.196 48.5795 181.134 48.9915 181.011C49.4081 180.884 49.7846 180.696 50.1207 180.45C50.4569 180.204 50.741 179.903 50.973 179.548C51.2098 179.188 51.3731 178.777 51.4631 178.312L53.679 178.32C53.5606 179.035 53.331 179.693 52.9901 180.294C52.6539 180.891 52.2206 181.407 51.6903 181.842C51.1648 182.273 50.5634 182.607 49.8864 182.844C49.2093 183.08 48.4706 183.199 47.6705 183.199C46.411 183.199 45.2888 182.901 44.304 182.304C43.3191 181.703 42.5426 180.843 41.9744 179.726C41.411 178.608 41.1293 177.276 41.1293 175.727C41.1293 174.174 41.4134 172.841 41.9815 171.729C42.5497 170.611 43.3262 169.754 44.3111 169.158C45.2959 168.556 46.4157 168.256 47.6705 168.256C48.4422 168.256 49.1619 168.367 49.8295 168.589C50.5019 168.807 51.1056 169.129 51.6406 169.555C52.1757 169.977 52.6184 170.493 52.9688 171.104C53.3191 171.71 53.5559 172.403 53.679 173.185ZM59.3093 183.241C58.618 183.241 57.993 183.114 57.4343 182.858C56.8756 182.598 56.4329 182.221 56.1062 181.729C55.7842 181.236 55.6232 180.633 55.6232 179.918C55.6232 179.302 55.7416 178.795 55.9783 178.398C56.2151 178 56.5347 177.685 56.9371 177.453C57.3396 177.221 57.7894 177.046 58.2866 176.928C58.7837 176.809 59.2904 176.719 59.8065 176.658C60.4599 176.582 60.9902 176.52 61.3974 176.473C61.8046 176.421 62.1005 176.338 62.2852 176.224C62.4698 176.111 62.5621 175.926 62.5621 175.67V175.621C62.5621 175 62.387 174.52 62.0366 174.179C61.6909 173.838 61.1748 173.668 60.4883 173.668C59.7733 173.668 59.2099 173.826 58.7979 174.143C58.3907 174.456 58.109 174.804 57.9528 175.188L55.957 174.733C56.1938 174.07 56.5394 173.535 56.994 173.128C57.4532 172.716 57.9812 172.418 58.5778 172.233C59.1744 172.044 59.8017 171.949 60.4599 171.949C60.8955 171.949 61.3571 172.001 61.8448 172.105C62.3372 172.205 62.7965 172.389 63.2227 172.659C63.6535 172.929 64.0063 173.315 64.2809 173.817C64.5555 174.314 64.6928 174.96 64.6928 175.756V183H62.619V181.509H62.5337C62.3964 181.783 62.1905 182.053 61.9158 182.318C61.6412 182.583 61.2885 182.804 60.8576 182.979C60.4267 183.154 59.9106 183.241 59.3093 183.241ZM59.771 181.537C60.3581 181.537 60.86 181.421 61.2766 181.189C61.698 180.957 62.0176 180.654 62.2354 180.28C62.458 179.901 62.5692 179.496 62.5692 179.065V177.659C62.4935 177.735 62.3467 177.806 62.1289 177.872C61.9158 177.934 61.672 177.988 61.3974 178.036C61.1228 178.078 60.8552 178.118 60.5948 178.156C60.3344 178.189 60.1166 178.218 59.9414 178.241C59.5295 178.294 59.1531 178.381 58.8121 178.504C58.476 178.627 58.2061 178.805 58.0025 179.037C57.8036 179.264 57.7042 179.567 57.7042 179.946C57.7042 180.472 57.8983 180.869 58.2866 181.139C58.6748 181.404 59.1696 181.537 59.771 181.537ZM67.5213 183V172.091H69.5739V173.824H69.6875C69.8864 173.237 70.2367 172.775 70.7386 172.439C71.2453 172.098 71.8182 171.928 72.4574 171.928C72.59 171.928 72.7462 171.932 72.9261 171.942C73.1108 171.951 73.2552 171.963 73.3594 171.977V174.009C73.2741 173.985 73.1226 173.959 72.9048 173.93C72.687 173.897 72.4692 173.881 72.2514 173.881C71.7495 173.881 71.3021 173.987 70.9091 174.2C70.5208 174.409 70.2131 174.7 69.9858 175.074C69.7585 175.443 69.6449 175.865 69.6449 176.338V183H67.5213ZM78.8903 183.213C78.0096 183.213 77.2236 182.988 76.5323 182.538C75.8458 182.084 75.306 181.437 74.913 180.599C74.5247 179.757 74.3306 178.746 74.3306 177.567C74.3306 176.388 74.5271 175.379 74.9201 174.541C75.3178 173.703 75.8623 173.062 76.5536 172.616C77.2449 172.171 78.0285 171.949 78.9045 171.949C79.5816 171.949 80.1261 172.062 80.538 172.29C80.9547 172.512 81.2766 172.773 81.5039 173.071C81.7359 173.369 81.9158 173.632 82.0437 173.859H82.1715V168.455H84.2951V183H82.2212V181.303H82.0437C81.9158 181.535 81.7312 181.8 81.4897 182.098C81.253 182.396 80.9263 182.657 80.5096 182.879C80.0929 183.102 79.5531 183.213 78.8903 183.213ZM79.359 181.402C79.9698 181.402 80.4859 181.241 80.9073 180.919C81.3335 180.592 81.6554 180.14 81.8732 179.562C82.0958 178.985 82.207 178.312 82.207 177.545C82.207 176.788 82.0981 176.125 81.8803 175.557C81.6625 174.989 81.3429 174.546 80.9215 174.229C80.5001 173.911 79.9793 173.753 79.359 173.753C78.7198 173.753 78.1871 173.919 77.761 174.25C77.3349 174.581 77.0129 175.034 76.7951 175.607C76.582 176.179 76.4755 176.826 76.4755 177.545C76.4755 178.275 76.5844 178.93 76.8022 179.513C77.02 180.095 77.342 180.557 77.7681 180.898C78.199 181.234 78.7293 181.402 79.359 181.402ZM104.529 168.455V183H102.512L95.119 172.332H94.984V183H92.7894V168.455H94.8207L102.221 179.136H102.356V168.455H104.529ZM114.471 178.476V172.091H116.602V183H114.513V181.111H114.4C114.149 181.693 113.746 182.179 113.192 182.567C112.643 182.95 111.959 183.142 111.14 183.142C110.439 183.142 109.819 182.988 109.279 182.68C108.744 182.368 108.323 181.906 108.015 181.295C107.712 180.685 107.56 179.929 107.56 179.03V172.091H109.684V178.774C109.684 179.518 109.89 180.109 110.302 180.55C110.714 180.99 111.249 181.21 111.907 181.21C112.305 181.21 112.7 181.111 113.093 180.912C113.491 180.713 113.82 180.412 114.08 180.01C114.345 179.607 114.476 179.096 114.471 178.476ZM119.455 183V172.091H121.493V173.866H121.628C121.855 173.265 122.227 172.796 122.743 172.46C123.259 172.119 123.877 171.949 124.597 171.949C125.326 171.949 125.937 172.119 126.429 172.46C126.926 172.801 127.293 173.27 127.53 173.866H127.644C127.904 173.284 128.319 172.82 128.887 172.474C129.455 172.124 130.132 171.949 130.918 171.949C131.908 171.949 132.715 172.259 133.34 172.879C133.97 173.5 134.284 174.435 134.284 175.685V183H132.161V175.884C132.161 175.145 131.96 174.61 131.557 174.278C131.155 173.947 130.674 173.781 130.115 173.781C129.424 173.781 128.887 173.994 128.503 174.42C128.12 174.842 127.928 175.384 127.928 176.047V183H125.811V175.749C125.811 175.157 125.627 174.681 125.257 174.321C124.888 173.961 124.408 173.781 123.816 173.781C123.413 173.781 123.042 173.888 122.701 174.101C122.364 174.309 122.092 174.6 121.884 174.974C121.68 175.348 121.578 175.782 121.578 176.274V183H119.455ZM137.301 183V168.455H139.425V173.859H139.553C139.676 173.632 139.853 173.369 140.085 173.071C140.317 172.773 140.639 172.512 141.051 172.29C141.463 172.062 142.008 171.949 142.685 171.949C143.565 171.949 144.351 172.171 145.043 172.616C145.734 173.062 146.276 173.703 146.669 174.541C147.067 175.379 147.266 176.388 147.266 177.567C147.266 178.746 147.069 179.757 146.676 180.599C146.283 181.437 145.743 182.084 145.057 182.538C144.37 182.988 143.587 183.213 142.706 183.213C142.043 183.213 141.501 183.102 141.08 182.879C140.663 182.657 140.336 182.396 140.099 182.098C139.863 181.8 139.68 181.535 139.553 181.303H139.375V183H137.301ZM139.382 177.545C139.382 178.312 139.493 178.985 139.716 179.562C139.938 180.14 140.26 180.592 140.682 180.919C141.103 181.241 141.619 181.402 142.23 181.402C142.865 181.402 143.395 181.234 143.821 180.898C144.247 180.557 144.569 180.095 144.787 179.513C145.009 178.93 145.121 178.275 145.121 177.545C145.121 176.826 145.012 176.179 144.794 175.607C144.581 175.034 144.259 174.581 143.828 174.25C143.402 173.919 142.869 173.753 142.23 173.753C141.615 173.753 141.094 173.911 140.668 174.229C140.246 174.546 139.927 174.989 139.709 175.557C139.491 176.125 139.382 176.788 139.382 177.545ZM154.352 183.22C153.277 183.22 152.351 182.991 151.575 182.531C150.803 182.067 150.207 181.416 149.785 180.578C149.368 179.735 149.16 178.748 149.16 177.616C149.16 176.499 149.368 175.514 149.785 174.662C150.207 173.81 150.794 173.144 151.547 172.666C152.304 172.188 153.19 171.949 154.203 171.949C154.818 171.949 155.415 172.051 155.993 172.254C156.57 172.458 157.089 172.777 157.548 173.213C158.007 173.649 158.369 174.214 158.635 174.911C158.9 175.602 159.032 176.442 159.032 177.432V178.185H150.36V176.594H156.951C156.951 176.035 156.838 175.54 156.61 175.109C156.383 174.674 156.064 174.33 155.652 174.08C155.244 173.829 154.766 173.703 154.217 173.703C153.62 173.703 153.1 173.85 152.654 174.143C152.214 174.432 151.873 174.811 151.632 175.28C151.395 175.744 151.277 176.248 151.277 176.793V178.036C151.277 178.765 151.404 179.385 151.66 179.896C151.921 180.408 152.283 180.798 152.747 181.068C153.211 181.333 153.753 181.466 154.373 181.466C154.776 181.466 155.143 181.409 155.474 181.295C155.806 181.177 156.092 181.002 156.333 180.77C156.575 180.538 156.76 180.251 156.887 179.911L158.897 180.273C158.736 180.865 158.448 181.383 158.031 181.828C157.619 182.268 157.1 182.612 156.475 182.858C155.855 183.099 155.147 183.22 154.352 183.22ZM161.388 183V172.091H163.441V173.824H163.555C163.754 173.237 164.104 172.775 164.606 172.439C165.112 172.098 165.685 171.928 166.325 171.928C166.457 171.928 166.613 171.932 166.793 171.942C166.978 171.951 167.122 171.963 167.227 171.977V174.009C167.141 173.985 166.99 173.959 166.772 173.93C166.554 173.897 166.336 173.881 166.119 173.881C165.617 173.881 165.169 173.987 164.776 174.2C164.388 174.409 164.08 174.7 163.853 175.074C163.626 175.443 163.512 175.865 163.512 176.338V183H161.388Z" fill="#F5F5F5"/>
<g filter="url(#filter0_d_519_3037)">
<path d="M42.0682 231V227.955L50.1477 220.034C50.9205 219.254 51.5644 218.561 52.0795 217.955C52.5947 217.348 52.9811 216.761 53.2386 216.193C53.4962 215.625 53.625 215.019 53.625 214.375C53.625 213.64 53.4583 213.011 53.125 212.489C52.7917 211.958 52.3333 211.549 51.75 211.261C51.1667 210.973 50.5038 210.83 49.7614 210.83C48.9962 210.83 48.3258 210.989 47.75 211.307C47.1742 211.617 46.7273 212.061 46.4091 212.636C46.0985 213.212 45.9432 213.898 45.9432 214.693H41.9318C41.9318 213.216 42.2689 211.932 42.9432 210.841C43.6174 209.75 44.5455 208.905 45.7273 208.307C46.9167 207.708 48.2803 207.409 49.8182 207.409C51.3788 207.409 52.75 207.701 53.9318 208.284C55.1136 208.867 56.0303 209.667 56.6818 210.682C57.3409 211.697 57.6705 212.856 57.6705 214.159C57.6705 215.03 57.5038 215.886 57.1705 216.727C56.8371 217.568 56.25 218.5 55.4091 219.523C54.5758 220.545 53.4053 221.784 51.8977 223.239L47.8864 227.318V227.477H58.0227V231H42.0682ZM61.9432 231V227.955L70.0227 220.034C70.7955 219.254 71.4394 218.561 71.9545 217.955C72.4697 217.348 72.8561 216.761 73.1136 216.193C73.3712 215.625 73.5 215.019 73.5 214.375C73.5 213.64 73.3333 213.011 73 212.489C72.6667 211.958 72.2083 211.549 71.625 211.261C71.0417 210.973 70.3788 210.83 69.6364 210.83C68.8712 210.83 68.2008 210.989 67.625 211.307C67.0492 211.617 66.6023 212.061 66.2841 212.636C65.9735 213.212 65.8182 213.898 65.8182 214.693H61.8068C61.8068 213.216 62.1439 211.932 62.8182 210.841C63.4924 209.75 64.4205 208.905 65.6023 208.307C66.7917 207.708 68.1553 207.409 69.6932 207.409C71.2538 207.409 72.625 207.701 73.8068 208.284C74.9886 208.867 75.9053 209.667 76.5568 210.682C77.2159 211.697 77.5455 212.856 77.5455 214.159C77.5455 215.03 77.3788 215.886 77.0455 216.727C76.7121 217.568 76.125 218.5 75.2841 219.523C74.4508 220.545 73.2803 221.784 71.7727 223.239L67.7614 227.318V227.477H77.8977V231H61.9432ZM80.8977 226.682V223.33L90.7727 207.727H93.5682V212.5H91.8636L85.2159 223.034V223.216H99V226.682H80.8977ZM92 231V225.659L92.0455 224.159V207.727H96.0227V231H92ZM110.983 231.318C109.347 231.318 107.892 231.038 106.619 230.477C105.354 229.917 104.354 229.136 103.619 228.136C102.884 227.136 102.494 225.981 102.449 224.67H106.722C106.759 225.299 106.968 225.848 107.347 226.318C107.725 226.78 108.229 227.14 108.858 227.398C109.487 227.655 110.191 227.784 110.972 227.784C111.805 227.784 112.544 227.64 113.188 227.352C113.831 227.057 114.335 226.648 114.699 226.125C115.063 225.602 115.241 225 115.233 224.318C115.241 223.614 115.059 222.992 114.688 222.455C114.316 221.917 113.778 221.496 113.074 221.193C112.377 220.89 111.536 220.739 110.551 220.739H108.494V217.489H110.551C111.362 217.489 112.07 217.348 112.676 217.068C113.29 216.788 113.771 216.394 114.119 215.886C114.468 215.371 114.638 214.777 114.631 214.102C114.638 213.443 114.491 212.871 114.188 212.386C113.892 211.894 113.472 211.511 112.926 211.239C112.388 210.966 111.756 210.83 111.028 210.83C110.316 210.83 109.657 210.958 109.051 211.216C108.445 211.473 107.956 211.841 107.585 212.318C107.214 212.788 107.017 213.348 106.994 214H102.938C102.968 212.697 103.343 211.553 104.062 210.568C104.79 209.576 105.759 208.803 106.972 208.25C108.184 207.689 109.544 207.409 111.051 207.409C112.604 207.409 113.953 207.701 115.097 208.284C116.248 208.86 117.138 209.636 117.767 210.614C118.396 211.591 118.71 212.67 118.71 213.852C118.718 215.163 118.331 216.261 117.551 217.148C116.778 218.034 115.763 218.614 114.506 218.886V219.068C116.142 219.295 117.396 219.902 118.267 220.886C119.146 221.864 119.581 223.08 119.574 224.534C119.574 225.837 119.203 227.004 118.46 228.034C117.725 229.057 116.71 229.86 115.415 230.443C114.127 231.027 112.65 231.318 110.983 231.318ZM139.935 231.318C138.821 231.311 137.734 231.117 136.673 230.739C135.613 230.352 134.658 229.727 133.81 228.864C132.961 227.992 132.287 226.837 131.787 225.398C131.287 223.951 131.041 222.159 131.048 220.023C131.048 218.03 131.26 216.254 131.685 214.693C132.109 213.133 132.719 211.814 133.514 210.739C134.31 209.655 135.268 208.83 136.389 208.261C137.518 207.693 138.779 207.409 140.173 207.409C141.635 207.409 142.931 207.697 144.06 208.273C145.196 208.848 146.113 209.636 146.81 210.636C147.507 211.629 147.938 212.75 148.105 214H143.957C143.745 213.106 143.31 212.394 142.651 211.864C141.999 211.326 141.173 211.057 140.173 211.057C138.56 211.057 137.317 211.758 136.446 213.159C135.582 214.561 135.147 216.485 135.139 218.932H135.298C135.67 218.265 136.151 217.693 136.741 217.216C137.332 216.739 137.999 216.371 138.741 216.114C139.491 215.848 140.283 215.716 141.116 215.716C142.48 215.716 143.704 216.042 144.787 216.693C145.878 217.345 146.741 218.242 147.378 219.386C148.014 220.523 148.329 221.826 148.321 223.295C148.329 224.826 147.98 226.201 147.276 227.42C146.571 228.633 145.59 229.587 144.332 230.284C143.075 230.981 141.609 231.326 139.935 231.318ZM139.912 227.909C140.738 227.909 141.476 227.708 142.128 227.307C142.779 226.905 143.295 226.364 143.673 225.682C144.052 225 144.238 224.235 144.23 223.386C144.238 222.553 144.056 221.799 143.685 221.125C143.321 220.451 142.817 219.917 142.173 219.523C141.529 219.129 140.795 218.932 139.969 218.932C139.355 218.932 138.783 219.049 138.253 219.284C137.723 219.519 137.26 219.845 136.866 220.261C136.473 220.67 136.162 221.148 135.935 221.693C135.715 222.231 135.601 222.807 135.594 223.42C135.601 224.231 135.791 224.977 136.162 225.659C136.533 226.341 137.045 226.886 137.696 227.295C138.348 227.705 139.086 227.909 139.912 227.909ZM160.685 231.318C159.571 231.311 158.484 231.117 157.423 230.739C156.363 230.352 155.408 229.727 154.56 228.864C153.711 227.992 153.037 226.837 152.537 225.398C152.037 223.951 151.791 222.159 151.798 220.023C151.798 218.03 152.01 216.254 152.435 214.693C152.859 213.133 153.469 211.814 154.264 210.739C155.06 209.655 156.018 208.83 157.139 208.261C158.268 207.693 159.529 207.409 160.923 207.409C162.385 207.409 163.681 207.697 164.81 208.273C165.946 208.848 166.863 209.636 167.56 210.636C168.257 211.629 168.688 212.75 168.855 214H164.707C164.495 213.106 164.06 212.394 163.401 211.864C162.749 211.326 161.923 211.057 160.923 211.057C159.31 211.057 158.067 211.758 157.196 213.159C156.332 214.561 155.897 216.485 155.889 218.932H156.048C156.42 218.265 156.901 217.693 157.491 217.216C158.082 216.739 158.749 216.371 159.491 216.114C160.241 215.848 161.033 215.716 161.866 215.716C163.23 215.716 164.454 216.042 165.537 216.693C166.628 217.345 167.491 218.242 168.128 219.386C168.764 220.523 169.079 221.826 169.071 223.295C169.079 224.826 168.73 226.201 168.026 227.42C167.321 228.633 166.34 229.587 165.082 230.284C163.825 230.981 162.359 231.326 160.685 231.318ZM160.662 227.909C161.488 227.909 162.226 227.708 162.878 227.307C163.529 226.905 164.045 226.364 164.423 225.682C164.802 225 164.988 224.235 164.98 223.386C164.988 222.553 164.806 221.799 164.435 221.125C164.071 220.451 163.567 219.917 162.923 219.523C162.279 219.129 161.545 218.932 160.719 218.932C160.105 218.932 159.533 219.049 159.003 219.284C158.473 219.519 158.01 219.845 157.616 220.261C157.223 220.67 156.912 221.148 156.685 221.693C156.465 222.231 156.351 222.807 156.344 223.42C156.351 224.231 156.541 224.977 156.912 225.659C157.283 226.341 157.795 226.886 158.446 227.295C159.098 227.705 159.836 227.909 160.662 227.909ZM181.003 231.318C179.488 231.318 178.132 231.034 176.935 230.466C175.738 229.89 174.787 229.102 174.082 228.102C173.385 227.102 173.014 225.958 172.969 224.67H177.06C177.135 225.625 177.548 226.405 178.298 227.011C179.048 227.61 179.95 227.909 181.003 227.909C181.829 227.909 182.563 227.72 183.207 227.341C183.851 226.962 184.359 226.436 184.73 225.761C185.101 225.087 185.283 224.318 185.276 223.455C185.283 222.576 185.098 221.795 184.719 221.114C184.34 220.432 183.821 219.898 183.162 219.511C182.503 219.117 181.745 218.92 180.889 218.92C180.192 218.913 179.507 219.042 178.832 219.307C178.158 219.572 177.624 219.92 177.23 220.352L173.423 219.727L174.639 207.727H188.139V211.25H178.128L177.457 217.42H177.594C178.026 216.913 178.635 216.492 179.423 216.159C180.211 215.818 181.075 215.648 182.014 215.648C183.423 215.648 184.681 215.981 185.787 216.648C186.893 217.307 187.764 218.216 188.401 219.375C189.037 220.534 189.355 221.86 189.355 223.352C189.355 224.89 188.999 226.261 188.287 227.466C187.582 228.663 186.601 229.606 185.344 230.295C184.094 230.977 182.647 231.318 181.003 231.318ZM193.162 231V227.955L201.241 220.034C202.014 219.254 202.658 218.561 203.173 217.955C203.688 217.348 204.075 216.761 204.332 216.193C204.59 215.625 204.719 215.019 204.719 214.375C204.719 213.64 204.552 213.011 204.219 212.489C203.885 211.958 203.427 211.549 202.844 211.261C202.26 210.973 201.598 210.83 200.855 210.83C200.09 210.83 199.42 210.989 198.844 211.307C198.268 211.617 197.821 212.061 197.503 212.636C197.192 213.212 197.037 213.898 197.037 214.693H193.026C193.026 213.216 193.363 211.932 194.037 210.841C194.711 209.75 195.639 208.905 196.821 208.307C198.01 207.708 199.374 207.409 200.912 207.409C202.473 207.409 203.844 207.701 205.026 208.284C206.207 208.867 207.124 209.667 207.776 210.682C208.435 211.697 208.764 212.856 208.764 214.159C208.764 215.03 208.598 215.886 208.264 216.727C207.931 217.568 207.344 218.5 206.503 219.523C205.67 220.545 204.499 221.784 202.991 223.239L198.98 227.318V227.477H209.116V231H193.162ZM229.054 207.409C230.168 207.417 231.251 207.614 232.304 208C233.365 208.379 234.319 209 235.168 209.864C236.016 210.72 236.69 211.867 237.19 213.307C237.69 214.746 237.94 216.527 237.94 218.648C237.948 220.648 237.736 222.436 237.304 224.011C236.88 225.58 236.27 226.905 235.474 227.989C234.679 229.072 233.721 229.898 232.599 230.466C231.478 231.034 230.217 231.318 228.815 231.318C227.346 231.318 226.043 231.03 224.906 230.455C223.777 229.879 222.865 229.091 222.168 228.091C221.471 227.091 221.043 225.947 220.884 224.659H225.031C225.243 225.583 225.675 226.318 226.327 226.864C226.986 227.402 227.815 227.67 228.815 227.67C230.429 227.67 231.671 226.97 232.543 225.568C233.414 224.167 233.849 222.22 233.849 219.727H233.69C233.319 220.394 232.838 220.97 232.247 221.455C231.656 221.932 230.986 222.299 230.236 222.557C229.493 222.814 228.705 222.943 227.872 222.943C226.509 222.943 225.281 222.617 224.19 221.966C223.107 221.314 222.247 220.42 221.611 219.284C220.982 218.148 220.664 216.848 220.656 215.386C220.656 213.871 221.005 212.511 221.702 211.307C222.406 210.095 223.387 209.14 224.645 208.443C225.902 207.739 227.372 207.394 229.054 207.409ZM229.065 210.818C228.247 210.818 227.509 211.019 226.849 211.42C226.198 211.814 225.683 212.352 225.304 213.034C224.933 213.708 224.747 214.462 224.747 215.295C224.755 216.121 224.94 216.871 225.304 217.545C225.675 218.22 226.179 218.754 226.815 219.148C227.459 219.542 228.194 219.739 229.02 219.739C229.634 219.739 230.205 219.621 230.736 219.386C231.266 219.152 231.728 218.826 232.122 218.409C232.524 217.985 232.834 217.504 233.054 216.966C233.281 216.428 233.391 215.86 233.384 215.261C233.384 214.466 233.194 213.731 232.815 213.057C232.444 212.383 231.933 211.841 231.281 211.432C230.637 211.023 229.899 210.818 229.065 210.818ZM241.304 226.682V223.33L251.179 207.727H253.974V212.5H252.27L245.622 223.034V223.216H259.406V226.682H241.304ZM252.406 231V225.659L252.452 224.159V207.727H256.429V231H252.406ZM271.389 231.318C269.753 231.318 268.298 231.038 267.026 230.477C265.76 229.917 264.76 229.136 264.026 228.136C263.291 227.136 262.901 225.981 262.855 224.67H267.128C267.166 225.299 267.374 225.848 267.753 226.318C268.132 226.78 268.635 227.14 269.264 227.398C269.893 227.655 270.598 227.784 271.378 227.784C272.211 227.784 272.95 227.64 273.594 227.352C274.238 227.057 274.741 226.648 275.105 226.125C275.469 225.602 275.647 225 275.639 224.318C275.647 223.614 275.465 222.992 275.094 222.455C274.723 221.917 274.185 221.496 273.48 221.193C272.783 220.89 271.942 220.739 270.957 220.739H268.901V217.489H270.957C271.768 217.489 272.476 217.348 273.082 217.068C273.696 216.788 274.177 216.394 274.526 215.886C274.874 215.371 275.045 214.777 275.037 214.102C275.045 213.443 274.897 212.871 274.594 212.386C274.298 211.894 273.878 211.511 273.332 211.239C272.795 210.966 272.162 210.83 271.435 210.83C270.723 210.83 270.063 210.958 269.457 211.216C268.851 211.473 268.363 211.841 267.991 212.318C267.62 212.788 267.423 213.348 267.401 214H263.344C263.374 212.697 263.749 211.553 264.469 210.568C265.196 209.576 266.166 208.803 267.378 208.25C268.59 207.689 269.95 207.409 271.457 207.409C273.01 207.409 274.359 207.701 275.503 208.284C276.654 208.86 277.545 209.636 278.173 210.614C278.802 211.591 279.116 212.67 279.116 213.852C279.124 215.163 278.738 216.261 277.957 217.148C277.185 218.034 276.17 218.614 274.912 218.886V219.068C276.548 219.295 277.802 219.902 278.673 220.886C279.552 221.864 279.988 223.08 279.98 224.534C279.98 225.837 279.609 227.004 278.866 228.034C278.132 229.057 277.116 229.86 275.821 230.443C274.533 231.027 273.056 231.318 271.389 231.318ZM291.972 231.318C290.456 231.318 289.1 231.034 287.903 230.466C286.706 229.89 285.756 229.102 285.051 228.102C284.354 227.102 283.983 225.958 283.938 224.67H288.028C288.104 225.625 288.517 226.405 289.267 227.011C290.017 227.61 290.919 227.909 291.972 227.909C292.797 227.909 293.532 227.72 294.176 227.341C294.82 226.962 295.328 226.436 295.699 225.761C296.07 225.087 296.252 224.318 296.244 223.455C296.252 222.576 296.066 221.795 295.688 221.114C295.309 220.432 294.79 219.898 294.131 219.511C293.472 219.117 292.714 218.92 291.858 218.92C291.161 218.913 290.475 219.042 289.801 219.307C289.127 219.572 288.593 219.92 288.199 220.352L284.392 219.727L285.608 207.727H299.108V211.25H289.097L288.426 217.42H288.562C288.994 216.913 289.604 216.492 290.392 216.159C291.18 215.818 292.044 215.648 292.983 215.648C294.392 215.648 295.65 215.981 296.756 216.648C297.862 217.307 298.733 218.216 299.369 219.375C300.006 220.534 300.324 221.86 300.324 223.352C300.324 224.89 299.968 226.261 299.256 227.466C298.551 228.663 297.57 229.606 296.312 230.295C295.062 230.977 293.616 231.318 291.972 231.318ZM320.148 207.409C321.261 207.417 322.345 207.614 323.398 208C324.458 208.379 325.413 209 326.261 209.864C327.11 210.72 327.784 211.867 328.284 213.307C328.784 214.746 329.034 216.527 329.034 218.648C329.042 220.648 328.83 222.436 328.398 224.011C327.973 225.58 327.364 226.905 326.568 227.989C325.773 229.072 324.814 229.898 323.693 230.466C322.572 231.034 321.311 231.318 319.909 231.318C318.439 231.318 317.136 231.03 316 230.455C314.871 229.879 313.958 229.091 313.261 228.091C312.564 227.091 312.136 225.947 311.977 224.659H316.125C316.337 225.583 316.769 226.318 317.42 226.864C318.08 227.402 318.909 227.67 319.909 227.67C321.523 227.67 322.765 226.97 323.636 225.568C324.508 224.167 324.943 222.22 324.943 219.727H324.784C324.413 220.394 323.932 220.97 323.341 221.455C322.75 221.932 322.08 222.299 321.33 222.557C320.587 222.814 319.799 222.943 318.966 222.943C317.602 222.943 316.375 222.617 315.284 221.966C314.201 221.314 313.341 220.42 312.705 219.284C312.076 218.148 311.758 216.848 311.75 215.386C311.75 213.871 312.098 212.511 312.795 211.307C313.5 210.095 314.481 209.14 315.739 208.443C316.996 207.739 318.466 207.394 320.148 207.409ZM320.159 210.818C319.341 210.818 318.602 211.019 317.943 211.42C317.292 211.814 316.777 212.352 316.398 213.034C316.027 213.708 315.841 214.462 315.841 215.295C315.848 216.121 316.034 216.871 316.398 217.545C316.769 218.22 317.273 218.754 317.909 219.148C318.553 219.542 319.288 219.739 320.114 219.739C320.727 219.739 321.299 219.621 321.83 219.386C322.36 219.152 322.822 218.826 323.216 218.409C323.617 217.985 323.928 217.504 324.148 216.966C324.375 216.428 324.485 215.86 324.477 215.261C324.477 214.466 324.288 213.731 323.909 213.057C323.538 212.383 323.027 211.841 322.375 211.432C321.731 211.023 320.992 210.818 320.159 210.818ZM340.898 207.409C342.011 207.417 343.095 207.614 344.148 208C345.208 208.379 346.163 209 347.011 209.864C347.86 210.72 348.534 211.867 349.034 213.307C349.534 214.746 349.784 216.527 349.784 218.648C349.792 220.648 349.58 222.436 349.148 224.011C348.723 225.58 348.114 226.905 347.318 227.989C346.523 229.072 345.564 229.898 344.443 230.466C343.322 231.034 342.061 231.318 340.659 231.318C339.189 231.318 337.886 231.03 336.75 230.455C335.621 229.879 334.708 229.091 334.011 228.091C333.314 227.091 332.886 225.947 332.727 224.659H336.875C337.087 225.583 337.519 226.318 338.17 226.864C338.83 227.402 339.659 227.67 340.659 227.67C342.273 227.67 343.515 226.97 344.386 225.568C345.258 224.167 345.693 222.22 345.693 219.727H345.534C345.163 220.394 344.682 220.97 344.091 221.455C343.5 221.932 342.83 222.299 342.08 222.557C341.337 222.814 340.549 222.943 339.716 222.943C338.352 222.943 337.125 222.617 336.034 221.966C334.951 221.314 334.091 220.42 333.455 219.284C332.826 218.148 332.508 216.848 332.5 215.386C332.5 213.871 332.848 212.511 333.545 211.307C334.25 210.095 335.231 209.14 336.489 208.443C337.746 207.739 339.216 207.394 340.898 207.409ZM340.909 210.818C340.091 210.818 339.352 211.019 338.693 211.42C338.042 211.814 337.527 212.352 337.148 213.034C336.777 213.708 336.591 214.462 336.591 215.295C336.598 216.121 336.784 216.871 337.148 217.545C337.519 218.22 338.023 218.754 338.659 219.148C339.303 219.542 340.038 219.739 340.864 219.739C341.477 219.739 342.049 219.621 342.58 219.386C343.11 219.152 343.572 218.826 343.966 218.409C344.367 217.985 344.678 217.504 344.898 216.966C345.125 216.428 345.235 215.86 345.227 215.261C345.227 214.466 345.038 213.731 344.659 213.057C344.288 212.383 343.777 211.841 343.125 211.432C342.481 211.023 341.742 210.818 340.909 210.818ZM361.841 231.318C360.152 231.318 358.652 231.034 357.341 230.466C356.038 229.898 355.015 229.121 354.273 228.136C353.538 227.144 353.174 226.019 353.182 224.761C353.174 223.784 353.386 222.886 353.818 222.068C354.25 221.25 354.833 220.568 355.568 220.023C356.311 219.47 357.136 219.117 358.045 218.966V218.807C356.848 218.542 355.879 217.932 355.136 216.977C354.402 216.015 354.038 214.905 354.045 213.648C354.038 212.451 354.371 211.383 355.045 210.443C355.72 209.504 356.644 208.765 357.818 208.227C358.992 207.682 360.333 207.409 361.841 207.409C363.333 207.409 364.663 207.682 365.83 208.227C367.004 208.765 367.928 209.504 368.602 210.443C369.284 211.383 369.625 212.451 369.625 213.648C369.625 214.905 369.25 216.015 368.5 216.977C367.758 217.932 366.799 218.542 365.625 218.807V218.966C366.534 219.117 367.352 219.47 368.08 220.023C368.814 220.568 369.398 221.25 369.83 222.068C370.269 222.886 370.489 223.784 370.489 224.761C370.489 226.019 370.117 227.144 369.375 228.136C368.633 229.121 367.61 229.898 366.307 230.466C365.011 231.034 363.523 231.318 361.841 231.318ZM361.841 228.068C362.712 228.068 363.47 227.92 364.114 227.625C364.758 227.322 365.258 226.898 365.614 226.352C365.97 225.807 366.152 225.178 366.159 224.466C366.152 223.723 365.958 223.068 365.58 222.5C365.208 221.924 364.697 221.473 364.045 221.148C363.402 220.822 362.667 220.659 361.841 220.659C361.008 220.659 360.265 220.822 359.614 221.148C358.962 221.473 358.447 221.924 358.068 222.5C357.697 223.068 357.515 223.723 357.523 224.466C357.515 225.178 357.689 225.807 358.045 226.352C358.402 226.89 358.902 227.311 359.545 227.614C360.197 227.917 360.962 228.068 361.841 228.068ZM361.841 217.466C362.553 217.466 363.182 217.322 363.727 217.034C364.28 216.746 364.716 216.345 365.034 215.83C365.352 215.314 365.515 214.72 365.523 214.045C365.515 213.379 365.356 212.795 365.045 212.295C364.735 211.788 364.303 211.398 363.75 211.125C363.197 210.845 362.561 210.705 361.841 210.705C361.106 210.705 360.458 210.845 359.898 211.125C359.345 211.398 358.913 211.788 358.602 212.295C358.299 212.795 358.152 213.379 358.159 214.045C358.152 214.72 358.303 215.314 358.614 215.83C358.932 216.337 359.367 216.739 359.92 217.034C360.481 217.322 361.121 217.466 361.841 217.466ZM374.224 231V227.955L382.304 220.034C383.077 219.254 383.721 218.561 384.236 217.955C384.751 217.348 385.137 216.761 385.395 216.193C385.652 215.625 385.781 215.019 385.781 214.375C385.781 213.64 385.615 213.011 385.281 212.489C384.948 211.958 384.49 211.549 383.906 211.261C383.323 210.973 382.66 210.83 381.918 210.83C381.152 210.83 380.482 210.989 379.906 211.307C379.33 211.617 378.884 212.061 378.565 212.636C378.255 213.212 378.099 213.898 378.099 214.693H374.088C374.088 213.216 374.425 211.932 375.099 210.841C375.774 209.75 376.702 208.905 377.884 208.307C379.073 207.708 380.437 207.409 381.974 207.409C383.535 207.409 384.906 207.701 386.088 208.284C387.27 208.867 388.187 209.667 388.838 210.682C389.497 211.697 389.827 212.856 389.827 214.159C389.827 215.03 389.66 215.886 389.327 216.727C388.993 217.568 388.406 218.5 387.565 219.523C386.732 220.545 385.562 221.784 384.054 223.239L380.043 227.318V227.477H390.179V231H374.224Z" fill="#F5F5F5"/>
</g>
<path d="M41.598 325V310.455H50.7173V312.344H43.7926V316.776H50.2415V318.658H43.7926V323.111H50.8026V325H41.598ZM55.1545 314.091L57.5621 318.338L59.9911 314.091H62.3136L58.9116 319.545L62.342 325H60.0195L57.5621 320.923L55.1119 325H52.7823L56.1772 319.545L52.8249 314.091H55.1545ZM64.494 329.091V314.091H66.5678V315.859H66.7454C66.8685 315.632 67.046 315.369 67.2781 315.071C67.5101 314.773 67.832 314.512 68.244 314.29C68.6559 314.062 69.2004 313.949 69.8775 313.949C70.7582 313.949 71.5442 314.171 72.2354 314.616C72.9267 315.062 73.4689 315.703 73.8619 316.541C74.2596 317.379 74.4585 318.388 74.4585 319.567C74.4585 320.746 74.262 321.757 73.869 322.599C73.476 323.437 72.9362 324.084 72.2496 324.538C71.5631 324.988 70.7795 325.213 69.8988 325.213C69.2359 325.213 68.6938 325.102 68.2724 324.879C67.8557 324.657 67.529 324.396 67.2923 324.098C67.0555 323.8 66.8732 323.535 66.7454 323.303H66.6175V329.091H64.494ZM66.5749 319.545C66.5749 320.312 66.6862 320.985 66.9087 321.562C67.1313 322.14 67.4532 322.592 67.8746 322.919C68.296 323.241 68.8121 323.402 69.4229 323.402C70.0574 323.402 70.5877 323.234 71.0138 322.898C71.44 322.557 71.762 322.095 71.9798 321.513C72.2023 320.93 72.3136 320.275 72.3136 319.545C72.3136 318.826 72.2047 318.179 71.9869 317.607C71.7738 317.034 71.4518 316.581 71.021 316.25C70.5948 315.919 70.0621 315.753 69.4229 315.753C68.8074 315.753 68.2866 315.911 67.8604 316.229C67.439 316.546 67.1194 316.989 66.9016 317.557C66.6838 318.125 66.5749 318.788 66.5749 319.545ZM76.8377 325V314.091H78.9613V325H76.8377ZM77.9102 312.408C77.5408 312.408 77.2236 312.285 76.9585 312.038C76.698 311.787 76.5678 311.489 76.5678 311.143C76.5678 310.793 76.698 310.495 76.9585 310.249C77.2236 309.998 77.5408 309.872 77.9102 309.872C78.2795 309.872 78.5943 309.998 78.8548 310.249C79.1199 310.495 79.2525 310.793 79.2525 311.143C79.2525 311.489 79.1199 311.787 78.8548 312.038C78.5943 312.285 78.2795 312.408 77.9102 312.408ZM81.8182 325V314.091H83.8707V315.824H83.9844C84.1832 315.237 84.5336 314.775 85.0355 314.439C85.5421 314.098 86.1151 313.928 86.7543 313.928C86.8868 313.928 87.0431 313.932 87.223 313.942C87.4077 313.951 87.5521 313.963 87.6562 313.977V316.009C87.571 315.985 87.4195 315.959 87.2017 315.93C86.9839 315.897 86.7661 315.881 86.5483 315.881C86.0464 315.881 85.599 315.987 85.206 316.2C84.8177 316.409 84.5099 316.7 84.2827 317.074C84.0554 317.443 83.9418 317.865 83.9418 318.338V325H81.8182ZM91.1683 329.091C90.8511 329.091 90.5623 329.065 90.3018 329.013C90.0414 328.965 89.8473 328.913 89.7195 328.857L90.2308 327.116C90.6191 327.221 90.9647 327.266 91.2678 327.251C91.5708 327.237 91.8383 327.124 92.0703 326.911C92.3071 326.697 92.5154 326.349 92.6953 325.866L92.9581 325.142L88.9666 314.091H91.2393L94.0021 322.557H94.1158L96.8786 314.091H99.1584L94.6626 326.456C94.4543 327.024 94.1892 327.505 93.8672 327.898C93.5452 328.295 93.1617 328.594 92.7166 328.793C92.2715 328.991 91.7554 329.091 91.1683 329.091ZM111.326 325H106.618V310.455H111.475C112.901 310.455 114.125 310.746 115.147 311.328C116.17 311.906 116.954 312.737 117.498 313.821C118.047 314.901 118.322 316.196 118.322 317.706C118.322 319.221 118.045 320.523 117.491 321.612C116.942 322.701 116.146 323.539 115.105 324.126C114.063 324.709 112.804 325 111.326 325ZM108.812 323.082H111.206C112.314 323.082 113.234 322.874 113.968 322.457C114.702 322.036 115.252 321.428 115.616 320.632C115.981 319.832 116.163 318.857 116.163 317.706C116.163 316.565 115.981 315.597 115.616 314.801C115.256 314.006 114.719 313.402 114.004 312.99C113.289 312.578 112.401 312.372 111.341 312.372H108.812V323.082ZM124.055 325.241C123.364 325.241 122.739 325.114 122.18 324.858C121.622 324.598 121.179 324.221 120.852 323.729C120.53 323.236 120.369 322.633 120.369 321.918C120.369 321.302 120.488 320.795 120.724 320.398C120.961 320 121.281 319.685 121.683 319.453C122.086 319.221 122.536 319.046 123.033 318.928C123.53 318.809 124.036 318.719 124.553 318.658C125.206 318.582 125.736 318.52 126.143 318.473C126.551 318.421 126.847 318.338 127.031 318.224C127.216 318.111 127.308 317.926 127.308 317.67V317.621C127.308 317 127.133 316.52 126.783 316.179C126.437 315.838 125.921 315.668 125.234 315.668C124.519 315.668 123.956 315.826 123.544 316.143C123.137 316.456 122.855 316.804 122.699 317.188L120.703 316.733C120.94 316.07 121.286 315.535 121.74 315.128C122.199 314.716 122.727 314.418 123.324 314.233C123.92 314.044 124.548 313.949 125.206 313.949C125.642 313.949 126.103 314.001 126.591 314.105C127.083 314.205 127.543 314.389 127.969 314.659C128.4 314.929 128.752 315.315 129.027 315.817C129.302 316.314 129.439 316.96 129.439 317.756V325H127.365V323.509H127.28C127.143 323.783 126.937 324.053 126.662 324.318C126.387 324.583 126.035 324.804 125.604 324.979C125.173 325.154 124.657 325.241 124.055 325.241ZM124.517 323.537C125.104 323.537 125.606 323.421 126.023 323.189C126.444 322.957 126.764 322.654 126.982 322.28C127.204 321.901 127.315 321.496 127.315 321.065V319.659C127.24 319.735 127.093 319.806 126.875 319.872C126.662 319.934 126.418 319.988 126.143 320.036C125.869 320.078 125.601 320.118 125.341 320.156C125.08 320.189 124.863 320.218 124.688 320.241C124.276 320.294 123.899 320.381 123.558 320.504C123.222 320.627 122.952 320.805 122.749 321.037C122.55 321.264 122.45 321.567 122.45 321.946C122.45 322.472 122.644 322.869 123.033 323.139C123.421 323.404 123.916 323.537 124.517 323.537ZM137.36 314.091V315.795H131.401V314.091H137.36ZM132.999 311.477H135.123V321.797C135.123 322.209 135.184 322.519 135.307 322.727C135.43 322.931 135.589 323.071 135.783 323.146C135.982 323.217 136.197 323.253 136.429 323.253C136.6 323.253 136.749 323.241 136.877 323.217C137.005 323.194 137.104 323.175 137.175 323.161L137.559 324.915C137.435 324.962 137.26 325.009 137.033 325.057C136.806 325.109 136.522 325.137 136.181 325.142C135.622 325.152 135.101 325.052 134.618 324.844C134.135 324.635 133.745 324.313 133.446 323.878C133.148 323.442 132.999 322.895 132.999 322.237V311.477ZM144.293 325.22C143.219 325.22 142.293 324.991 141.516 324.531C140.745 324.067 140.148 323.416 139.727 322.578C139.31 321.735 139.102 320.748 139.102 319.616C139.102 318.499 139.31 317.514 139.727 316.662C140.148 315.81 140.735 315.144 141.488 314.666C142.246 314.188 143.131 313.949 144.144 313.949C144.76 313.949 145.356 314.051 145.934 314.254C146.512 314.458 147.03 314.777 147.489 315.213C147.949 315.649 148.311 316.214 148.576 316.911C148.841 317.602 148.974 318.442 148.974 319.432V320.185H140.302V318.594H146.893C146.893 318.035 146.779 317.54 146.552 317.109C146.325 316.674 146.005 316.33 145.593 316.08C145.186 315.829 144.708 315.703 144.158 315.703C143.562 315.703 143.041 315.85 142.596 316.143C142.156 316.432 141.815 316.811 141.573 317.28C141.336 317.744 141.218 318.248 141.218 318.793V320.036C141.218 320.765 141.346 321.385 141.602 321.896C141.862 322.408 142.224 322.798 142.688 323.068C143.152 323.333 143.694 323.466 144.315 323.466C144.717 323.466 145.084 323.409 145.415 323.295C145.747 323.177 146.033 323.002 146.275 322.77C146.516 322.538 146.701 322.251 146.829 321.911L148.839 322.273C148.678 322.865 148.389 323.383 147.972 323.828C147.56 324.268 147.042 324.612 146.417 324.858C145.797 325.099 145.089 325.22 144.293 325.22Z" fill="#C4C4C4"/>
<path d="M47.2088 342.455V357H44.5739V345.018H44.4886L41.0866 347.192V344.777L44.7017 342.455H47.2088ZM56.2784 357.277C55.1089 357.277 54.1051 356.981 53.267 356.389C52.4337 355.793 51.7921 354.933 51.3423 353.811C50.8973 352.684 50.6747 351.328 50.6747 349.741C50.6795 348.155 50.9044 346.806 51.3494 345.693C51.7992 344.576 52.4408 343.723 53.2741 343.136C54.1122 342.549 55.1136 342.256 56.2784 342.256C57.4432 342.256 58.4446 342.549 59.2827 343.136C60.1207 343.723 60.7623 344.576 61.2074 345.693C61.6572 346.811 61.8821 348.16 61.8821 349.741C61.8821 351.332 61.6572 352.691 61.2074 353.818C60.7623 354.94 60.1207 355.797 59.2827 356.389C58.4493 356.981 57.4479 357.277 56.2784 357.277ZM56.2784 355.054C57.1875 355.054 57.9048 354.607 58.4304 353.712C58.9607 352.812 59.2259 351.489 59.2259 349.741C59.2259 348.586 59.1051 347.616 58.8636 346.83C58.6222 346.044 58.2813 345.452 57.8409 345.054C57.4006 344.652 56.8797 344.45 56.2784 344.45C55.3741 344.45 54.6591 344.9 54.1335 345.8C53.608 346.695 53.3428 348.009 53.3381 349.741C53.3333 350.902 53.4493 351.877 53.6861 352.668C53.9276 353.458 54.2685 354.055 54.7088 354.457C55.1491 354.855 55.6723 355.054 56.2784 355.054ZM70.2077 341.773L65.5202 359.188H63.2688L67.9563 341.773H70.2077ZM71.82 357V355.097L76.8697 350.146C77.3526 349.659 77.7551 349.225 78.0771 348.847C78.399 348.468 78.6405 348.101 78.8015 347.746C78.9625 347.391 79.043 347.012 79.043 346.609C79.043 346.15 78.9388 345.757 78.7305 345.43C78.5221 345.099 78.2357 344.843 77.8711 344.663C77.5065 344.483 77.0922 344.393 76.6282 344.393C76.15 344.393 75.7309 344.493 75.3711 344.692C75.0112 344.886 74.7319 345.163 74.533 345.523C74.3389 345.883 74.2418 346.311 74.2418 346.808H71.7347C71.7347 345.885 71.9454 345.082 72.3668 344.401C72.7882 343.719 73.3683 343.191 74.1069 342.817C74.8503 342.443 75.7025 342.256 76.6637 342.256C77.6391 342.256 78.4961 342.438 79.2347 342.803C79.9734 343.167 80.5463 343.667 80.9535 344.301C81.3654 344.936 81.5714 345.66 81.5714 346.474C81.5714 347.019 81.4672 347.554 81.2589 348.08C81.0505 348.605 80.6836 349.187 80.158 349.827C79.6372 350.466 78.9057 351.24 77.9634 352.149L75.4563 354.699V354.798H81.7915V357H71.82ZM89.4123 357.199C88.3564 357.199 87.4189 357.021 86.5998 356.666C85.7854 356.311 85.1462 355.826 84.6822 355.21C84.2229 354.59 83.9956 353.887 84.0004 353.101C83.9956 352.49 84.1282 351.929 84.3981 351.418C84.668 350.906 85.0326 350.48 85.4918 350.139C85.9558 349.794 86.4719 349.573 87.0401 349.479V349.379C86.292 349.214 85.686 348.832 85.2219 348.236C84.7627 347.634 84.5354 346.941 84.5401 346.155C84.5354 345.407 84.7437 344.739 85.1651 344.152C85.5865 343.565 86.1642 343.103 86.8981 342.767C87.632 342.426 88.4701 342.256 89.4123 342.256C90.3451 342.256 91.176 342.426 91.9052 342.767C92.6391 343.103 93.2167 343.565 93.6381 344.152C94.0643 344.739 94.2773 345.407 94.2773 346.155C94.2773 346.941 94.043 347.634 93.5742 348.236C93.1102 348.832 92.5112 349.214 91.7773 349.379V349.479C92.3455 349.573 92.8569 349.794 93.3114 350.139C93.7707 350.48 94.1353 350.906 94.4052 351.418C94.6798 351.929 94.8171 352.49 94.8171 353.101C94.8171 353.887 94.5851 354.59 94.1211 355.21C93.6571 355.826 93.0179 356.311 92.2035 356.666C91.3938 357.021 90.4634 357.199 89.4123 357.199ZM89.4123 355.168C89.9568 355.168 90.4303 355.075 90.8327 354.891C91.2352 354.701 91.5477 354.436 91.7702 354.095C91.9928 353.754 92.1064 353.361 92.1112 352.916C92.1064 352.452 91.9857 352.043 91.7489 351.688C91.5169 351.328 91.1973 351.046 90.7901 350.842C90.3877 350.639 89.9284 350.537 89.4123 350.537C88.8915 350.537 88.4274 350.639 88.0202 350.842C87.613 351.046 87.2911 351.328 87.0543 351.688C86.8223 352.043 86.7087 352.452 86.7134 352.916C86.7087 353.361 86.8176 353.754 87.0401 354.095C87.2627 354.431 87.5752 354.694 87.9776 354.884C88.3848 355.073 88.863 355.168 89.4123 355.168ZM89.4123 348.541C89.8574 348.541 90.2504 348.451 90.5913 348.271C90.9369 348.091 91.2092 347.84 91.408 347.518C91.6069 347.196 91.7087 346.825 91.7134 346.403C91.7087 345.987 91.6093 345.622 91.4151 345.31C91.221 344.992 90.9511 344.749 90.6055 344.578C90.2598 344.403 89.8621 344.315 89.4123 344.315C88.953 344.315 88.5482 344.403 88.1978 344.578C87.8522 344.749 87.5823 344.992 87.3881 345.31C87.1987 345.622 87.1064 345.987 87.1112 346.403C87.1064 346.825 87.2011 347.196 87.3952 347.518C87.5941 347.836 87.8664 348.087 88.212 348.271C88.5624 348.451 88.9625 348.541 89.4123 348.541Z" fill="white"/>
<path d="M528.073 346.757L527.323 342.968H518.943L517.61 346.73L510.893 346.743C514.091 338.974 517.295 331.208 520.507 323.445C521.053 322.128 522.023 321.458 523.453 321.465C524.547 321.475 526.33 321.475 528.807 321.468L534 346.747L528.073 346.757ZM520.83 337.778H526.23L524.213 328.281L520.83 337.778ZM477.533 321.461L484.287 321.468L473.847 346.76L467.01 346.753C465.291 340.073 463.593 333.387 461.917 326.695C461.583 325.361 460.923 324.428 459.653 323.987C458.523 323.593 456.64 322.987 454 322.162V321.471H464.79C466.657 321.471 467.747 322.384 468.097 324.257C468.45 326.133 469.337 330.908 470.763 338.583L477.533 321.461ZM493.567 321.468L488.227 346.753L481.8 346.747L487.133 321.461L493.567 321.468ZM506.6 321C508.523 321 510.947 321.606 512.34 322.162L511.213 327.406C509.953 326.894 507.88 326.203 506.137 326.227C503.603 326.271 502.037 327.345 502.037 328.375C502.037 330.053 504.757 330.898 507.557 332.73C510.753 334.818 511.173 336.694 511.133 338.731C511.09 342.961 507.557 347.134 500.103 347.134C496.703 347.084 495.477 346.794 492.703 345.8L493.877 340.328C496.7 341.523 497.897 341.904 500.31 341.904C502.52 341.904 504.417 341.001 504.433 339.429C504.447 338.31 503.767 337.755 501.287 336.374C498.807 334.99 495.327 333.074 495.373 329.228C495.43 324.304 500.047 321 506.603 321H506.6Z" fill="white"/>
<g clip-path="url(#clip1_519_3037)">
<rect x="469" y="114" width="65" height="50" rx="8" fill="white" fill-opacity="0.24"/>
<path fill-rule="evenodd" clip-rule="evenodd" d="M489 164H491V114H489V127H469V129H489V139H469V141H489V151H469V153H489V164Z" fill="white" fill-opacity="0.64"/>
<path fill-rule="evenodd" clip-rule="evenodd" d="M511.271 139L511.423 138.635L511.445 138.583L511.445 138.583C512.744 135.466 514.056 132.319 515.161 129H532V127H515.793C517.106 122.607 518 117.878 518 112.5H516C516 122.434 512.83 130.061 509.577 137.865L509.555 137.917C509.405 138.278 509.255 138.639 509.104 139H509V139.251C505.948 146.605 503 154.234 503 164H505C505 160.016 505.51 156.402 506.331 153H532V151H506.854C507.83 147.533 509.101 144.26 510.442 141H532V139H511.271Z" fill="white" fill-opacity="0.64"/>
</g>
<rect x="470" y="115" width="63" height="48" rx="7" stroke="white" stroke-opacity="0.64" stroke-width="2"/>
<g filter="url(#filter1_f_519_3037)">
<ellipse cx="558.5" cy="356.5" rx="118.5" ry="118.5" transform="rotate(-90 558.5 356.5)" fill="#3C459A" fill-opacity="0.5"/>
</g>
<mask id="mask0_519_3037" style="mask-type:alpha" maskUnits="userSpaceOnUse" x="79" y="70" width="960" height="573">
<rect x="79" y="70" width="960" height="573" fill="url(#paint1_radial_519_3037)"/>
</mask>
<g mask="url(#mask0_519_3037)">
<rect x="202.5" y="79.5" width="79" height="79" stroke="white"/>
<rect x="281.5" y="79.5" width="79" height="79" stroke="white"/>
<rect x="360.5" y="79.5" width="79" height="79" stroke="white"/>
<rect x="439.5" y="79.5" width="79" height="79" stroke="white"/>
<rect x="518.5" y="79.5" width="79" height="79" stroke="white"/>
<rect x="202.5" y="158.5" width="79" height="79" stroke="white"/>
<rect x="281.5" y="158.5" width="79" height="79" stroke="white"/>
<rect x="360.5" y="158.5" width="79" height="79" stroke="white"/>
<rect x="439.5" y="158.5" width="79" height="79" stroke="white"/>
<rect x="518.5" y="158.5" width="79" height="79" stroke="white"/>
<rect x="202.5" y="237.5" width="79" height="79" stroke="white"/>
<rect x="281.5" y="237.5" width="79" height="79" stroke="white"/>
<rect x="360.5" y="237.5" width="79" height="79" stroke="white"/>
<rect x="439.5" y="237.5" width="79" height="79" stroke="white"/>
<rect x="518.5" y="237.5" width="79" height="79" fill="white" fill-opacity="0.25" stroke="white"/>
<rect x="202.5" y="316.5" width="79" height="79" stroke="white"/>
<rect x="281.5" y="316.5" width="79" height="79" stroke="white"/>
<rect x="360.5" y="316.5" width="79" height="79" stroke="white"/>
<rect x="439.5" y="316.5" width="79" height="79" stroke="white"/>
<rect x="518.5" y="316.5" width="79" height="79" stroke="white"/>
</g>
</g>
<defs>
<filter id="filter0_d_519_3037" x="33.9318" y="199.386" width="364.247" height="39.9432" filterUnits="userSpaceOnUse" color-interpolation-filters="sRGB">
<feFlood flood-opacity="0" result="BackgroundImageFix"/>
<feColorMatrix in="SourceAlpha" type="matrix" values="0 0 0 0 0 0 0 0 0 0 0 0 0 0 0 0 0 0 127 0" result="hardAlpha"/>
<feOffset/>
<feGaussianBlur stdDeviation="4"/>
<feComposite in2="hardAlpha" operator="out"/>
<feColorMatrix type="matrix" values="0 0 0 0 0 0 0 0 0 0 0 0 0 0 0 0 0 0 0.16 0"/>
<feBlend mode="normal" in2="BackgroundImageFix" result="effect1_dropShadow_519_3037"/>
<feBlend mode="normal" in="SourceGraphic" in2="effect1_dropShadow_519_3037" result="shape"/>
</filter>
<filter id="filter1_f_519_3037" x="240" y="38" width="637" height="637" filterUnits="userSpaceOnUse" color-interpolation-filters="sRGB">
<feFlood flood-opacity="0" result="BackgroundImageFix"/>
<feBlend mode="normal" in="SourceGraphic" in2="BackgroundImageFix" result="shape"/>
<feGaussianBlur stdDeviation="100" result="effect1_foregroundBlur_519_3037"/>
</filter>
<linearGradient id="paint0_linear_519_3037" x1="25.895" y1="377.464" x2="201.565" y2="-115.898" gradientUnits="userSpaceOnUse">
<stop stop-color="#7FCEF3"/>
<stop offset="1" stop-color="#4C00FF"/>
</linearGradient>
<radialGradient id="paint1_radial_519_3037" cx="0" cy="0" r="1" gradientUnits="userSpaceOnUse" gradientTransform="translate(559 356.5) rotate(90) scale(353.19 591.732)">
<stop stop-color="#D9D9D9" stop-opacity="0.2"/>
<stop offset="0.802083" stop-color="#D9D9D9" stop-opacity="0"/>
</radialGradient>
<clipPath id="clip0_519_3037">
<rect width="574" height="390" rx="32" fill="white"/>
</clipPath>
<clipPath id="clip1_519_3037">
<rect x="469" y="114" width="65" height="50" rx="8" fill="white"/>
</clipPath>
</defs>
</svg>
