<svg width="163" height="48" viewBox="0 0 163 48" fill="none" xmlns="http://www.w3.org/2000/svg">
<path d="M9.97846 32.0002C9.12186 31.1398 8.44421 30.1197 7.98433 28.9982C7.52445 27.8767 7.29137 26.676 7.29844 25.4648C7.29532 24.2535 7.53486 23.0539 8.00303 21.9359C8.4712 20.8179 9.15862 19.804 10.0251 18.9535C10.3962 18.6252 10.6962 18.2248 10.9065 17.7771C11.1168 17.3294 11.2331 16.8436 11.2482 16.3496C11.2633 15.8555 11.177 15.3636 10.9945 14.904C10.8119 14.4443 10.5371 14.0266 10.1867 13.6763C9.83631 13.3261 9.4178 13.0507 8.95676 12.867C8.49573 12.6834 8.00188 12.5953 7.50547 12.6082C7.00905 12.6212 6.5205 12.7348 6.06974 12.9422C5.61898 13.1496 5.2155 13.4463 4.88399 13.8143C1.77015 16.8953 0.0133822 21.0811 7.61375e-05 25.4511C-0.01323 29.8212 1.71802 34.0175 4.81303 37.1172C5.14346 37.4847 5.54562 37.7813 5.995 37.9891C6.44438 38.1968 6.93155 38.3113 7.42683 38.3255C7.92211 38.3398 8.41511 38.2535 8.87578 38.0719C9.33646 37.8903 9.75515 37.6172 10.1063 37.2693C10.4575 36.9214 10.7338 36.506 10.9185 36.0484C11.1031 35.5907 11.1921 35.1004 11.1801 34.6074C11.1682 34.1144 11.0555 33.629 10.8489 33.1807C10.6423 32.7325 10.3461 32.3308 9.97846 32.0002Z" fill="#ffffff"/>
<path d="M10.0253 18.9532C11.7715 17.2326 14.1319 16.2713 16.589 16.28C19.0461 16.2887 21.3996 17.2667 23.1334 18.9996C23.4627 19.3709 23.8648 19.6714 24.315 19.8823C24.7652 20.0933 25.2541 20.2104 25.7514 20.2264C26.2488 20.2425 26.7442 20.1571 27.2072 19.9755C27.6701 19.7939 28.0909 19.52 28.4436 19.1706C28.7963 18.8212 29.0735 18.4037 29.2581 17.9438C29.4427 17.4838 29.5308 16.9912 29.5171 16.4961C29.5034 16.001 29.388 15.5139 29.1782 15.0648C28.9683 14.6157 28.6684 14.2141 28.2968 13.8846C26.77 12.3453 24.9527 11.1214 22.9492 10.2832C20.9458 9.44499 18.7957 9.00895 16.6225 9.00014C14.4492 8.99132 12.2957 9.40991 10.2854 10.2319C8.27518 11.0538 6.44789 12.2629 4.9085 13.7898C4.53599 14.1165 4.23438 14.5154 4.02212 14.9621C3.80987 15.4088 3.69142 15.8939 3.67405 16.3877C3.65667 16.8816 3.74073 17.3737 3.92107 17.8341C4.10142 18.2945 4.37426 18.7134 4.72289 19.0653C5.07152 19.4171 5.48862 19.6944 5.94865 19.8802C6.40868 20.066 6.90197 20.1564 7.39833 20.1459C7.89469 20.1355 8.38368 20.0243 8.83537 19.8192C9.28706 19.6141 9.69195 19.3194 10.0253 18.9532Z" fill="#ffffff"/>
<path d="M23.1106 32.0462C22.2465 32.9005 21.2215 33.5768 20.0945 34.0362C18.9674 34.4957 17.7603 34.7293 16.5423 34.7238C15.3247 34.7256 14.1189 34.4856 12.9956 34.0178C11.8723 33.5501 10.8541 32.8641 10.0004 31.9998C9.67052 31.6304 9.26832 31.3319 8.81847 31.1226C8.36862 30.9132 7.88057 30.7975 7.38421 30.7824C6.88785 30.7674 6.39363 30.8533 5.9318 31.035C5.46998 31.2167 5.05026 31.4902 4.69836 31.839C4.34646 32.1877 4.06978 32.6043 3.88526 33.0631C3.70074 33.522 3.61226 34.0135 3.62524 34.5076C3.63822 35.0017 3.75239 35.488 3.96075 35.9366C4.16912 36.3853 4.46729 36.7869 4.83702 37.1168C6.3665 38.656 8.18612 39.8796 10.1916 40.7175C12.1971 41.5554 14.349 41.9912 16.524 41.9998C18.699 42.0084 20.8543 41.5898 22.8665 40.7678C24.8786 39.9458 26.708 38.7366 28.2497 37.2096C28.5903 36.8738 28.8612 36.4744 29.0467 36.0344C29.2323 35.5944 29.329 35.1223 29.3312 34.6451C29.3335 34.1678 29.2413 33.6948 29.0599 33.2531C28.8785 32.8113 28.6115 32.4095 28.274 32.0705C27.9366 31.7314 27.5354 31.4619 27.0933 31.2772C26.6512 31.0925 26.1768 30.9962 25.6974 30.994C25.2179 30.9917 24.7427 31.0835 24.2989 31.2641C23.855 31.4446 23.4513 31.7104 23.1106 32.0462Z" fill="#ffffff"/>
<path d="M10.0252 18.9531C9.5137 19.4615 8.86204 19.8073 8.15284 19.9466C7.44364 20.0859 6.70885 20.0124 6.04168 19.7354C5.37451 19.4585 4.80503 18.9905 4.40546 18.3909C4.0059 17.7913 3.79426 17.0871 3.7974 16.3676C3.80053 15.6482 4.0183 14.9458 4.42307 14.3497C4.82785 13.7536 5.40139 13.2906 6.07095 13.0194C6.74051 12.7482 7.47591 12.681 8.18387 12.8264C8.89183 12.9718 9.54045 13.3232 10.0475 13.8361C10.7229 14.5193 11.0996 15.4406 11.0954 16.3991C11.0912 17.3577 10.7065 18.2757 10.0252 18.9531Z" fill="#ffffff"/>
<path d="M9.9543 37.1169C9.44265 37.6252 8.79085 37.9707 8.0816 38.1097C7.37234 38.2487 6.63758 38.1749 5.97052 37.8977C5.30347 37.6205 4.73417 37.1523 4.33484 36.5525C3.93552 35.9528 3.72416 35.2485 3.72758 34.529C3.731 33.8096 3.94904 33.1073 4.35405 32.5114C4.75906 31.9154 5.33279 31.4526 6.00245 31.1817C6.67212 30.9107 7.40754 30.8439 8.11545 30.9895C8.82335 31.1352 9.47183 31.4869 9.97863 31.9999C10.6538 32.6834 11.0301 33.6049 11.0256 34.5634C11.021 35.5219 10.636 36.4398 9.9543 37.1169Z" fill="#ffffff"/>
<path d="M44.5343 29.0239C45.5865 28.233 45.7264 28.6748 46.6143 29.5586C47.0583 30.0005 48.2726 30.7693 47.4779 31.419C45.8196 32.7668 44.3235 33.3721 42.2071 33.3721C37.4167 33.3499 34.0291 29.7907 34.3008 25.0692C34.4163 22.9546 35.2577 20.953 36.918 19.5809C38.4364 18.3017 40.3278 17.7448 42.3145 17.7912C43.2882 17.7883 44.2529 17.9776 45.1526 18.3481C45.7621 18.5671 46.3364 18.8729 46.8576 19.256C47.9097 20.0631 47.4191 20.5353 46.6001 21.3484C46.4136 21.5341 46.2271 21.7217 46.0629 21.9074C45.6432 22.325 45.3615 22.6277 44.8019 22.2322C43.7275 21.4877 42.3692 21.0922 41.086 21.4251C36.9504 22.4703 37.1369 29.7967 42.2091 29.8209C43.0499 29.8099 43.865 29.5305 44.5343 29.0239ZM159.493 33.4629C159.328 33.4637 159.163 33.4318 159.01 33.3691C158.856 33.3063 158.717 33.2139 158.599 33.0973C158.482 32.9806 158.389 32.8419 158.326 32.6893C158.262 32.5366 158.23 32.373 158.23 32.2079L158.301 15.9752C158.301 15.8101 158.333 15.6464 158.396 15.4937C158.459 15.3409 158.552 15.2021 158.669 15.0853C158.786 14.9684 158.925 14.8758 159.079 14.8128C159.232 14.7498 159.396 14.7176 159.562 14.7182H160.919C161.085 14.7176 161.249 14.7499 161.403 14.813C161.556 14.8761 161.696 14.9689 161.813 15.086C161.93 15.2031 162.023 15.3421 162.086 15.4951C162.149 15.6481 162.181 15.8119 162.18 15.9772L162.109 32.2099C162.109 32.375 162.077 32.5385 162.014 32.6912C161.951 32.8438 161.858 32.9825 161.741 33.0992C161.624 33.2159 161.484 33.3083 161.331 33.3711C161.178 33.4338 161.013 33.4658 160.848 33.465L159.493 33.4629ZM152.398 31.5804C150.926 32.9525 149.523 33.6728 147.443 33.6728C143.239 33.6486 141.228 30.1841 141.228 26.3L141.252 19.6959C141.252 19.5309 141.284 19.3674 141.347 19.2148C141.411 19.0623 141.504 18.9238 141.621 18.8073C141.739 18.6908 141.878 18.5986 142.032 18.536C142.185 18.4735 142.349 18.4418 142.515 18.4429H143.871C144.037 18.4421 144.202 18.474 144.355 18.5368C144.508 18.5996 144.648 18.692 144.765 18.8087C144.882 18.9254 144.975 19.0641 145.038 19.2167C145.101 19.3693 145.133 19.5329 145.132 19.6979L145.11 26.302C145.11 28.465 146.278 30.1619 148.569 30.1619C150.859 30.1619 152.26 28.2552 152.283 26.1264V23.7677C152.264 23.6761 152.257 23.5826 152.26 23.4893L152.283 19.7443C152.282 19.5793 152.314 19.4157 152.377 19.2631C152.44 19.1105 152.533 18.9718 152.65 18.8551C152.767 18.7384 152.907 18.646 153.06 18.5832C153.213 18.5204 153.378 18.4885 153.543 18.4893H154.881C155.047 18.4885 155.212 18.5204 155.365 18.5832C155.518 18.646 155.658 18.7384 155.775 18.8551C155.892 18.9718 155.985 19.1105 156.048 19.2631C156.111 19.4157 156.143 19.5793 156.142 19.7443L156.098 32.2099C156.095 32.5398 155.96 32.8548 155.724 33.086C155.487 33.3171 155.168 33.4455 154.837 33.4428H153.691C153.366 33.4327 153.057 33.2995 152.827 33.0705C152.597 32.8414 152.463 32.5337 152.453 32.2099L152.398 31.5804ZM136.267 18.4893H138.884C139.05 18.4917 139.214 18.5267 139.366 18.5924C139.519 18.6581 139.656 18.7531 139.772 18.8721C139.887 18.991 139.977 19.1315 140.037 19.2853C140.098 19.4392 140.127 19.6034 140.123 19.7686V20.6281C140.12 20.9595 139.987 21.2766 139.752 21.5112C139.517 21.7459 139.199 21.8795 138.866 21.8831H136.243L136.196 32.1393C136.197 32.3044 136.165 32.4681 136.102 32.6208C136.039 32.7736 135.946 32.9124 135.829 33.0292C135.712 33.1461 135.572 33.2387 135.419 33.3017C135.266 33.3647 135.101 33.3969 134.935 33.3964H133.581C133.415 33.3969 133.251 33.3647 133.097 33.3018C132.944 33.2388 132.804 33.1462 132.687 33.0294C132.57 32.9125 132.477 32.7737 132.413 32.621C132.35 32.4682 132.318 32.3045 132.318 32.1393L132.365 17.9546C132.365 14.8614 134.141 12.4179 137.319 12.1395C137.413 12.1395 137.482 12.1173 137.575 12.1173C137.762 12.1052 137.949 12.1052 138.136 12.1173H139.353C139.518 12.1197 139.682 12.1546 139.834 12.2202C139.986 12.2858 140.124 12.3806 140.239 12.4994C140.354 12.6181 140.445 12.7583 140.505 12.9119C140.566 13.0655 140.595 13.2296 140.591 13.3945V14.1855C140.589 14.5179 140.456 14.8361 140.22 15.0713C139.984 15.3065 139.664 15.4399 139.33 15.4425H138.349C136.853 15.4425 136.223 16.5805 136.198 17.9768L136.267 18.4893ZM126.875 18.4429H129.744C130.075 18.4461 130.392 18.5801 130.624 18.8154C130.856 19.0507 130.985 19.3681 130.982 19.6979V20.5575C130.979 20.8873 130.844 21.2024 130.608 21.4336C130.372 21.6647 130.053 21.793 129.721 21.7903H126.851L126.828 28.0655C126.828 29.2761 127.412 29.9723 128.627 29.9723H129.21C129.542 29.976 129.859 30.1104 130.091 30.346C130.323 30.5816 130.452 30.8993 130.449 31.2293V32.101C130.445 32.4306 130.311 32.7454 130.074 32.9764C129.838 33.2075 129.519 33.336 129.188 33.3338H128.089C127.886 33.3378 127.683 33.3297 127.481 33.3096C124.373 33.1078 122.995 31.1022 122.995 28.0776C123.019 24.0078 123.019 19.9623 123.041 15.8925C123.043 15.729 123.077 15.5674 123.141 15.417C123.206 15.2665 123.299 15.1302 123.416 15.0157C123.534 14.9012 123.673 14.8109 123.825 14.7498C123.977 14.6887 124.14 14.658 124.304 14.6596H125.636C125.968 14.6628 126.284 14.7968 126.517 15.0321C126.749 15.2674 126.878 15.5848 126.875 15.9147V18.4429ZM85.3165 18.2795H88.185C88.5164 18.2827 88.833 18.4166 89.0652 18.6519C89.2974 18.8872 89.4264 19.2047 89.4237 19.5345V20.3981C89.4199 20.7278 89.2852 21.0425 89.0489 21.2736C88.8126 21.5046 88.4939 21.6331 88.1627 21.6309H85.284V27.9081C85.284 29.1188 85.8679 29.8149 87.0822 29.8149H87.6681C87.8321 29.8165 87.9941 29.8502 88.145 29.9141C88.2959 29.978 88.4327 30.0709 88.5475 30.1875C88.6624 30.304 88.753 30.4419 88.8143 30.5933C88.8756 30.7447 88.9063 30.9067 88.9047 31.0699V31.9295C88.9015 32.2593 88.7669 32.5744 88.5305 32.8055C88.294 33.0367 87.9751 33.165 87.6437 33.1623H86.7801C83.3906 33.1401 81.4282 31.6974 81.4282 27.9162C81.4525 23.8464 81.4525 19.7988 81.4748 15.729C81.4786 15.399 81.6136 15.0839 81.8504 14.8529C82.0871 14.6218 82.4062 14.4935 82.7378 14.4962H84.0697C84.4011 14.4999 84.7175 14.6344 84.9493 14.8701C85.1812 15.1058 85.3096 15.4234 85.3063 15.7533L85.3165 18.2795ZM68.4477 20.047C69.8263 18.7678 71.3224 17.9546 73.2604 17.9546C77.467 17.9768 79.6402 21.3848 79.6158 25.3254L79.5935 31.9295C79.5941 32.0947 79.5618 32.2584 79.4985 32.4111C79.4352 32.5639 79.3422 32.7027 79.2248 32.8195C79.1074 32.9363 78.968 33.0289 78.8145 33.0919C78.6611 33.1549 78.4966 33.187 78.3306 33.1865H76.9764C76.8104 33.187 76.6459 33.1549 76.4924 33.0919C76.3389 33.0289 76.1995 32.9363 76.0821 32.8195C75.9647 32.7027 75.8717 32.5639 75.8084 32.4111C75.7452 32.2584 75.7129 32.0947 75.7134 31.9295L75.7377 25.3718C75.7377 23.2088 74.57 21.5119 72.2792 21.5119C69.9885 21.5119 68.5876 23.3964 68.5653 25.5352L68.541 31.9295C68.5378 32.2593 68.4032 32.5744 68.1668 32.8055C67.9304 33.0367 67.6114 33.165 67.28 33.1623H65.9481C65.6168 33.1591 65.3002 33.0251 65.068 32.7898C64.8357 32.5545 64.7068 32.2371 64.7095 31.9073C64.7318 27.9303 64.7318 23.9311 64.7561 19.9542V19.4195C64.7572 19.09 64.8895 18.7744 65.1239 18.5418C65.3584 18.3092 65.6759 18.1786 66.0069 18.1786H67.1523C67.4778 18.1882 67.7872 18.3212 68.0175 18.5503C68.2477 18.7795 68.3813 19.0875 68.391 19.4114L68.4477 20.047ZM110.085 20.2084C111.464 18.9312 112.958 18.116 114.898 18.116C119.105 18.1402 121.276 21.5583 121.253 25.4888L121.229 32.101C121.23 32.2661 121.198 32.4298 121.135 32.5825C121.072 32.7352 120.979 32.874 120.862 32.9909C120.745 33.1078 120.605 33.2004 120.452 33.2634C120.298 33.3264 120.134 33.3586 119.968 33.358H118.614C118.448 33.3586 118.284 33.3264 118.13 33.2634C117.977 33.2004 117.837 33.1079 117.72 32.991C117.602 32.8742 117.509 32.7354 117.446 32.5826C117.383 32.4299 117.35 32.2662 117.351 32.101L117.375 25.5433C117.375 23.3803 116.206 21.6834 113.917 21.6834C111.628 21.6834 110.225 23.5659 110.201 25.7068L110.168 32.101C110.165 32.431 110.03 32.7461 109.793 32.9772C109.556 33.2082 109.237 33.3365 108.906 33.3338H107.574C107.243 33.3301 106.927 33.1959 106.695 32.9606C106.463 32.7254 106.334 32.4083 106.337 32.0788L106.384 19.589C106.384 19.4248 106.417 19.2624 106.481 19.111C106.545 18.9596 106.638 18.8223 106.756 18.707C106.873 18.5916 107.012 18.5006 107.165 18.439C107.318 18.3774 107.482 18.3465 107.647 18.3481H108.792C109.119 18.3588 109.429 18.4936 109.659 18.7247C109.889 18.9558 110.021 19.2658 110.029 19.591L110.085 20.2084ZM55.7268 17.8376C51.1695 17.8134 47.9462 21.0922 47.9219 25.6039C47.8996 30.1619 51.0763 33.3964 55.6801 33.4185C60.284 33.4407 63.5073 30.2325 63.5296 25.6442C63.554 21.1628 60.2597 17.8598 55.7268 17.8376ZM93.5552 27.1636C93.8816 29.256 95.8926 30.1155 97.855 30.1397C98.8387 30.1312 99.8097 29.9174 100.705 29.5122C100.849 29.4538 100.989 29.3864 101.125 29.3104C101.593 29.0542 102.013 28.8928 102.435 29.3104C102.668 29.5425 102.879 29.7765 103.112 29.9844C103.332 30.1935 103.535 30.4195 103.72 30.6603C104.35 31.4492 103.906 31.6369 103.183 32.1252C101.64 33.1482 99.6309 33.6587 97.784 33.6587C92.8315 33.6365 89.5595 30.6321 89.5595 25.6603C89.5838 20.961 92.8538 17.8457 97.5732 17.8678C102.388 17.8921 105.121 20.7068 105.192 25.4969C105.214 26.7984 105.261 27.218 103.906 27.218L93.5552 27.1636ZM55.7268 21.3484C58.0865 21.3484 59.6515 23.3964 59.6515 25.6523C59.6515 28.0009 58.1797 29.8895 55.7024 29.8895C53.2251 29.8895 51.7777 27.9828 51.7777 25.6341C51.7777 23.2855 53.2738 21.3484 55.7268 21.3484ZM93.6586 23.9311L101.417 23.9533C101.135 22.0224 99.5234 21.2556 97.6786 21.2556C95.8338 21.2556 94.2323 22.1172 93.6586 23.9311Z" fill="#ffffff"/>
</svg>
