<svg width="211" height="48" viewBox="0 0 211 48" fill="none" xmlns="http://www.w3.org/2000/svg">
<g clip-path="url(#clip0_106_352)">
<path d="M49.363 17.599H31.5634L30.9276 18.1076V33.9365H35.8225V27.9608L36.2674 27.5159H49.3628C52.6683 27.5159 54.1941 26.6261 54.1941 24.3376V20.7141C54.1943 18.489 52.6685 17.599 49.363 17.599ZM49.363 23.4474C49.363 24.528 48.6636 24.7187 47.0744 24.7187H36.3311L35.8225 24.2738V20.9046L36.2674 20.4596H47.0742C48.6 20.4596 49.3627 20.6504 49.3627 21.731L49.363 23.4474ZM63.2211 20.5867L67.4803 26.8165L67.226 27.3887H57.8177L55.402 30.3765H69.3873L70.4044 30.9486L72.5658 33.9364H78.2235L65.8275 17.4083L63.2211 20.5867ZM119.353 30.7578V26.3081L119.862 25.863H129.334V23.0659H114.331V33.9364H136.453V31.1393H119.925L119.353 30.7578ZM114.331 17.599H136.644V20.6504H114.331V17.599ZM89.4754 20.5232H107.466C107.211 18.2347 105.749 17.599 102.189 17.599H89.2847C85.2163 17.599 83.9449 18.3619 83.9449 21.4767V30.1221C83.9449 33.1736 85.2163 34 89.2847 34H102.189C105.813 34 107.211 33.3007 107.338 30.9486H89.4754L88.9668 30.44V20.9046L89.4754 20.5232ZM18.8495 23.956H5.81772L5.43628 23.5111V20.714L5.81772 20.3962H23.4265L23.6808 19.824C23.1086 18.2983 21.5194 17.5356 18.6587 17.5356H6.3898C2.32139 17.5356 1.04997 18.2983 1.04997 21.4132V23.2567C1.04997 26.3082 2.32139 27.1346 6.3898 27.1346H19.4216L19.803 27.5159V30.44L19.4852 30.8851H0.668534C0.668534 30.8851 0.223633 31.1393 0.223633 31.2029C0.541443 33.3643 2.00357 33.9364 5.49983 33.9364H18.8496C22.918 33.9364 24.253 33.1736 24.253 30.0587V27.8337C24.2529 24.7824 22.918 23.956 18.8495 23.956ZM150.693 17.5355H143.319L142.937 18.2983L151.074 24.2739C152.6 23.3838 154.316 22.4939 156.096 21.6039L150.693 17.5355ZM157.304 28.7237L164.488 33.9364H171.862L172.179 33.237L161.5 25.418C160.101 26.4986 158.639 27.5794 157.304 28.7237Z" fill="#ffffff"/>
<path d="M149.613 33.9364H142.938L142.366 33.0463C146.879 28.6601 167.094 9.97066 211.021 8C211.021 8 174.214 9.27132 149.613 33.9364Z" fill="#ffffff"/>
</g>
<defs>
<clipPath id="clip0_106_352">
<rect width="211" height="48" fill="#ffffff"/>
</clipPath>
</defs>
</svg>
