<?xml version="1.0" standalone="no"?>
<!DOCTYPE svg PUBLIC "-//W3C//DTD SVG 20010904//EN"
 "http://www.w3.org/TR/2001/REC-SVG-20010904/DTD/svg10.dtd">
<svg version="1.0" xmlns="http://www.w3.org/2000/svg"
 width="400.000000pt" height="400.000000pt" viewBox="0 0 400.000000 400.000000"
 preserveAspectRatio="xMidYMid meet">

<g transform="translate(0.000000,400.000000) scale(0.100000,-0.100000)"
fill="#000000" stroke="none">
<path d="M0 2000 l0 -2000 2000 0 2000 0 0 2000 0 2000 -2000 0 -2000 0 0
-2000z m1616 1184 c351 -206 473 -268 611 -313 154 -50 251 -65 418 -65 167 1
275 19 565 95 85 23 165 43 178 44 l22 3 0 -407 0 -408 -335 -189 c-361 -204
-465 -272 -592 -389 -210 -193 -327 -421 -439 -850 l-34 -130 4 490 c3 542 4
553 75 765 84 250 266 500 459 628 28 19 52 36 52 37 0 1 -37 -13 -82 -31
-362 -145 -724 -151 -1042 -18 -73 31 -886 493 -886 504 0 4 697 418 706 420
1 0 145 -84 320 -186z"/>
</g>
</svg>
