<svg width="196" height="46" viewBox="0 0 196 46" fill="none" xmlns="http://www.w3.org/2000/svg">
<path d="M5.02331 36L0.481143 1.44H6.9488L10.3061 31.4578H11.1947L15.5394 1.44H26.7961L31.1408 31.4578H32.0295L35.3867 1.44H41.8544L37.3122 36H26.0555L21.6121 5.29097H20.7234L16.28 36H5.02331ZM54.2258 36.6912C51.7901 36.6912 49.6343 36.181 47.7581 35.1607C45.9149 34.1074 44.4667 32.6427 43.4135 30.7666C42.3931 28.8576 41.8829 26.6194 41.8829 24.0521V23.4597C41.8829 20.8923 42.3931 18.6706 43.4135 16.7945C44.4338 14.8855 45.8656 13.4208 47.7088 12.4005C49.552 11.3472 51.6914 10.8206 54.1271 10.8206C56.5298 10.8206 58.6199 11.3637 60.3972 12.4498C62.1746 13.5031 63.557 14.9842 64.5444 16.8933C65.5319 18.7694 66.0256 20.9582 66.0256 23.4597V25.5826H48.2025C48.2683 27.2613 48.8937 28.6272 50.0786 29.6805C51.2635 30.7337 52.7117 31.2603 54.4233 31.2603C56.1677 31.2603 57.4514 30.8818 58.2743 30.1248C59.0971 29.3678 59.7225 28.5285 60.1504 27.6069L65.2356 30.2729C64.7748 31.1287 64.1001 32.0667 63.2114 33.0871C62.3556 34.0745 61.2036 34.9303 59.7554 35.6544C58.3072 36.3456 56.464 36.6912 54.2258 36.6912ZM48.2519 20.9417H59.706C59.5744 19.5264 58.9984 18.3909 57.978 17.5351C56.9906 16.6793 55.6905 16.2514 54.0777 16.2514C52.3991 16.2514 51.066 16.6793 50.0786 17.5351C49.0912 18.3909 48.4823 19.5264 48.2519 20.9417ZM82.8192 36.6912C80.6139 36.6912 78.9188 36.3127 77.7339 35.5557C76.549 34.7986 75.6768 33.9593 75.1172 33.0377H74.2286V36H68.1065V1.44H74.3273V14.3259H75.216C75.578 13.7335 76.0553 13.1739 76.6478 12.6473C77.2731 12.1207 78.0795 11.6928 79.067 11.3637C80.0873 11.0016 81.338 10.8206 82.8192 10.8206C84.794 10.8206 86.6208 11.3143 88.2994 12.3017C89.978 13.2562 91.3275 14.6715 92.3479 16.5477C93.3682 18.4238 93.8784 20.6949 93.8784 23.3609V24.1509C93.8784 26.8169 93.3682 29.088 92.3479 30.9641C91.3275 32.8402 89.978 34.272 88.2994 35.2594C86.6208 36.2139 84.794 36.6912 82.8192 36.6912ZM80.9431 31.2603C82.8521 31.2603 84.4484 30.6514 85.7321 29.4336C87.0158 28.1829 87.6576 26.3726 87.6576 24.0027V23.509C87.6576 21.1392 87.0158 19.3454 85.7321 18.1275C84.4814 16.8768 82.885 16.2514 80.9431 16.2514C79.034 16.2514 77.4377 16.8768 76.154 18.1275C74.8704 19.3454 74.2286 21.1392 74.2286 23.509V24.0027C74.2286 26.3726 74.8704 28.1829 76.154 29.4336C77.4377 30.6514 79.034 31.2603 80.9431 31.2603ZM94.9495 23.8546V23.0647C94.9495 20.4974 95.4597 18.3086 96.48 16.4983C97.5004 14.6551 98.8499 13.2562 100.528 12.3017C102.24 11.3143 104.1 10.8206 106.107 10.8206C108.346 10.8206 110.041 11.2155 111.193 12.0055C112.345 12.7954 113.184 13.6183 113.711 14.4741H114.599V11.5118H120.721V40.3447C120.721 42.0233 120.228 43.3563 119.24 44.3438C118.253 45.3641 116.936 45.8743 115.291 45.8743H98.8992V40.4434H113.118C114.04 40.4434 114.501 39.9497 114.501 38.9623V32.5934H113.612C113.283 33.12 112.822 33.6631 112.23 34.2226C111.637 34.7493 110.847 35.1936 109.86 35.5557C108.872 35.9177 107.622 36.0987 106.107 36.0987C104.1 36.0987 102.24 35.6215 100.528 34.667C98.8499 33.6795 97.5004 32.2807 96.48 30.4704C95.4597 28.6272 94.9495 26.4219 94.9495 23.8546ZM107.885 30.6679C109.794 30.6679 111.39 30.059 112.674 28.8411C113.958 27.6233 114.599 25.9118 114.599 23.7065V23.2128C114.599 20.9746 113.958 19.2631 112.674 18.0782C111.423 16.8603 109.827 16.2514 107.885 16.2514C105.976 16.2514 104.379 16.8603 103.096 18.0782C101.812 19.2631 101.17 20.9746 101.17 23.2128V23.7065C101.17 25.9118 101.812 27.6233 103.096 28.8411C104.379 30.059 105.976 30.6679 107.885 30.6679ZM133.494 36.395C131.585 36.395 129.906 35.9671 128.458 35.1113C127.042 34.2226 125.94 33.0048 125.15 31.4578C124.36 29.9109 123.965 28.1335 123.965 26.1257V11.5118H130.186V25.632C130.186 27.4752 130.63 28.8576 131.519 29.7792C132.44 30.7008 133.74 31.1616 135.419 31.1616C137.328 31.1616 138.809 30.5362 139.862 29.2855C140.916 28.0018 141.442 26.2245 141.442 23.9534V11.5118H147.663V36H141.541V32.7909H140.652C140.257 33.6137 139.517 34.4201 138.431 35.2101C137.345 36 135.699 36.395 133.494 36.395ZM151.13 36V11.5118H157.35V36H151.13ZM154.24 8.64823C153.121 8.64823 152.166 8.28617 151.376 7.56205C150.619 6.83794 150.241 5.88343 150.241 4.69851C150.241 3.5136 150.619 2.55908 151.376 1.83497C152.166 1.11085 153.121 0.748797 154.24 0.748797C155.392 0.748797 156.346 1.11085 157.104 1.83497C157.861 2.55908 158.239 3.5136 158.239 4.69851C158.239 5.88343 157.861 6.83794 157.104 7.56205C156.346 8.28617 155.392 8.64823 154.24 8.64823ZM160.788 36V1.44H167.009V36H160.788ZM180.32 36.6912C178.378 36.6912 176.552 36.2139 174.84 35.2594C173.162 34.272 171.812 32.8402 170.792 30.9641C169.771 29.088 169.261 26.8169 169.261 24.1509V23.3609C169.261 20.6949 169.771 18.4238 170.792 16.5477C171.812 14.6715 173.162 13.2562 174.84 12.3017C176.519 11.3143 178.346 10.8206 180.32 10.8206C181.802 10.8206 183.036 11.0016 184.023 11.3637C185.044 11.6928 185.866 12.1207 186.492 12.6473C187.117 13.1739 187.594 13.7335 187.924 14.3259H188.812V1.44H195.033V36H188.911V33.0377H188.022C187.463 33.9593 186.591 34.7986 185.406 35.5557C184.254 36.3127 182.559 36.6912 180.32 36.6912ZM182.197 31.2603C184.106 31.2603 185.702 30.6514 186.986 29.4336C188.269 28.1829 188.911 26.3726 188.911 24.0027V23.509C188.911 21.1392 188.269 19.3454 186.986 18.1275C185.735 16.8768 184.138 16.2514 182.197 16.2514C180.288 16.2514 178.691 16.8768 177.408 18.1275C176.124 19.3454 175.482 21.1392 175.482 23.509V24.0027C175.482 26.3726 176.124 28.1829 177.408 29.4336C178.691 30.6514 180.288 31.2603 182.197 31.2603Z" fill="white"/>
</svg>
