<svg width="111" height="18" viewBox="0 0 111 18" fill="none" xmlns="http://www.w3.org/2000/svg">
<g clip-path="url(#clip0_601_33)">
<path d="M1.483 9.17708V1.45508H0V9.17708C0 12.0491 1.483 13.8231 4.72 13.8231C7.871 13.8231 9.439 12.0491 9.439 9.17708V1.45508H7.955V9.17708C7.955 11.5421 6.86 12.5051 4.719 12.5051C2.579 12.5051 1.483 11.5421 1.483 9.17708Z" fill="white"/>
<path fill-rule="evenodd" clip-rule="evenodd" d="M13.3668 6.35524V5.17224H12.0508V17.0002H13.4008V12.5222H13.5708C14.0758 13.2492 14.9688 13.8232 16.3508 13.8232C18.3738 13.8232 20.2778 12.2352 20.2778 9.39624C20.2778 6.55824 18.3738 4.96924 16.3508 4.96924C14.9178 4.96924 14.0248 5.59424 13.5358 6.35524H13.3668ZM18.8948 9.39624C18.8948 11.4242 17.7648 12.6062 16.1148 12.6062C14.4618 12.6062 13.3328 11.4242 13.3328 9.39624C13.3328 7.36924 14.4628 6.18624 16.1138 6.18624C17.7658 6.18624 18.8948 7.36924 18.8948 9.39624Z" fill="white"/>
<path d="M23.5628 1.45508V13.6201H22.2148V1.45508H23.5628Z" fill="white"/>
<path fill-rule="evenodd" clip-rule="evenodd" d="M33.827 9.39608C33.827 6.77708 32.192 4.96908 29.663 4.96908C27.135 4.96908 25.5 6.77708 25.5 9.39608C25.5 12.0161 27.135 13.8231 29.663 13.8231C32.192 13.8231 33.827 12.0151 33.827 9.39608ZM32.444 9.39608C32.444 11.4241 31.349 12.6061 29.664 12.6061C27.978 12.6061 26.882 11.4241 26.882 9.39608C26.882 7.36908 27.978 6.18608 29.663 6.18608C31.349 6.18608 32.444 7.36908 32.444 9.39608ZM39.102 4.97008C40.484 4.97008 41.377 5.54408 41.883 6.27008H42.052L42.389 5.17208H43.399V13.6211H42.084V12.4381H41.916C41.427 13.1981 40.534 13.8231 39.101 13.8231C37.078 13.8231 35.174 12.2351 35.174 9.39608C35.174 6.55808 37.078 4.96908 39.101 4.96908L39.102 4.97008ZM39.338 12.6071C40.99 12.6071 42.119 11.4241 42.119 9.39708C42.119 7.36908 40.989 6.18608 39.338 6.18608C37.686 6.18608 36.557 7.36908 36.557 9.39608C36.557 11.4241 37.687 12.6061 39.338 12.6061V12.6071ZM52.046 6.27008C51.541 5.54408 50.648 4.97008 49.266 4.97008C47.243 4.97008 45.338 6.55808 45.338 9.39608C45.338 12.2351 47.243 13.8231 49.266 13.8231C50.698 13.8231 51.591 13.1981 52.08 12.4381H52.249V13.6211H53.563V1.45508H52.215V6.27008H52.046ZM52.282 9.39608C52.282 11.4241 51.153 12.6061 49.502 12.6061C47.85 12.6061 46.72 11.4241 46.72 9.39608C46.72 7.36908 47.85 6.18608 49.501 6.18608C51.153 6.18608 52.282 7.36908 52.282 9.39608Z" fill="white"/>
<path d="M59.7679 4.97024C62.1609 4.97024 63.2059 6.33824 63.4929 7.70724V7.96024H62.1109C61.9249 7.08124 61.4369 6.22024 59.7509 6.22024C57.9809 6.22024 56.8859 7.36924 56.8859 9.39624C56.8859 11.4242 57.9809 12.5732 59.7509 12.5732C61.4369 12.5732 62.0099 11.6942 62.2109 10.7482H63.5939V11.0022C63.2909 12.3872 62.2789 13.8232 59.7509 13.8232C57.1389 13.8232 55.5039 12.0152 55.5039 9.39624C55.5039 6.77724 57.1389 4.97024 59.7679 4.97024Z" fill="white"/>
<path fill-rule="evenodd" clip-rule="evenodd" d="M71.3955 6.27021C70.8895 5.54421 69.9955 4.97021 68.6145 4.97021C66.5915 4.97021 64.6875 6.55821 64.6875 9.39621C64.6875 12.2352 66.5915 13.8232 68.6145 13.8232C70.0465 13.8232 70.9405 13.1982 71.4285 12.4382H71.5975V13.6212H72.9125V5.17021H71.9005L71.5635 6.27021H71.3955ZM71.6315 9.39621C71.6315 11.4242 70.5015 12.6062 68.8505 12.6062C67.1985 12.6062 66.0695 11.4242 66.0695 9.39621C66.0695 7.36921 67.1985 6.18621 68.8495 6.18621C70.5015 6.18621 71.6315 7.36921 71.6315 9.39621Z" fill="white"/>
<path d="M76.7564 5.17216V6.43916H76.9244C77.1944 5.67916 77.8514 5.13916 79.1494 5.13916H79.9074V6.38916H79.1664C77.1434 6.38916 76.7894 7.55416 76.7894 9.07516V13.6212H75.4414V5.17216H76.7564Z" fill="white"/>
<path fill-rule="evenodd" clip-rule="evenodd" d="M88.758 9.05824C88.758 6.77824 87.41 4.96924 84.798 4.96924C82.235 4.96924 80.668 6.77724 80.668 9.39624C80.668 11.9982 82.235 13.8232 84.865 13.8232C87.039 13.8232 88.32 12.5732 88.674 11.0862V10.8332H87.325C87.089 11.7962 86.348 12.6072 84.831 12.6072C83.145 12.6072 82.151 11.4072 82.117 9.76824H88.758V9.05824ZM84.798 6.15224C86.449 6.15224 87.308 7.25024 87.342 8.61924H82.117C82.185 7.19924 83.113 6.15224 84.798 6.15224Z" fill="white"/>
</g>
<g clip-path="url(#clip1_601_33)">
<path d="M102 18C106.971 18 111 13.9706 111 9C111 4.02944 106.971 0 102 0C97.0294 0 93 4.02944 93 9C93 13.9706 97.0294 18 102 18Z" fill="white"/>
</g>
<defs>
<clipPath id="clip0_601_33">
<rect width="89" height="16" fill="white" transform="translate(0 1)"/>
</clipPath>
<clipPath id="clip1_601_33">
<rect width="18" height="18" fill="white" transform="translate(93)"/>
</clipPath>
</defs>
</svg>
