<svg width="574" height="390" viewBox="0 0 574 390" fill="none" xmlns="http://www.w3.org/2000/svg">
<g clip-path="url(#clip0_545_2985)">
<rect width="574" height="390" rx="32" fill="#E4E4E4"/>
<path d="M450 1H541C558.673 1 573 15.3269 573 33V357C573 374.673 558.673 389 541 389H450V1Z" fill="#202130"/>
<path d="M53.4659 173H51.7045C51.6004 172.493 51.4181 172.048 51.1577 171.665C50.902 171.281 50.5895 170.959 50.2202 170.699C49.8556 170.434 49.4508 170.235 49.0057 170.102C48.5606 169.97 48.0966 169.903 47.6136 169.903C46.733 169.903 45.9351 170.126 45.2202 170.571C44.5099 171.016 43.9441 171.672 43.5227 172.538C43.1061 173.405 42.8977 174.468 42.8977 175.727C42.8977 176.987 43.1061 178.05 43.5227 178.916C43.9441 179.783 44.5099 180.438 45.2202 180.884C45.9351 181.329 46.733 181.551 47.6136 181.551C48.0966 181.551 48.5606 181.485 49.0057 181.352C49.4508 181.22 49.8556 181.023 50.2202 180.763C50.5895 180.498 50.902 180.173 51.1577 179.79C51.4181 179.402 51.6004 178.956 51.7045 178.455H53.4659C53.3333 179.198 53.0919 179.863 52.7415 180.45C52.3911 181.037 51.9555 181.537 51.4347 181.949C50.9138 182.356 50.3291 182.666 49.6804 182.879C49.0365 183.092 48.3475 183.199 47.6136 183.199C46.3731 183.199 45.2699 182.896 44.304 182.29C43.3381 181.684 42.5781 180.822 42.0241 179.705C41.4702 178.587 41.1932 177.261 41.1932 175.727C41.1932 174.193 41.4702 172.867 42.0241 171.75C42.5781 170.633 43.3381 169.771 44.304 169.165C45.2699 168.559 46.3731 168.256 47.6136 168.256C48.3475 168.256 49.0365 168.362 49.6804 168.575C50.3291 168.788 50.9138 169.101 51.4347 169.513C51.9555 169.92 52.3911 170.417 52.7415 171.004C53.0919 171.587 53.3333 172.252 53.4659 173ZM59.2951 183.256C58.6038 183.256 57.9764 183.125 57.413 182.865C56.8496 182.6 56.4021 182.219 56.0707 181.722C55.7392 181.22 55.5735 180.614 55.5735 179.903C55.5735 179.278 55.6966 178.772 55.9428 178.384C56.189 177.991 56.5181 177.683 56.93 177.46C57.342 177.238 57.7965 177.072 58.2937 176.963C58.7956 176.849 59.2998 176.759 59.8065 176.693C60.4693 176.608 61.0067 176.544 61.4187 176.501C61.8353 176.454 62.1384 176.376 62.3278 176.267C62.5219 176.158 62.619 175.969 62.619 175.699V175.642C62.619 174.941 62.4272 174.397 62.0437 174.009C61.6649 173.62 61.0896 173.426 60.3178 173.426C59.5176 173.426 58.8903 173.601 58.4357 173.952C57.9812 174.302 57.6616 174.676 57.4769 175.074L55.886 174.506C56.1701 173.843 56.5489 173.327 57.0224 172.957C57.5006 172.583 58.0214 172.323 58.5849 172.176C59.1531 172.025 59.7118 171.949 60.261 171.949C60.6114 171.949 61.0138 171.991 61.4684 172.077C61.9277 172.157 62.3704 172.325 62.7965 172.581C63.2274 172.837 63.5849 173.223 63.869 173.739C64.1531 174.255 64.2951 174.946 64.2951 175.812V183H62.619V181.523H62.5337C62.4201 181.759 62.2307 182.013 61.9656 182.283C61.7004 182.553 61.3477 182.782 60.9073 182.972C60.467 183.161 59.9296 183.256 59.2951 183.256ZM59.5508 181.75C60.2137 181.75 60.7724 181.62 61.2269 181.359C61.6862 181.099 62.0318 180.763 62.2638 180.351C62.5006 179.939 62.619 179.506 62.619 179.051V177.517C62.5479 177.602 62.3917 177.68 62.1502 177.751C61.9135 177.818 61.6388 177.877 61.3263 177.929C61.0186 177.976 60.7179 178.019 60.4244 178.057C60.1355 178.09 59.9012 178.118 59.7212 178.142C59.2856 178.199 58.8784 178.291 58.4996 178.419C58.1256 178.542 57.8226 178.729 57.5906 178.98C57.3633 179.226 57.2496 179.562 57.2496 179.989C57.2496 180.571 57.4651 181.011 57.896 181.31C58.3316 181.603 58.8832 181.75 59.5508 181.75ZM67.3544 183V172.091H68.9737V173.739H69.0874C69.2862 173.199 69.6461 172.761 70.1669 172.425C70.6877 172.089 71.2749 171.92 71.9283 171.92C72.0514 171.92 72.2053 171.923 72.3899 171.928C72.5746 171.932 72.7143 171.939 72.8089 171.949V173.653C72.7521 173.639 72.6219 173.618 72.4183 173.589C72.2195 173.556 72.0088 173.54 71.7862 173.54C71.2559 173.54 70.7824 173.651 70.3658 173.874C69.9538 174.091 69.6271 174.394 69.3857 174.783C69.1489 175.166 69.0305 175.604 69.0305 176.097V183H67.3544ZM78.5831 183.227C77.674 183.227 76.8714 182.998 76.1754 182.538C75.4794 182.074 74.9349 181.421 74.5419 180.578C74.1489 179.731 73.9524 178.729 73.9524 177.574C73.9524 176.428 74.1489 175.434 74.5419 174.591C74.9349 173.748 75.4818 173.097 76.1825 172.638C76.8833 172.179 77.6929 171.949 78.6115 171.949C79.3217 171.949 79.8828 172.067 80.2947 172.304C80.7114 172.536 81.0286 172.801 81.2464 173.099C81.469 173.393 81.6418 173.634 81.7649 173.824H81.907V168.455H83.5831V183H81.9638V181.324H81.7649C81.6418 181.523 81.4666 181.774 81.2393 182.077C81.0121 182.375 80.6877 182.643 80.2663 182.879C79.8449 183.111 79.2839 183.227 78.5831 183.227ZM78.8104 181.722C79.4827 181.722 80.0509 181.546 80.5149 181.196C80.9789 180.841 81.3317 180.351 81.5732 179.726C81.8146 179.096 81.9354 178.369 81.9354 177.545C81.9354 176.731 81.817 176.018 81.5803 175.408C81.3435 174.792 80.9931 174.314 80.5291 173.973C80.0651 173.627 79.4922 173.455 78.8104 173.455C78.1001 173.455 77.5083 173.637 77.0348 174.001C76.5661 174.361 76.2133 174.851 75.9766 175.472C75.7446 176.087 75.6286 176.778 75.6286 177.545C75.6286 178.322 75.7469 179.027 75.9837 179.662C76.2251 180.292 76.5803 180.794 77.049 181.168C77.5225 181.537 78.1096 181.722 78.8104 181.722ZM104.272 168.455V183H102.567L94.6413 171.58H94.4993V183H92.7379V168.455H94.4425L102.397 179.903H102.539V168.455H104.272ZM114.444 178.54V172.091H116.12V183H114.444V181.153H114.331C114.075 181.707 113.677 182.179 113.137 182.567C112.598 182.95 111.916 183.142 111.092 183.142C110.41 183.142 109.804 182.993 109.274 182.695C108.743 182.392 108.327 181.937 108.024 181.331C107.721 180.72 107.569 179.951 107.569 179.023V172.091H109.245V178.909C109.245 179.705 109.468 180.339 109.913 180.812C110.363 181.286 110.936 181.523 111.632 181.523C112.048 181.523 112.472 181.416 112.903 181.203C113.339 180.99 113.703 180.663 113.997 180.223C114.295 179.783 114.444 179.222 114.444 178.54ZM119.19 183V172.091H120.81V173.795H120.952C121.179 173.213 121.546 172.761 122.053 172.439C122.559 172.112 123.168 171.949 123.878 171.949C124.598 171.949 125.196 172.112 125.675 172.439C126.158 172.761 126.534 173.213 126.804 173.795H126.918C127.197 173.232 127.616 172.785 128.175 172.453C128.733 172.117 129.403 171.949 130.185 171.949C131.16 171.949 131.958 172.254 132.578 172.865C133.198 173.471 133.509 174.416 133.509 175.699V183H131.832V175.699C131.832 174.894 131.612 174.319 131.172 173.973C130.732 173.627 130.213 173.455 129.616 173.455C128.849 173.455 128.255 173.687 127.834 174.151C127.412 174.61 127.202 175.192 127.202 175.898V183H125.497V175.528C125.497 174.908 125.296 174.409 124.893 174.03C124.491 173.646 123.973 173.455 123.338 173.455C122.902 173.455 122.495 173.571 122.116 173.803C121.742 174.035 121.439 174.357 121.207 174.768C120.98 175.176 120.866 175.647 120.866 176.182V183H119.19ZM136.8 183V168.455H138.477V173.824H138.619C138.742 173.634 138.912 173.393 139.13 173.099C139.353 172.801 139.67 172.536 140.082 172.304C140.498 172.067 141.062 171.949 141.772 171.949C142.691 171.949 143.5 172.179 144.201 172.638C144.902 173.097 145.449 173.748 145.842 174.591C146.235 175.434 146.431 176.428 146.431 177.574C146.431 178.729 146.235 179.731 145.842 180.578C145.449 181.421 144.904 182.074 144.208 182.538C143.512 182.998 142.71 183.227 141.8 183.227C141.1 183.227 140.539 183.111 140.117 182.879C139.696 182.643 139.371 182.375 139.144 182.077C138.917 181.774 138.742 181.523 138.619 181.324H138.42V183H136.8ZM138.448 177.545C138.448 178.369 138.569 179.096 138.81 179.726C139.052 180.351 139.405 180.841 139.869 181.196C140.333 181.546 140.901 181.722 141.573 181.722C142.274 181.722 142.859 181.537 143.327 181.168C143.801 180.794 144.156 180.292 144.393 179.662C144.634 179.027 144.755 178.322 144.755 177.545C144.755 176.778 144.637 176.087 144.4 175.472C144.168 174.851 143.815 174.361 143.342 174.001C142.873 173.637 142.283 173.455 141.573 173.455C140.891 173.455 140.318 173.627 139.854 173.973C139.39 174.314 139.04 174.792 138.803 175.408C138.567 176.018 138.448 176.731 138.448 177.545ZM153.569 183.227C152.518 183.227 151.611 182.995 150.849 182.531C150.091 182.062 149.506 181.409 149.094 180.571C148.687 179.728 148.484 178.748 148.484 177.631C148.484 176.513 148.687 175.528 149.094 174.676C149.506 173.819 150.079 173.152 150.813 172.673C151.552 172.19 152.414 171.949 153.398 171.949C153.967 171.949 154.528 172.044 155.082 172.233C155.636 172.422 156.14 172.73 156.594 173.156C157.049 173.578 157.411 174.136 157.681 174.832C157.951 175.528 158.086 176.385 158.086 177.403V178.114H149.677V176.665H156.381C156.381 176.049 156.258 175.5 156.012 175.017C155.771 174.534 155.425 174.153 154.975 173.874C154.53 173.594 154.004 173.455 153.398 173.455C152.731 173.455 152.153 173.62 151.665 173.952C151.183 174.278 150.811 174.705 150.55 175.23C150.29 175.756 150.16 176.319 150.16 176.92V177.886C150.16 178.71 150.302 179.409 150.586 179.982C150.875 180.55 151.275 180.983 151.786 181.281C152.298 181.575 152.892 181.722 153.569 181.722C154.009 181.722 154.407 181.66 154.762 181.537C155.122 181.409 155.432 181.22 155.692 180.969C155.953 180.713 156.154 180.396 156.296 180.017L157.915 180.472C157.745 181.021 157.459 181.504 157.056 181.92C156.654 182.332 156.156 182.654 155.565 182.886C154.973 183.114 154.308 183.227 153.569 183.227ZM160.636 183V172.091H162.255V173.739H162.369C162.567 173.199 162.927 172.761 163.448 172.425C163.969 172.089 164.556 171.92 165.21 171.92C165.333 171.92 165.487 171.923 165.671 171.928C165.856 171.932 165.996 171.939 166.09 171.949V173.653C166.033 173.639 165.903 173.618 165.7 173.589C165.501 173.556 165.29 173.54 165.067 173.54C164.537 173.54 164.064 173.651 163.647 173.874C163.235 174.091 162.908 174.394 162.667 174.783C162.43 175.166 162.312 175.604 162.312 176.097V183H160.636Z" fill="#202130"/>
<g filter="url(#filter0_d_545_2985)">
<path d="M42.0682 231V227.955L50.1477 220.034C50.9205 219.254 51.5644 218.561 52.0795 217.955C52.5947 217.348 52.9811 216.761 53.2386 216.193C53.4962 215.625 53.625 215.019 53.625 214.375C53.625 213.64 53.4583 213.011 53.125 212.489C52.7917 211.958 52.3333 211.549 51.75 211.261C51.1667 210.973 50.5038 210.83 49.7614 210.83C48.9962 210.83 48.3258 210.989 47.75 211.307C47.1742 211.617 46.7273 212.061 46.4091 212.636C46.0985 213.212 45.9432 213.898 45.9432 214.693H41.9318C41.9318 213.216 42.2689 211.932 42.9432 210.841C43.6174 209.75 44.5455 208.905 45.7273 208.307C46.9167 207.708 48.2803 207.409 49.8182 207.409C51.3788 207.409 52.75 207.701 53.9318 208.284C55.1136 208.867 56.0303 209.667 56.6818 210.682C57.3409 211.697 57.6705 212.856 57.6705 214.159C57.6705 215.03 57.5038 215.886 57.1705 216.727C56.8371 217.568 56.25 218.5 55.4091 219.523C54.5758 220.545 53.4053 221.784 51.8977 223.239L47.8864 227.318V227.477H58.0227V231H42.0682ZM61.9432 231V227.955L70.0227 220.034C70.7955 219.254 71.4394 218.561 71.9545 217.955C72.4697 217.348 72.8561 216.761 73.1136 216.193C73.3712 215.625 73.5 215.019 73.5 214.375C73.5 213.64 73.3333 213.011 73 212.489C72.6667 211.958 72.2083 211.549 71.625 211.261C71.0417 210.973 70.3788 210.83 69.6364 210.83C68.8712 210.83 68.2008 210.989 67.625 211.307C67.0492 211.617 66.6023 212.061 66.2841 212.636C65.9735 213.212 65.8182 213.898 65.8182 214.693H61.8068C61.8068 213.216 62.1439 211.932 62.8182 210.841C63.4924 209.75 64.4205 208.905 65.6023 208.307C66.7917 207.708 68.1553 207.409 69.6932 207.409C71.2538 207.409 72.625 207.701 73.8068 208.284C74.9886 208.867 75.9053 209.667 76.5568 210.682C77.2159 211.697 77.5455 212.856 77.5455 214.159C77.5455 215.03 77.3788 215.886 77.0455 216.727C76.7121 217.568 76.125 218.5 75.2841 219.523C74.4508 220.545 73.2803 221.784 71.7727 223.239L67.7614 227.318V227.477H77.8977V231H61.9432ZM80.8977 226.682V223.33L90.7727 207.727H93.5682V212.5H91.8636L85.2159 223.034V223.216H99V226.682H80.8977ZM92 231V225.659L92.0455 224.159V207.727H96.0227V231H92ZM110.983 231.318C109.347 231.318 107.892 231.038 106.619 230.477C105.354 229.917 104.354 229.136 103.619 228.136C102.884 227.136 102.494 225.981 102.449 224.67H106.722C106.759 225.299 106.968 225.848 107.347 226.318C107.725 226.78 108.229 227.14 108.858 227.398C109.487 227.655 110.191 227.784 110.972 227.784C111.805 227.784 112.544 227.64 113.188 227.352C113.831 227.057 114.335 226.648 114.699 226.125C115.063 225.602 115.241 225 115.233 224.318C115.241 223.614 115.059 222.992 114.688 222.455C114.316 221.917 113.778 221.496 113.074 221.193C112.377 220.89 111.536 220.739 110.551 220.739H108.494V217.489H110.551C111.362 217.489 112.07 217.348 112.676 217.068C113.29 216.788 113.771 216.394 114.119 215.886C114.468 215.371 114.638 214.777 114.631 214.102C114.638 213.443 114.491 212.871 114.188 212.386C113.892 211.894 113.472 211.511 112.926 211.239C112.388 210.966 111.756 210.83 111.028 210.83C110.316 210.83 109.657 210.958 109.051 211.216C108.445 211.473 107.956 211.841 107.585 212.318C107.214 212.788 107.017 213.348 106.994 214H102.938C102.968 212.697 103.343 211.553 104.062 210.568C104.79 209.576 105.759 208.803 106.972 208.25C108.184 207.689 109.544 207.409 111.051 207.409C112.604 207.409 113.953 207.701 115.097 208.284C116.248 208.86 117.138 209.636 117.767 210.614C118.396 211.591 118.71 212.67 118.71 213.852C118.718 215.163 118.331 216.261 117.551 217.148C116.778 218.034 115.763 218.614 114.506 218.886V219.068C116.142 219.295 117.396 219.902 118.267 220.886C119.146 221.864 119.581 223.08 119.574 224.534C119.574 225.837 119.203 227.004 118.46 228.034C117.725 229.057 116.71 229.86 115.415 230.443C114.127 231.027 112.65 231.318 110.983 231.318ZM139.935 231.318C138.821 231.311 137.734 231.117 136.673 230.739C135.613 230.352 134.658 229.727 133.81 228.864C132.961 227.992 132.287 226.837 131.787 225.398C131.287 223.951 131.041 222.159 131.048 220.023C131.048 218.03 131.26 216.254 131.685 214.693C132.109 213.133 132.719 211.814 133.514 210.739C134.31 209.655 135.268 208.83 136.389 208.261C137.518 207.693 138.779 207.409 140.173 207.409C141.635 207.409 142.931 207.697 144.06 208.273C145.196 208.848 146.113 209.636 146.81 210.636C147.507 211.629 147.938 212.75 148.105 214H143.957C143.745 213.106 143.31 212.394 142.651 211.864C141.999 211.326 141.173 211.057 140.173 211.057C138.56 211.057 137.317 211.758 136.446 213.159C135.582 214.561 135.147 216.485 135.139 218.932H135.298C135.67 218.265 136.151 217.693 136.741 217.216C137.332 216.739 137.999 216.371 138.741 216.114C139.491 215.848 140.283 215.716 141.116 215.716C142.48 215.716 143.704 216.042 144.787 216.693C145.878 217.345 146.741 218.242 147.378 219.386C148.014 220.523 148.329 221.826 148.321 223.295C148.329 224.826 147.98 226.201 147.276 227.42C146.571 228.633 145.59 229.587 144.332 230.284C143.075 230.981 141.609 231.326 139.935 231.318ZM139.912 227.909C140.738 227.909 141.476 227.708 142.128 227.307C142.779 226.905 143.295 226.364 143.673 225.682C144.052 225 144.238 224.235 144.23 223.386C144.238 222.553 144.056 221.799 143.685 221.125C143.321 220.451 142.817 219.917 142.173 219.523C141.529 219.129 140.795 218.932 139.969 218.932C139.355 218.932 138.783 219.049 138.253 219.284C137.723 219.519 137.26 219.845 136.866 220.261C136.473 220.67 136.162 221.148 135.935 221.693C135.715 222.231 135.601 222.807 135.594 223.42C135.601 224.231 135.791 224.977 136.162 225.659C136.533 226.341 137.045 226.886 137.696 227.295C138.348 227.705 139.086 227.909 139.912 227.909ZM160.685 231.318C159.571 231.311 158.484 231.117 157.423 230.739C156.363 230.352 155.408 229.727 154.56 228.864C153.711 227.992 153.037 226.837 152.537 225.398C152.037 223.951 151.791 222.159 151.798 220.023C151.798 218.03 152.01 216.254 152.435 214.693C152.859 213.133 153.469 211.814 154.264 210.739C155.06 209.655 156.018 208.83 157.139 208.261C158.268 207.693 159.529 207.409 160.923 207.409C162.385 207.409 163.681 207.697 164.81 208.273C165.946 208.848 166.863 209.636 167.56 210.636C168.257 211.629 168.688 212.75 168.855 214H164.707C164.495 213.106 164.06 212.394 163.401 211.864C162.749 211.326 161.923 211.057 160.923 211.057C159.31 211.057 158.067 211.758 157.196 213.159C156.332 214.561 155.897 216.485 155.889 218.932H156.048C156.42 218.265 156.901 217.693 157.491 217.216C158.082 216.739 158.749 216.371 159.491 216.114C160.241 215.848 161.033 215.716 161.866 215.716C163.23 215.716 164.454 216.042 165.537 216.693C166.628 217.345 167.491 218.242 168.128 219.386C168.764 220.523 169.079 221.826 169.071 223.295C169.079 224.826 168.73 226.201 168.026 227.42C167.321 228.633 166.34 229.587 165.082 230.284C163.825 230.981 162.359 231.326 160.685 231.318ZM160.662 227.909C161.488 227.909 162.226 227.708 162.878 227.307C163.529 226.905 164.045 226.364 164.423 225.682C164.802 225 164.988 224.235 164.98 223.386C164.988 222.553 164.806 221.799 164.435 221.125C164.071 220.451 163.567 219.917 162.923 219.523C162.279 219.129 161.545 218.932 160.719 218.932C160.105 218.932 159.533 219.049 159.003 219.284C158.473 219.519 158.01 219.845 157.616 220.261C157.223 220.67 156.912 221.148 156.685 221.693C156.465 222.231 156.351 222.807 156.344 223.42C156.351 224.231 156.541 224.977 156.912 225.659C157.283 226.341 157.795 226.886 158.446 227.295C159.098 227.705 159.836 227.909 160.662 227.909ZM181.003 231.318C179.488 231.318 178.132 231.034 176.935 230.466C175.738 229.89 174.787 229.102 174.082 228.102C173.385 227.102 173.014 225.958 172.969 224.67H177.06C177.135 225.625 177.548 226.405 178.298 227.011C179.048 227.61 179.95 227.909 181.003 227.909C181.829 227.909 182.563 227.72 183.207 227.341C183.851 226.962 184.359 226.436 184.73 225.761C185.101 225.087 185.283 224.318 185.276 223.455C185.283 222.576 185.098 221.795 184.719 221.114C184.34 220.432 183.821 219.898 183.162 219.511C182.503 219.117 181.745 218.92 180.889 218.92C180.192 218.913 179.507 219.042 178.832 219.307C178.158 219.572 177.624 219.92 177.23 220.352L173.423 219.727L174.639 207.727H188.139V211.25H178.128L177.457 217.42H177.594C178.026 216.913 178.635 216.492 179.423 216.159C180.211 215.818 181.075 215.648 182.014 215.648C183.423 215.648 184.681 215.981 185.787 216.648C186.893 217.307 187.764 218.216 188.401 219.375C189.037 220.534 189.355 221.86 189.355 223.352C189.355 224.89 188.999 226.261 188.287 227.466C187.582 228.663 186.601 229.606 185.344 230.295C184.094 230.977 182.647 231.318 181.003 231.318ZM193.162 231V227.955L201.241 220.034C202.014 219.254 202.658 218.561 203.173 217.955C203.688 217.348 204.075 216.761 204.332 216.193C204.59 215.625 204.719 215.019 204.719 214.375C204.719 213.64 204.552 213.011 204.219 212.489C203.885 211.958 203.427 211.549 202.844 211.261C202.26 210.973 201.598 210.83 200.855 210.83C200.09 210.83 199.42 210.989 198.844 211.307C198.268 211.617 197.821 212.061 197.503 212.636C197.192 213.212 197.037 213.898 197.037 214.693H193.026C193.026 213.216 193.363 211.932 194.037 210.841C194.711 209.75 195.639 208.905 196.821 208.307C198.01 207.708 199.374 207.409 200.912 207.409C202.473 207.409 203.844 207.701 205.026 208.284C206.207 208.867 207.124 209.667 207.776 210.682C208.435 211.697 208.764 212.856 208.764 214.159C208.764 215.03 208.598 215.886 208.264 216.727C207.931 217.568 207.344 218.5 206.503 219.523C205.67 220.545 204.499 221.784 202.991 223.239L198.98 227.318V227.477H209.116V231H193.162ZM229.054 207.409C230.168 207.417 231.251 207.614 232.304 208C233.365 208.379 234.319 209 235.168 209.864C236.016 210.72 236.69 211.867 237.19 213.307C237.69 214.746 237.94 216.527 237.94 218.648C237.948 220.648 237.736 222.436 237.304 224.011C236.88 225.58 236.27 226.905 235.474 227.989C234.679 229.072 233.721 229.898 232.599 230.466C231.478 231.034 230.217 231.318 228.815 231.318C227.346 231.318 226.043 231.03 224.906 230.455C223.777 229.879 222.865 229.091 222.168 228.091C221.471 227.091 221.043 225.947 220.884 224.659H225.031C225.243 225.583 225.675 226.318 226.327 226.864C226.986 227.402 227.815 227.67 228.815 227.67C230.429 227.67 231.671 226.97 232.543 225.568C233.414 224.167 233.849 222.22 233.849 219.727H233.69C233.319 220.394 232.838 220.97 232.247 221.455C231.656 221.932 230.986 222.299 230.236 222.557C229.493 222.814 228.705 222.943 227.872 222.943C226.509 222.943 225.281 222.617 224.19 221.966C223.107 221.314 222.247 220.42 221.611 219.284C220.982 218.148 220.664 216.848 220.656 215.386C220.656 213.871 221.005 212.511 221.702 211.307C222.406 210.095 223.387 209.14 224.645 208.443C225.902 207.739 227.372 207.394 229.054 207.409ZM229.065 210.818C228.247 210.818 227.509 211.019 226.849 211.42C226.198 211.814 225.683 212.352 225.304 213.034C224.933 213.708 224.747 214.462 224.747 215.295C224.755 216.121 224.94 216.871 225.304 217.545C225.675 218.22 226.179 218.754 226.815 219.148C227.459 219.542 228.194 219.739 229.02 219.739C229.634 219.739 230.205 219.621 230.736 219.386C231.266 219.152 231.728 218.826 232.122 218.409C232.524 217.985 232.834 217.504 233.054 216.966C233.281 216.428 233.391 215.86 233.384 215.261C233.384 214.466 233.194 213.731 232.815 213.057C232.444 212.383 231.933 211.841 231.281 211.432C230.637 211.023 229.899 210.818 229.065 210.818ZM241.304 226.682V223.33L251.179 207.727H253.974V212.5H252.27L245.622 223.034V223.216H259.406V226.682H241.304ZM252.406 231V225.659L252.452 224.159V207.727H256.429V231H252.406ZM271.389 231.318C269.753 231.318 268.298 231.038 267.026 230.477C265.76 229.917 264.76 229.136 264.026 228.136C263.291 227.136 262.901 225.981 262.855 224.67H267.128C267.166 225.299 267.374 225.848 267.753 226.318C268.132 226.78 268.635 227.14 269.264 227.398C269.893 227.655 270.598 227.784 271.378 227.784C272.211 227.784 272.95 227.64 273.594 227.352C274.238 227.057 274.741 226.648 275.105 226.125C275.469 225.602 275.647 225 275.639 224.318C275.647 223.614 275.465 222.992 275.094 222.455C274.723 221.917 274.185 221.496 273.48 221.193C272.783 220.89 271.942 220.739 270.957 220.739H268.901V217.489H270.957C271.768 217.489 272.476 217.348 273.082 217.068C273.696 216.788 274.177 216.394 274.526 215.886C274.874 215.371 275.045 214.777 275.037 214.102C275.045 213.443 274.897 212.871 274.594 212.386C274.298 211.894 273.878 211.511 273.332 211.239C272.795 210.966 272.162 210.83 271.435 210.83C270.723 210.83 270.063 210.958 269.457 211.216C268.851 211.473 268.363 211.841 267.991 212.318C267.62 212.788 267.423 213.348 267.401 214H263.344C263.374 212.697 263.749 211.553 264.469 210.568C265.196 209.576 266.166 208.803 267.378 208.25C268.59 207.689 269.95 207.409 271.457 207.409C273.01 207.409 274.359 207.701 275.503 208.284C276.654 208.86 277.545 209.636 278.173 210.614C278.802 211.591 279.116 212.67 279.116 213.852C279.124 215.163 278.738 216.261 277.957 217.148C277.185 218.034 276.17 218.614 274.912 218.886V219.068C276.548 219.295 277.802 219.902 278.673 220.886C279.552 221.864 279.988 223.08 279.98 224.534C279.98 225.837 279.609 227.004 278.866 228.034C278.132 229.057 277.116 229.86 275.821 230.443C274.533 231.027 273.056 231.318 271.389 231.318ZM291.972 231.318C290.456 231.318 289.1 231.034 287.903 230.466C286.706 229.89 285.756 229.102 285.051 228.102C284.354 227.102 283.983 225.958 283.938 224.67H288.028C288.104 225.625 288.517 226.405 289.267 227.011C290.017 227.61 290.919 227.909 291.972 227.909C292.797 227.909 293.532 227.72 294.176 227.341C294.82 226.962 295.328 226.436 295.699 225.761C296.07 225.087 296.252 224.318 296.244 223.455C296.252 222.576 296.066 221.795 295.688 221.114C295.309 220.432 294.79 219.898 294.131 219.511C293.472 219.117 292.714 218.92 291.858 218.92C291.161 218.913 290.475 219.042 289.801 219.307C289.127 219.572 288.593 219.92 288.199 220.352L284.392 219.727L285.608 207.727H299.108V211.25H289.097L288.426 217.42H288.562C288.994 216.913 289.604 216.492 290.392 216.159C291.18 215.818 292.044 215.648 292.983 215.648C294.392 215.648 295.65 215.981 296.756 216.648C297.862 217.307 298.733 218.216 299.369 219.375C300.006 220.534 300.324 221.86 300.324 223.352C300.324 224.89 299.968 226.261 299.256 227.466C298.551 228.663 297.57 229.606 296.312 230.295C295.062 230.977 293.616 231.318 291.972 231.318ZM320.148 207.409C321.261 207.417 322.345 207.614 323.398 208C324.458 208.379 325.413 209 326.261 209.864C327.11 210.72 327.784 211.867 328.284 213.307C328.784 214.746 329.034 216.527 329.034 218.648C329.042 220.648 328.83 222.436 328.398 224.011C327.973 225.58 327.364 226.905 326.568 227.989C325.773 229.072 324.814 229.898 323.693 230.466C322.572 231.034 321.311 231.318 319.909 231.318C318.439 231.318 317.136 231.03 316 230.455C314.871 229.879 313.958 229.091 313.261 228.091C312.564 227.091 312.136 225.947 311.977 224.659H316.125C316.337 225.583 316.769 226.318 317.42 226.864C318.08 227.402 318.909 227.67 319.909 227.67C321.523 227.67 322.765 226.97 323.636 225.568C324.508 224.167 324.943 222.22 324.943 219.727H324.784C324.413 220.394 323.932 220.97 323.341 221.455C322.75 221.932 322.08 222.299 321.33 222.557C320.587 222.814 319.799 222.943 318.966 222.943C317.602 222.943 316.375 222.617 315.284 221.966C314.201 221.314 313.341 220.42 312.705 219.284C312.076 218.148 311.758 216.848 311.75 215.386C311.75 213.871 312.098 212.511 312.795 211.307C313.5 210.095 314.481 209.14 315.739 208.443C316.996 207.739 318.466 207.394 320.148 207.409ZM320.159 210.818C319.341 210.818 318.602 211.019 317.943 211.42C317.292 211.814 316.777 212.352 316.398 213.034C316.027 213.708 315.841 214.462 315.841 215.295C315.848 216.121 316.034 216.871 316.398 217.545C316.769 218.22 317.273 218.754 317.909 219.148C318.553 219.542 319.288 219.739 320.114 219.739C320.727 219.739 321.299 219.621 321.83 219.386C322.36 219.152 322.822 218.826 323.216 218.409C323.617 217.985 323.928 217.504 324.148 216.966C324.375 216.428 324.485 215.86 324.477 215.261C324.477 214.466 324.288 213.731 323.909 213.057C323.538 212.383 323.027 211.841 322.375 211.432C321.731 211.023 320.992 210.818 320.159 210.818ZM340.898 207.409C342.011 207.417 343.095 207.614 344.148 208C345.208 208.379 346.163 209 347.011 209.864C347.86 210.72 348.534 211.867 349.034 213.307C349.534 214.746 349.784 216.527 349.784 218.648C349.792 220.648 349.58 222.436 349.148 224.011C348.723 225.58 348.114 226.905 347.318 227.989C346.523 229.072 345.564 229.898 344.443 230.466C343.322 231.034 342.061 231.318 340.659 231.318C339.189 231.318 337.886 231.03 336.75 230.455C335.621 229.879 334.708 229.091 334.011 228.091C333.314 227.091 332.886 225.947 332.727 224.659H336.875C337.087 225.583 337.519 226.318 338.17 226.864C338.83 227.402 339.659 227.67 340.659 227.67C342.273 227.67 343.515 226.97 344.386 225.568C345.258 224.167 345.693 222.22 345.693 219.727H345.534C345.163 220.394 344.682 220.97 344.091 221.455C343.5 221.932 342.83 222.299 342.08 222.557C341.337 222.814 340.549 222.943 339.716 222.943C338.352 222.943 337.125 222.617 336.034 221.966C334.951 221.314 334.091 220.42 333.455 219.284C332.826 218.148 332.508 216.848 332.5 215.386C332.5 213.871 332.848 212.511 333.545 211.307C334.25 210.095 335.231 209.14 336.489 208.443C337.746 207.739 339.216 207.394 340.898 207.409ZM340.909 210.818C340.091 210.818 339.352 211.019 338.693 211.42C338.042 211.814 337.527 212.352 337.148 213.034C336.777 213.708 336.591 214.462 336.591 215.295C336.598 216.121 336.784 216.871 337.148 217.545C337.519 218.22 338.023 218.754 338.659 219.148C339.303 219.542 340.038 219.739 340.864 219.739C341.477 219.739 342.049 219.621 342.58 219.386C343.11 219.152 343.572 218.826 343.966 218.409C344.367 217.985 344.678 217.504 344.898 216.966C345.125 216.428 345.235 215.86 345.227 215.261C345.227 214.466 345.038 213.731 344.659 213.057C344.288 212.383 343.777 211.841 343.125 211.432C342.481 211.023 341.742 210.818 340.909 210.818ZM361.841 231.318C360.152 231.318 358.652 231.034 357.341 230.466C356.038 229.898 355.015 229.121 354.273 228.136C353.538 227.144 353.174 226.019 353.182 224.761C353.174 223.784 353.386 222.886 353.818 222.068C354.25 221.25 354.833 220.568 355.568 220.023C356.311 219.47 357.136 219.117 358.045 218.966V218.807C356.848 218.542 355.879 217.932 355.136 216.977C354.402 216.015 354.038 214.905 354.045 213.648C354.038 212.451 354.371 211.383 355.045 210.443C355.72 209.504 356.644 208.765 357.818 208.227C358.992 207.682 360.333 207.409 361.841 207.409C363.333 207.409 364.663 207.682 365.83 208.227C367.004 208.765 367.928 209.504 368.602 210.443C369.284 211.383 369.625 212.451 369.625 213.648C369.625 214.905 369.25 216.015 368.5 216.977C367.758 217.932 366.799 218.542 365.625 218.807V218.966C366.534 219.117 367.352 219.47 368.08 220.023C368.814 220.568 369.398 221.25 369.83 222.068C370.269 222.886 370.489 223.784 370.489 224.761C370.489 226.019 370.117 227.144 369.375 228.136C368.633 229.121 367.61 229.898 366.307 230.466C365.011 231.034 363.523 231.318 361.841 231.318ZM361.841 228.068C362.712 228.068 363.47 227.92 364.114 227.625C364.758 227.322 365.258 226.898 365.614 226.352C365.97 225.807 366.152 225.178 366.159 224.466C366.152 223.723 365.958 223.068 365.58 222.5C365.208 221.924 364.697 221.473 364.045 221.148C363.402 220.822 362.667 220.659 361.841 220.659C361.008 220.659 360.265 220.822 359.614 221.148C358.962 221.473 358.447 221.924 358.068 222.5C357.697 223.068 357.515 223.723 357.523 224.466C357.515 225.178 357.689 225.807 358.045 226.352C358.402 226.89 358.902 227.311 359.545 227.614C360.197 227.917 360.962 228.068 361.841 228.068ZM361.841 217.466C362.553 217.466 363.182 217.322 363.727 217.034C364.28 216.746 364.716 216.345 365.034 215.83C365.352 215.314 365.515 214.72 365.523 214.045C365.515 213.379 365.356 212.795 365.045 212.295C364.735 211.788 364.303 211.398 363.75 211.125C363.197 210.845 362.561 210.705 361.841 210.705C361.106 210.705 360.458 210.845 359.898 211.125C359.345 211.398 358.913 211.788 358.602 212.295C358.299 212.795 358.152 213.379 358.159 214.045C358.152 214.72 358.303 215.314 358.614 215.83C358.932 216.337 359.367 216.739 359.92 217.034C360.481 217.322 361.121 217.466 361.841 217.466ZM374.224 231V227.955L382.304 220.034C383.077 219.254 383.721 218.561 384.236 217.955C384.751 217.348 385.137 216.761 385.395 216.193C385.652 215.625 385.781 215.019 385.781 214.375C385.781 213.64 385.615 213.011 385.281 212.489C384.948 211.958 384.49 211.549 383.906 211.261C383.323 210.973 382.66 210.83 381.918 210.83C381.152 210.83 380.482 210.989 379.906 211.307C379.33 211.617 378.884 212.061 378.565 212.636C378.255 213.212 378.099 213.898 378.099 214.693H374.088C374.088 213.216 374.425 211.932 375.099 210.841C375.774 209.75 376.702 208.905 377.884 208.307C379.073 207.708 380.437 207.409 381.974 207.409C383.535 207.409 384.906 207.701 386.088 208.284C387.27 208.867 388.187 209.667 388.838 210.682C389.497 211.697 389.827 212.856 389.827 214.159C389.827 215.03 389.66 215.886 389.327 216.727C388.993 217.568 388.406 218.5 387.565 219.523C386.732 220.545 385.562 221.784 384.054 223.239L380.043 227.318V227.477H390.179V231H374.224Z" fill="#202130"/>
</g>
<path d="M41.9176 49.5455H45.1136L50.6705 63.1136H50.875L56.4318 49.5455H59.6278V67H57.1222V54.3693H56.9602L51.8125 66.9744H49.733L44.5852 54.3608H44.4233V67H41.9176V49.5455ZM66.0902 49.5455V67H63.4567V49.5455H66.0902ZM84.4226 55.2216H81.7635C81.6612 54.6534 81.4709 54.1534 81.1925 53.7216C80.9141 53.2898 80.5732 52.9233 80.1697 52.6222C79.7663 52.321 79.3146 52.0937 78.8146 51.9403C78.3203 51.7869 77.7947 51.7102 77.2379 51.7102C76.2322 51.7102 75.3317 51.9631 74.5362 52.4688C73.7464 52.9744 73.1214 53.7159 72.6612 54.6932C72.2067 55.6705 71.9794 56.8636 71.9794 58.2727C71.9794 59.6932 72.2067 60.892 72.6612 61.8693C73.1214 62.8466 73.7493 63.5852 74.5447 64.0852C75.3402 64.5852 76.2351 64.8352 77.2294 64.8352C77.7805 64.8352 78.3033 64.7614 78.7976 64.6136C79.2976 64.4602 79.7493 64.2358 80.1527 63.9403C80.5561 63.6449 80.897 63.2841 81.1754 62.858C81.4595 62.4261 81.6555 61.9318 81.7635 61.375L84.4226 61.3835C84.2805 62.2415 84.005 63.0312 83.5959 63.7528C83.1925 64.4688 82.6726 65.0881 82.0362 65.6108C81.4055 66.1278 80.6839 66.5284 79.8714 66.8125C79.0589 67.0966 78.1726 67.2386 77.2124 67.2386C75.701 67.2386 74.3544 66.8807 73.1726 66.1648C71.9908 65.4432 71.0589 64.4119 70.3771 63.071C69.701 61.7301 69.3629 60.1307 69.3629 58.2727C69.3629 56.4091 69.7038 54.8097 70.3857 53.4744C71.0675 52.1335 71.9993 51.1051 73.1811 50.3892C74.3629 49.6676 75.7067 49.3068 77.2124 49.3068C78.1385 49.3068 79.0021 49.4403 79.8033 49.7074C80.6101 49.9687 81.3345 50.3551 81.9766 50.8665C82.6186 51.3722 83.1499 51.9915 83.5703 52.7244C83.9908 53.4517 84.2749 54.2841 84.4226 55.2216ZM87.5739 67V49.5455H90.2074V57.1307H98.9091V49.5455H101.551V67H98.9091V59.3892H90.2074V67H87.5739ZM106.861 67H104.065L110.347 49.5455H113.389L119.67 67H116.875L111.94 52.7159H111.804L106.861 67ZM107.33 60.1648H116.398V62.3807H107.33V60.1648ZM122.191 67V49.5455H133.134V51.8125H124.825V57.1307H132.563V59.3892H124.825V64.733H133.237V67H122.191ZM136.652 67V49.5455H139.286V64.733H147.195V67H136.652ZM158.025 67H155.229L161.511 49.5455H164.553L170.835 67H168.039L163.104 52.7159H162.968L158.025 67ZM158.494 60.1648H167.562V62.3807H158.494V60.1648ZM187.443 49.5455V67H185.023L176.151 54.1989H175.989V67H173.355V49.5455H175.793L184.673 62.3636H184.835V49.5455H187.443ZM196.935 67H191.285V49.5455H197.114C198.825 49.5455 200.293 49.8949 201.521 50.5938C202.748 51.2869 203.688 52.2841 204.342 53.5852C205.001 54.8807 205.33 56.4347 205.33 58.2472C205.33 60.0653 204.998 61.6278 204.333 62.9347C203.674 64.2415 202.719 65.2472 201.469 65.9517C200.219 66.6506 198.708 67 196.935 67ZM193.918 64.6989H196.79C198.12 64.6989 199.225 64.4489 200.106 63.9489C200.987 63.4432 201.646 62.7131 202.083 61.7585C202.521 60.7983 202.739 59.6278 202.739 58.2472C202.739 56.8778 202.521 55.7159 202.083 54.7614C201.651 53.8068 201.006 53.0824 200.148 52.5881C199.29 52.0937 198.225 51.8466 196.952 51.8466H193.918V64.6989ZM208.605 67V49.5455H214.827C216.179 49.5455 217.301 49.7784 218.193 50.2443C219.091 50.7102 219.761 51.3551 220.205 52.179C220.648 52.9972 220.869 53.9432 220.869 55.017C220.869 56.0852 220.645 57.0256 220.196 57.8381C219.753 58.6449 219.082 59.2727 218.185 59.7216C217.293 60.1705 216.17 60.3949 214.818 60.3949H210.105V58.1278H214.58C215.432 58.1278 216.125 58.0057 216.659 57.7614C217.199 57.517 217.594 57.1619 217.844 56.696C218.094 56.2301 218.219 55.6705 218.219 55.017C218.219 54.358 218.091 53.7869 217.835 53.304C217.585 52.821 217.19 52.4517 216.651 52.196C216.116 51.9347 215.415 51.804 214.545 51.804H211.239V67H208.605ZM217.222 59.125L221.534 67H218.534L214.307 59.125H217.222ZM224.074 67V49.5455H235.017V51.8125H226.707V57.1307H234.446V59.3892H226.707V64.733H235.119V67H224.074ZM249.759 49.5455H252.401V61.0256C252.401 62.2472 252.114 63.3295 251.54 64.2727C250.967 65.2102 250.16 65.9489 249.12 66.4886C248.08 67.0227 246.862 67.2898 245.464 67.2898C244.072 67.2898 242.856 67.0227 241.816 66.4886C240.776 65.9489 239.969 65.2102 239.396 64.2727C238.822 63.3295 238.535 62.2472 238.535 61.0256V49.5455H241.168V60.8125C241.168 61.6023 241.342 62.304 241.688 62.9176C242.04 63.5312 242.538 64.0142 243.18 64.3665C243.822 64.7131 244.583 64.8864 245.464 64.8864C246.35 64.8864 247.114 64.7131 247.756 64.3665C248.404 64.0142 248.898 63.5312 249.239 62.9176C249.586 62.304 249.759 61.6023 249.759 60.8125V49.5455ZM255.778 67V65.2443L264.957 51.8125H255.702V49.5455H268.179V51.3011L259 64.733H268.256V67H255.778ZM271.107 67V65.2443L280.286 51.8125H271.03V49.5455H283.507V51.3011L274.328 64.733H283.584V67H271.107ZM288.361 67H285.565L291.847 49.5455H294.889L301.17 67H298.375L293.44 52.7159H293.304L288.361 67ZM288.83 60.1648H297.898V62.3807H288.83V60.1648Z" fill="#202130"/>
<path d="M44.7614 317V302.455H53.5398V304.017H46.5227V308.932H53.0852V310.494H46.5227V315.438H53.6534V317H44.7614ZM57.7372 306.091L60.3509 310.551L62.9645 306.091H64.8963L61.3736 311.545L64.8963 317H62.9645L60.3509 312.767L57.7372 317H55.8054L59.2713 311.545L55.8054 306.091H57.7372ZM67.288 321.091V306.091H68.9073V307.824H69.1062C69.2293 307.634 69.3997 307.393 69.6175 307.099C69.8401 306.801 70.1573 306.536 70.5692 306.304C70.9859 306.067 71.5494 305.949 72.2596 305.949C73.1781 305.949 73.9878 306.179 74.6886 306.638C75.3893 307.097 75.9362 307.748 76.3292 308.591C76.7222 309.434 76.9187 310.428 76.9187 311.574C76.9187 312.729 76.7222 313.731 76.3292 314.578C75.9362 315.421 75.3917 316.074 74.6957 316.538C73.9996 316.998 73.1971 317.227 72.288 317.227C71.5872 317.227 71.0262 317.111 70.6048 316.879C70.1834 316.643 69.859 316.375 69.6317 316.077C69.4045 315.774 69.2293 315.523 69.1062 315.324H68.9641V321.091H67.288ZM68.9357 311.545C68.9357 312.369 69.0565 313.096 69.2979 313.726C69.5394 314.351 69.8922 314.841 70.3562 315.196C70.8202 315.546 71.3884 315.722 72.0607 315.722C72.7615 315.722 73.3462 315.537 73.815 315.168C74.2885 314.794 74.6436 314.292 74.8803 313.662C75.1218 313.027 75.2425 312.322 75.2425 311.545C75.2425 310.778 75.1242 310.087 74.8874 309.472C74.6554 308.851 74.3027 308.361 73.8292 308.001C73.3604 307.637 72.771 307.455 72.0607 307.455C71.3789 307.455 70.806 307.627 70.342 307.973C69.878 308.314 69.5276 308.792 69.2908 309.408C69.0541 310.018 68.9357 310.731 68.9357 311.545ZM79.4755 317V306.091H81.1516V317H79.4755ZM80.3278 304.273C80.0011 304.273 79.7193 304.161 79.4826 303.939C79.2506 303.716 79.1346 303.449 79.1346 303.136C79.1346 302.824 79.2506 302.556 79.4826 302.334C79.7193 302.111 80.0011 302 80.3278 302C80.6545 302 80.9338 302.111 81.1658 302.334C81.4026 302.556 81.521 302.824 81.521 303.136C81.521 303.449 81.4026 303.716 81.1658 303.939C80.9338 304.161 80.6545 304.273 80.3278 304.273ZM84.2216 317V306.091H85.8409V307.739H85.9545C86.1534 307.199 86.5133 306.761 87.0341 306.425C87.5549 306.089 88.142 305.92 88.7955 305.92C88.9186 305.92 89.0724 305.923 89.2571 305.928C89.4418 305.932 89.5814 305.939 89.6761 305.949V307.653C89.6193 307.639 89.4891 307.618 89.2855 307.589C89.0866 307.556 88.8759 307.54 88.6534 307.54C88.1231 307.54 87.6496 307.651 87.233 307.874C86.821 308.091 86.4943 308.394 86.2528 308.783C86.0161 309.166 85.8977 309.604 85.8977 310.097V317H84.2216ZM93.0746 321.091C92.7905 321.091 92.5372 321.067 92.3146 321.02C92.0921 320.977 91.9382 320.935 91.853 320.892L92.2791 319.415C92.6863 319.519 93.0462 319.557 93.3587 319.528C93.6712 319.5 93.9482 319.36 94.1896 319.109C94.4358 318.863 94.6607 318.463 94.8643 317.909L95.1768 317.057L91.1428 306.091H92.9609L95.9723 314.784H96.0859L99.0973 306.091H100.915L96.2848 318.591C96.0765 319.154 95.8184 319.621 95.5107 319.99C95.2029 320.364 94.8454 320.641 94.4382 320.821C94.0357 321.001 93.5812 321.091 93.0746 321.091ZM113.469 317H108.98V302.455H113.668C115.079 302.455 116.286 302.746 117.29 303.328C118.294 303.906 119.063 304.737 119.598 305.821C120.133 306.901 120.401 308.193 120.401 309.699C120.401 311.214 120.131 312.518 119.591 313.612C119.051 314.701 118.265 315.539 117.233 316.126C116.201 316.709 114.946 317 113.469 317ZM110.741 315.438H113.355C114.558 315.438 115.554 315.205 116.345 314.741C117.136 314.277 117.725 313.617 118.114 312.76C118.502 311.903 118.696 310.883 118.696 309.699C118.696 308.525 118.504 307.514 118.121 306.666C117.737 305.814 117.164 305.161 116.402 304.706C115.64 304.247 114.69 304.017 113.554 304.017H110.741V315.438ZM126.338 317.256C125.647 317.256 125.019 317.125 124.456 316.865C123.893 316.6 123.445 316.219 123.114 315.722C122.782 315.22 122.616 314.614 122.616 313.903C122.616 313.278 122.74 312.772 122.986 312.384C123.232 311.991 123.561 311.683 123.973 311.46C124.385 311.238 124.839 311.072 125.337 310.963C125.839 310.849 126.343 310.759 126.849 310.693C127.512 310.608 128.05 310.544 128.462 310.501C128.878 310.454 129.181 310.376 129.371 310.267C129.565 310.158 129.662 309.969 129.662 309.699V309.642C129.662 308.941 129.47 308.397 129.087 308.009C128.708 307.62 128.133 307.426 127.361 307.426C126.561 307.426 125.933 307.601 125.479 307.952C125.024 308.302 124.705 308.676 124.52 309.074L122.929 308.506C123.213 307.843 123.592 307.327 124.065 306.957C124.544 306.583 125.064 306.323 125.628 306.176C126.196 306.025 126.755 305.949 127.304 305.949C127.654 305.949 128.057 305.991 128.511 306.077C128.971 306.157 129.413 306.325 129.839 306.581C130.27 306.837 130.628 307.223 130.912 307.739C131.196 308.255 131.338 308.946 131.338 309.812V317H129.662V315.523H129.577C129.463 315.759 129.274 316.013 129.009 316.283C128.743 316.553 128.391 316.782 127.95 316.972C127.51 317.161 126.973 317.256 126.338 317.256ZM126.594 315.75C127.257 315.75 127.815 315.62 128.27 315.359C128.729 315.099 129.075 314.763 129.307 314.351C129.544 313.939 129.662 313.506 129.662 313.051V311.517C129.591 311.602 129.435 311.68 129.193 311.751C128.956 311.818 128.682 311.877 128.369 311.929C128.062 311.976 127.761 312.019 127.467 312.057C127.179 312.09 126.944 312.118 126.764 312.142C126.329 312.199 125.921 312.291 125.543 312.419C125.169 312.542 124.866 312.729 124.634 312.98C124.406 313.226 124.293 313.562 124.293 313.989C124.293 314.571 124.508 315.011 124.939 315.31C125.375 315.603 125.926 315.75 126.594 315.75ZM139.142 306.091V307.511H133.488V306.091H139.142ZM135.136 303.477H136.812V313.875C136.812 314.348 136.881 314.704 137.018 314.94C137.16 315.172 137.34 315.329 137.558 315.409C137.78 315.485 138.015 315.523 138.261 315.523C138.446 315.523 138.597 315.513 138.716 315.494C138.834 315.471 138.929 315.452 139 315.438L139.341 316.943C139.227 316.986 139.068 317.028 138.865 317.071C138.661 317.118 138.403 317.142 138.091 317.142C137.617 317.142 137.153 317.04 136.699 316.837C136.249 316.633 135.875 316.323 135.576 315.906C135.283 315.49 135.136 314.964 135.136 314.33V303.477ZM146.12 317.227C145.069 317.227 144.162 316.995 143.4 316.531C142.642 316.062 142.057 315.409 141.645 314.571C141.238 313.728 141.034 312.748 141.034 311.631C141.034 310.513 141.238 309.528 141.645 308.676C142.057 307.819 142.63 307.152 143.364 306.673C144.103 306.19 144.964 305.949 145.949 305.949C146.517 305.949 147.078 306.044 147.632 306.233C148.186 306.422 148.691 306.73 149.145 307.156C149.6 307.578 149.962 308.136 150.232 308.832C150.502 309.528 150.637 310.385 150.637 311.403V312.114H142.228V310.665H148.932C148.932 310.049 148.809 309.5 148.563 309.017C148.321 308.534 147.976 308.153 147.526 307.874C147.081 307.594 146.555 307.455 145.949 307.455C145.282 307.455 144.704 307.62 144.216 307.952C143.733 308.278 143.362 308.705 143.101 309.23C142.841 309.756 142.711 310.319 142.711 310.92V311.886C142.711 312.71 142.853 313.409 143.137 313.982C143.426 314.55 143.826 314.983 144.337 315.281C144.848 315.575 145.443 315.722 146.12 315.722C146.56 315.722 146.958 315.66 147.313 315.537C147.673 315.409 147.983 315.22 148.243 314.969C148.504 314.713 148.705 314.396 148.847 314.017L150.466 314.472C150.296 315.021 150.009 315.504 149.607 315.92C149.204 316.332 148.707 316.654 148.115 316.886C147.524 317.114 146.858 317.227 146.12 317.227Z" fill="#202130"/>
<path d="M50.2088 334.455V349H47.5739V337.018H47.4886L44.0866 339.192V336.777L47.7017 334.455H50.2088ZM59.2784 349.277C58.1089 349.277 57.1051 348.981 56.267 348.389C55.4337 347.793 54.7921 346.933 54.3423 345.811C53.8973 344.684 53.6747 343.328 53.6747 341.741C53.6795 340.155 53.9044 338.806 54.3494 337.693C54.7992 336.576 55.4408 335.723 56.2741 335.136C57.1122 334.549 58.1136 334.256 59.2784 334.256C60.4432 334.256 61.4446 334.549 62.2827 335.136C63.1207 335.723 63.7623 336.576 64.2074 337.693C64.6572 338.811 64.8821 340.16 64.8821 341.741C64.8821 343.332 64.6572 344.691 64.2074 345.818C63.7623 346.94 63.1207 347.797 62.2827 348.389C61.4493 348.981 60.4479 349.277 59.2784 349.277ZM59.2784 347.054C60.1875 347.054 60.9048 346.607 61.4304 345.712C61.9607 344.812 62.2259 343.489 62.2259 341.741C62.2259 340.586 62.1051 339.616 61.8636 338.83C61.6222 338.044 61.2813 337.452 60.8409 337.054C60.4006 336.652 59.8797 336.45 59.2784 336.45C58.3741 336.45 57.6591 336.9 57.1335 337.8C56.608 338.695 56.3428 340.009 56.3381 341.741C56.3333 342.902 56.4493 343.877 56.6861 344.668C56.9276 345.458 57.2685 346.055 57.7088 346.457C58.1491 346.855 58.6723 347.054 59.2784 347.054ZM73.2077 333.773L68.5202 351.188H66.2688L70.9563 333.773H73.2077ZM74.82 349V347.097L79.8697 342.146C80.3526 341.659 80.7551 341.225 81.0771 340.847C81.399 340.468 81.6405 340.101 81.8015 339.746C81.9625 339.391 82.043 339.012 82.043 338.609C82.043 338.15 81.9388 337.757 81.7305 337.43C81.5221 337.099 81.2357 336.843 80.8711 336.663C80.5065 336.483 80.0922 336.393 79.6282 336.393C79.15 336.393 78.7309 336.493 78.3711 336.692C78.0112 336.886 77.7319 337.163 77.533 337.523C77.3389 337.883 77.2418 338.311 77.2418 338.808H74.7347C74.7347 337.885 74.9454 337.082 75.3668 336.401C75.7882 335.719 76.3683 335.191 77.1069 334.817C77.8503 334.443 78.7025 334.256 79.6637 334.256C80.6391 334.256 81.4961 334.438 82.2347 334.803C82.9734 335.167 83.5463 335.667 83.9535 336.301C84.3654 336.936 84.5714 337.66 84.5714 338.474C84.5714 339.019 84.4672 339.554 84.2589 340.08C84.0505 340.605 83.6836 341.187 83.158 341.827C82.6372 342.466 81.9057 343.24 80.9634 344.149L78.4563 346.699V346.798H84.7915V349H74.82ZM92.4123 349.199C91.3564 349.199 90.4189 349.021 89.5998 348.666C88.7854 348.311 88.1462 347.826 87.6822 347.21C87.2229 346.59 86.9956 345.887 87.0004 345.101C86.9956 344.49 87.1282 343.929 87.3981 343.418C87.668 342.906 88.0326 342.48 88.4918 342.139C88.9558 341.794 89.4719 341.573 90.0401 341.479V341.379C89.292 341.214 88.686 340.832 88.2219 340.236C87.7627 339.634 87.5354 338.941 87.5401 338.155C87.5354 337.407 87.7437 336.739 88.1651 336.152C88.5865 335.565 89.1642 335.103 89.8981 334.767C90.632 334.426 91.4701 334.256 92.4123 334.256C93.3451 334.256 94.176 334.426 94.9052 334.767C95.6391 335.103 96.2167 335.565 96.6381 336.152C97.0643 336.739 97.2773 337.407 97.2773 338.155C97.2773 338.941 97.043 339.634 96.5742 340.236C96.1102 340.832 95.5112 341.214 94.7773 341.379V341.479C95.3455 341.573 95.8569 341.794 96.3114 342.139C96.7707 342.48 97.1353 342.906 97.4052 343.418C97.6798 343.929 97.8171 344.49 97.8171 345.101C97.8171 345.887 97.5851 346.59 97.1211 347.21C96.6571 347.826 96.0179 348.311 95.2035 348.666C94.3938 349.021 93.4634 349.199 92.4123 349.199ZM92.4123 347.168C92.9568 347.168 93.4303 347.075 93.8327 346.891C94.2352 346.701 94.5477 346.436 94.7702 346.095C94.9928 345.754 95.1064 345.361 95.1112 344.916C95.1064 344.452 94.9857 344.043 94.7489 343.688C94.5169 343.328 94.1973 343.046 93.7901 342.842C93.3877 342.639 92.9284 342.537 92.4123 342.537C91.8915 342.537 91.4274 342.639 91.0202 342.842C90.613 343.046 90.2911 343.328 90.0543 343.688C89.8223 344.043 89.7087 344.452 89.7134 344.916C89.7087 345.361 89.8176 345.754 90.0401 346.095C90.2627 346.431 90.5752 346.694 90.9776 346.884C91.3848 347.073 91.863 347.168 92.4123 347.168ZM92.4123 340.541C92.8574 340.541 93.2504 340.451 93.5913 340.271C93.9369 340.091 94.2092 339.84 94.408 339.518C94.6069 339.196 94.7087 338.825 94.7134 338.403C94.7087 337.987 94.6093 337.622 94.4151 337.31C94.221 336.992 93.9511 336.749 93.6055 336.578C93.2598 336.403 92.8621 336.315 92.4123 336.315C91.953 336.315 91.5482 336.403 91.1978 336.578C90.8522 336.749 90.5823 336.992 90.3881 337.31C90.1987 337.622 90.1064 337.987 90.1112 338.403C90.1064 338.825 90.2011 339.196 90.3952 339.518C90.5941 339.836 90.8664 340.087 91.212 340.271C91.5624 340.451 91.9625 340.541 92.4123 340.541Z" fill="#202130"/>
<g clip-path="url(#clip1_545_2985)">
<rect x="480" y="298" width="65" height="50" rx="8" fill="white" fill-opacity="0.24"/>
<path fill-rule="evenodd" clip-rule="evenodd" d="M500 348H502V298H500V311H480V313H500V323H480V325H500V335H480V337H500V348Z" fill="white" fill-opacity="0.64"/>
<path fill-rule="evenodd" clip-rule="evenodd" d="M522.271 323L522.423 322.635L522.445 322.583L522.445 322.583C523.744 319.466 525.056 316.319 526.161 313H543V311H526.793C528.106 306.607 529 301.878 529 296.5H527C527 306.434 523.83 314.061 520.577 321.865L520.555 321.917C520.405 322.278 520.255 322.639 520.104 323H520V323.251C516.948 330.605 514 338.234 514 348H516C516 344.016 516.51 340.402 517.331 337H543V335H517.854C518.83 331.533 520.101 328.26 521.442 325H543V323H522.271Z" fill="white" fill-opacity="0.64"/>
</g>
<rect x="481" y="299" width="63" height="48" rx="7" stroke="white" stroke-opacity="0.64" stroke-width="2"/>
<path d="M546.073 73.7568L545.323 69.9681H536.943L535.61 73.7299L528.893 73.7434C532.091 65.9744 535.295 58.2082 538.507 50.445C539.053 49.1282 540.023 48.458 541.453 48.4648C542.547 48.4749 544.33 48.4749 546.807 48.4681L552 73.7467L546.073 73.7568ZM538.83 64.7783H544.23L542.213 55.2812L538.83 64.7783ZM495.533 48.4614L502.287 48.4681L491.847 73.7602L485.01 73.7535C483.291 67.0728 481.593 60.3866 479.917 53.6949C479.583 52.3613 478.923 51.4284 477.653 50.9872C476.523 50.5932 474.64 49.987 472 49.1619V48.4715H482.79C484.657 48.4715 485.747 49.3842 486.097 51.2566C486.45 53.1325 487.337 57.908 488.763 65.5832L495.533 48.4614ZM511.567 48.4681L506.227 73.7535L499.8 73.7467L505.133 48.4614L511.567 48.4681ZM524.6 48C526.523 48 528.947 48.6062 530.34 49.1619L529.213 54.4055C527.953 53.8936 525.88 53.2032 524.137 53.2268C521.603 53.2706 520.037 54.3449 520.037 55.3755C520.037 57.0526 522.757 57.8979 525.557 59.73C528.753 61.818 529.173 63.6939 529.133 65.7314C529.09 69.9613 525.557 74.134 518.103 74.134C514.703 74.0835 513.477 73.7939 510.703 72.8004L511.877 67.3277C514.7 68.5233 515.897 68.9038 518.31 68.9038C520.52 68.9038 522.417 68.0013 522.433 66.4285C522.447 65.3104 521.767 64.7547 519.287 63.3739C516.807 61.9898 513.327 60.0735 513.373 56.2275C513.43 51.3038 518.047 48 524.603 48H524.6Z" fill="white"/>
<g filter="url(#filter1_f_545_2985)">
<ellipse cx="558.5" cy="356.5" rx="118.5" ry="118.5" transform="rotate(-90 558.5 356.5)" fill="#3C459A" fill-opacity="0.5"/>
</g>
<mask id="mask0_545_2985" style="mask-type:alpha" maskUnits="userSpaceOnUse" x="79" y="70" width="960" height="573">
<rect x="79" y="70" width="960" height="573" fill="url(#paint0_radial_545_2985)"/>
</mask>
<g mask="url(#mask0_545_2985)">
<rect x="202.5" y="79.5" width="79" height="79" stroke="#484848"/>
<rect x="281.5" y="79.5" width="79" height="79" stroke="#484848"/>
<rect x="360.5" y="79.5" width="79" height="79" stroke="#484848"/>
<rect x="439.5" y="79.5" width="79" height="79" stroke="#484848"/>
<rect x="518.5" y="79.5" width="79" height="79" stroke="#484848"/>
<rect x="202.5" y="158.5" width="79" height="79" stroke="#484848"/>
<rect x="281.5" y="158.5" width="79" height="79" stroke="#484848"/>
<rect x="360.5" y="158.5" width="79" height="79" stroke="#484848"/>
<rect x="439.5" y="158.5" width="79" height="79" stroke="#484848"/>
<rect x="518.5" y="158.5" width="79" height="79" stroke="#484848"/>
<rect x="202.5" y="237.5" width="79" height="79" stroke="#484848"/>
<rect x="281.5" y="237.5" width="79" height="79" stroke="#484848"/>
<rect x="360.5" y="237.5" width="79" height="79" stroke="#484848"/>
<rect x="439.5" y="237.5" width="79" height="79" stroke="#484848"/>
<rect x="518.5" y="237.5" width="79" height="79" fill="#343434" fill-opacity="0.25" stroke="#484848"/>
<rect x="202.5" y="316.5" width="79" height="79" stroke="#484848"/>
<rect x="281.5" y="316.5" width="79" height="79" stroke="#484848"/>
<rect x="360.5" y="316.5" width="79" height="79" stroke="#484848"/>
<rect x="439.5" y="316.5" width="79" height="79" stroke="#484848"/>
<rect x="518.5" y="316.5" width="79" height="79" stroke="#484848"/>
</g>
</g>
<rect x="0.5" y="0.5" width="573" height="389" rx="31.5" stroke="url(#paint1_linear_545_2985)"/>
<defs>
<filter id="filter0_d_545_2985" x="33.9318" y="199.386" width="364.247" height="39.9432" filterUnits="userSpaceOnUse" color-interpolation-filters="sRGB">
<feFlood flood-opacity="0" result="BackgroundImageFix"/>
<feColorMatrix in="SourceAlpha" type="matrix" values="0 0 0 0 0 0 0 0 0 0 0 0 0 0 0 0 0 0 127 0" result="hardAlpha"/>
<feOffset/>
<feGaussianBlur stdDeviation="4"/>
<feComposite in2="hardAlpha" operator="out"/>
<feColorMatrix type="matrix" values="0 0 0 0 0 0 0 0 0 0 0 0 0 0 0 0 0 0 0.16 0"/>
<feBlend mode="normal" in2="BackgroundImageFix" result="effect1_dropShadow_545_2985"/>
<feBlend mode="normal" in="SourceGraphic" in2="effect1_dropShadow_545_2985" result="shape"/>
</filter>
<filter id="filter1_f_545_2985" x="240" y="38" width="637" height="637" filterUnits="userSpaceOnUse" color-interpolation-filters="sRGB">
<feFlood flood-opacity="0" result="BackgroundImageFix"/>
<feBlend mode="normal" in="SourceGraphic" in2="BackgroundImageFix" result="shape"/>
<feGaussianBlur stdDeviation="100" result="effect1_foregroundBlur_545_2985"/>
</filter>
<radialGradient id="paint0_radial_545_2985" cx="0" cy="0" r="1" gradientUnits="userSpaceOnUse" gradientTransform="translate(559 356.5) rotate(90) scale(353.19 591.732)">
<stop stop-color="#D9D9D9" stop-opacity="0.2"/>
<stop offset="0.802083" stop-color="#D9D9D9" stop-opacity="0"/>
</radialGradient>
<linearGradient id="paint1_linear_545_2985" x1="25.895" y1="377.464" x2="201.565" y2="-115.898" gradientUnits="userSpaceOnUse">
<stop stop-color="#7FCEF3"/>
<stop offset="1" stop-color="#4C00FF"/>
</linearGradient>
<clipPath id="clip0_545_2985">
<rect width="574" height="390" rx="32" fill="white"/>
</clipPath>
<clipPath id="clip1_545_2985">
<rect x="480" y="298" width="65" height="50" rx="8" fill="white"/>
</clipPath>
</defs>
</svg>
