<svg width="574" height="390" viewBox="0 0 574 390" fill="none" xmlns="http://www.w3.org/2000/svg">
<g clip-path="url(#clip0_545_2965)">
<rect width="574" height="390" rx="32" fill="#202130"/>
<path d="M450 1H541C558.673 1 573 15.3269 573 33V357C573 374.673 558.673 389 541 389H450V1Z" fill="#F5F5F5"/>
<path d="M53.4659 173H51.7045C51.6004 172.493 51.4181 172.048 51.1577 171.665C50.902 171.281 50.5895 170.959 50.2202 170.699C49.8556 170.434 49.4508 170.235 49.0057 170.102C48.5606 169.97 48.0966 169.903 47.6136 169.903C46.733 169.903 45.9351 170.126 45.2202 170.571C44.5099 171.016 43.9441 171.672 43.5227 172.538C43.1061 173.405 42.8977 174.468 42.8977 175.727C42.8977 176.987 43.1061 178.05 43.5227 178.916C43.9441 179.783 44.5099 180.438 45.2202 180.884C45.9351 181.329 46.733 181.551 47.6136 181.551C48.0966 181.551 48.5606 181.485 49.0057 181.352C49.4508 181.22 49.8556 181.023 50.2202 180.763C50.5895 180.498 50.902 180.173 51.1577 179.79C51.4181 179.402 51.6004 178.956 51.7045 178.455H53.4659C53.3333 179.198 53.0919 179.863 52.7415 180.45C52.3911 181.037 51.9555 181.537 51.4347 181.949C50.9138 182.356 50.3291 182.666 49.6804 182.879C49.0365 183.092 48.3475 183.199 47.6136 183.199C46.3731 183.199 45.2699 182.896 44.304 182.29C43.3381 181.684 42.5781 180.822 42.0241 179.705C41.4702 178.587 41.1932 177.261 41.1932 175.727C41.1932 174.193 41.4702 172.867 42.0241 171.75C42.5781 170.633 43.3381 169.771 44.304 169.165C45.2699 168.559 46.3731 168.256 47.6136 168.256C48.3475 168.256 49.0365 168.362 49.6804 168.575C50.3291 168.788 50.9138 169.101 51.4347 169.513C51.9555 169.92 52.3911 170.417 52.7415 171.004C53.0919 171.587 53.3333 172.252 53.4659 173ZM59.2951 183.256C58.6038 183.256 57.9764 183.125 57.413 182.865C56.8496 182.6 56.4021 182.219 56.0707 181.722C55.7392 181.22 55.5735 180.614 55.5735 179.903C55.5735 179.278 55.6966 178.772 55.9428 178.384C56.189 177.991 56.5181 177.683 56.93 177.46C57.342 177.238 57.7965 177.072 58.2937 176.963C58.7956 176.849 59.2998 176.759 59.8065 176.693C60.4693 176.608 61.0067 176.544 61.4187 176.501C61.8353 176.454 62.1384 176.376 62.3278 176.267C62.5219 176.158 62.619 175.969 62.619 175.699V175.642C62.619 174.941 62.4272 174.397 62.0437 174.009C61.6649 173.62 61.0896 173.426 60.3178 173.426C59.5176 173.426 58.8903 173.601 58.4357 173.952C57.9812 174.302 57.6616 174.676 57.4769 175.074L55.886 174.506C56.1701 173.843 56.5489 173.327 57.0224 172.957C57.5006 172.583 58.0214 172.323 58.5849 172.176C59.1531 172.025 59.7118 171.949 60.261 171.949C60.6114 171.949 61.0138 171.991 61.4684 172.077C61.9277 172.157 62.3704 172.325 62.7965 172.581C63.2274 172.837 63.5849 173.223 63.869 173.739C64.1531 174.255 64.2951 174.946 64.2951 175.812V183H62.619V181.523H62.5337C62.4201 181.759 62.2307 182.013 61.9656 182.283C61.7004 182.553 61.3477 182.782 60.9073 182.972C60.467 183.161 59.9296 183.256 59.2951 183.256ZM59.5508 181.75C60.2137 181.75 60.7724 181.62 61.2269 181.359C61.6862 181.099 62.0318 180.763 62.2638 180.351C62.5006 179.939 62.619 179.506 62.619 179.051V177.517C62.5479 177.602 62.3917 177.68 62.1502 177.751C61.9135 177.818 61.6388 177.877 61.3263 177.929C61.0186 177.976 60.7179 178.019 60.4244 178.057C60.1355 178.09 59.9012 178.118 59.7212 178.142C59.2856 178.199 58.8784 178.291 58.4996 178.419C58.1256 178.542 57.8226 178.729 57.5906 178.98C57.3633 179.226 57.2496 179.562 57.2496 179.989C57.2496 180.571 57.4651 181.011 57.896 181.31C58.3316 181.603 58.8832 181.75 59.5508 181.75ZM67.3544 183V172.091H68.9737V173.739H69.0874C69.2862 173.199 69.6461 172.761 70.1669 172.425C70.6877 172.089 71.2749 171.92 71.9283 171.92C72.0514 171.92 72.2053 171.923 72.3899 171.928C72.5746 171.932 72.7143 171.939 72.8089 171.949V173.653C72.7521 173.639 72.6219 173.618 72.4183 173.589C72.2195 173.556 72.0088 173.54 71.7862 173.54C71.2559 173.54 70.7824 173.651 70.3658 173.874C69.9538 174.091 69.6271 174.394 69.3857 174.783C69.1489 175.166 69.0305 175.604 69.0305 176.097V183H67.3544ZM78.5831 183.227C77.674 183.227 76.8714 182.998 76.1754 182.538C75.4794 182.074 74.9349 181.421 74.5419 180.578C74.1489 179.731 73.9524 178.729 73.9524 177.574C73.9524 176.428 74.1489 175.434 74.5419 174.591C74.9349 173.748 75.4818 173.097 76.1825 172.638C76.8833 172.179 77.6929 171.949 78.6115 171.949C79.3217 171.949 79.8828 172.067 80.2947 172.304C80.7114 172.536 81.0286 172.801 81.2464 173.099C81.469 173.393 81.6418 173.634 81.7649 173.824H81.907V168.455H83.5831V183H81.9638V181.324H81.7649C81.6418 181.523 81.4666 181.774 81.2393 182.077C81.0121 182.375 80.6877 182.643 80.2663 182.879C79.8449 183.111 79.2839 183.227 78.5831 183.227ZM78.8104 181.722C79.4827 181.722 80.0509 181.546 80.5149 181.196C80.9789 180.841 81.3317 180.351 81.5732 179.726C81.8146 179.096 81.9354 178.369 81.9354 177.545C81.9354 176.731 81.817 176.018 81.5803 175.408C81.3435 174.792 80.9931 174.314 80.5291 173.973C80.0651 173.627 79.4922 173.455 78.8104 173.455C78.1001 173.455 77.5083 173.637 77.0348 174.001C76.5661 174.361 76.2133 174.851 75.9766 175.472C75.7446 176.087 75.6286 176.778 75.6286 177.545C75.6286 178.322 75.7469 179.027 75.9837 179.662C76.2251 180.292 76.5803 180.794 77.049 181.168C77.5225 181.537 78.1096 181.722 78.8104 181.722ZM104.272 168.455V183H102.567L94.6413 171.58H94.4993V183H92.7379V168.455H94.4425L102.397 179.903H102.539V168.455H104.272ZM114.444 178.54V172.091H116.12V183H114.444V181.153H114.331C114.075 181.707 113.677 182.179 113.137 182.567C112.598 182.95 111.916 183.142 111.092 183.142C110.41 183.142 109.804 182.993 109.274 182.695C108.743 182.392 108.327 181.937 108.024 181.331C107.721 180.72 107.569 179.951 107.569 179.023V172.091H109.245V178.909C109.245 179.705 109.468 180.339 109.913 180.812C110.363 181.286 110.936 181.523 111.632 181.523C112.048 181.523 112.472 181.416 112.903 181.203C113.339 180.99 113.703 180.663 113.997 180.223C114.295 179.783 114.444 179.222 114.444 178.54ZM119.19 183V172.091H120.81V173.795H120.952C121.179 173.213 121.546 172.761 122.053 172.439C122.559 172.112 123.168 171.949 123.878 171.949C124.598 171.949 125.196 172.112 125.675 172.439C126.158 172.761 126.534 173.213 126.804 173.795H126.918C127.197 173.232 127.616 172.785 128.175 172.453C128.733 172.117 129.403 171.949 130.185 171.949C131.16 171.949 131.958 172.254 132.578 172.865C133.198 173.471 133.509 174.416 133.509 175.699V183H131.832V175.699C131.832 174.894 131.612 174.319 131.172 173.973C130.732 173.627 130.213 173.455 129.616 173.455C128.849 173.455 128.255 173.687 127.834 174.151C127.412 174.61 127.202 175.192 127.202 175.898V183H125.497V175.528C125.497 174.908 125.296 174.409 124.893 174.03C124.491 173.646 123.973 173.455 123.338 173.455C122.902 173.455 122.495 173.571 122.116 173.803C121.742 174.035 121.439 174.357 121.207 174.768C120.98 175.176 120.866 175.647 120.866 176.182V183H119.19ZM136.8 183V168.455H138.477V173.824H138.619C138.742 173.634 138.912 173.393 139.13 173.099C139.353 172.801 139.67 172.536 140.082 172.304C140.498 172.067 141.062 171.949 141.772 171.949C142.691 171.949 143.5 172.179 144.201 172.638C144.902 173.097 145.449 173.748 145.842 174.591C146.235 175.434 146.431 176.428 146.431 177.574C146.431 178.729 146.235 179.731 145.842 180.578C145.449 181.421 144.904 182.074 144.208 182.538C143.512 182.998 142.71 183.227 141.8 183.227C141.1 183.227 140.539 183.111 140.117 182.879C139.696 182.643 139.371 182.375 139.144 182.077C138.917 181.774 138.742 181.523 138.619 181.324H138.42V183H136.8ZM138.448 177.545C138.448 178.369 138.569 179.096 138.81 179.726C139.052 180.351 139.405 180.841 139.869 181.196C140.333 181.546 140.901 181.722 141.573 181.722C142.274 181.722 142.859 181.537 143.327 181.168C143.801 180.794 144.156 180.292 144.393 179.662C144.634 179.027 144.755 178.322 144.755 177.545C144.755 176.778 144.637 176.087 144.4 175.472C144.168 174.851 143.815 174.361 143.342 174.001C142.873 173.637 142.283 173.455 141.573 173.455C140.891 173.455 140.318 173.627 139.854 173.973C139.39 174.314 139.04 174.792 138.803 175.408C138.567 176.018 138.448 176.731 138.448 177.545ZM153.569 183.227C152.518 183.227 151.611 182.995 150.849 182.531C150.091 182.062 149.506 181.409 149.094 180.571C148.687 179.728 148.484 178.748 148.484 177.631C148.484 176.513 148.687 175.528 149.094 174.676C149.506 173.819 150.079 173.152 150.813 172.673C151.552 172.19 152.414 171.949 153.398 171.949C153.967 171.949 154.528 172.044 155.082 172.233C155.636 172.422 156.14 172.73 156.594 173.156C157.049 173.578 157.411 174.136 157.681 174.832C157.951 175.528 158.086 176.385 158.086 177.403V178.114H149.677V176.665H156.381C156.381 176.049 156.258 175.5 156.012 175.017C155.771 174.534 155.425 174.153 154.975 173.874C154.53 173.594 154.004 173.455 153.398 173.455C152.731 173.455 152.153 173.62 151.665 173.952C151.183 174.278 150.811 174.705 150.55 175.23C150.29 175.756 150.16 176.319 150.16 176.92V177.886C150.16 178.71 150.302 179.409 150.586 179.982C150.875 180.55 151.275 180.983 151.786 181.281C152.298 181.575 152.892 181.722 153.569 181.722C154.009 181.722 154.407 181.66 154.762 181.537C155.122 181.409 155.432 181.22 155.692 180.969C155.953 180.713 156.154 180.396 156.296 180.017L157.915 180.472C157.745 181.021 157.459 181.504 157.056 181.92C156.654 182.332 156.156 182.654 155.565 182.886C154.973 183.114 154.308 183.227 153.569 183.227ZM160.636 183V172.091H162.255V173.739H162.369C162.567 173.199 162.927 172.761 163.448 172.425C163.969 172.089 164.556 171.92 165.21 171.92C165.333 171.92 165.487 171.923 165.671 171.928C165.856 171.932 165.996 171.939 166.09 171.949V173.653C166.033 173.639 165.903 173.618 165.7 173.589C165.501 173.556 165.29 173.54 165.067 173.54C164.537 173.54 164.064 173.651 163.647 173.874C163.235 174.091 162.908 174.394 162.667 174.783C162.43 175.166 162.312 175.604 162.312 176.097V183H160.636Z" fill="#C4C4C4"/>
<g filter="url(#filter0_d_545_2965)">
<path d="M42.0682 231V227.955L50.1477 220.034C50.9205 219.254 51.5644 218.561 52.0795 217.955C52.5947 217.348 52.9811 216.761 53.2386 216.193C53.4962 215.625 53.625 215.019 53.625 214.375C53.625 213.64 53.4583 213.011 53.125 212.489C52.7917 211.958 52.3333 211.549 51.75 211.261C51.1667 210.973 50.5038 210.83 49.7614 210.83C48.9962 210.83 48.3258 210.989 47.75 211.307C47.1742 211.617 46.7273 212.061 46.4091 212.636C46.0985 213.212 45.9432 213.898 45.9432 214.693H41.9318C41.9318 213.216 42.2689 211.932 42.9432 210.841C43.6174 209.75 44.5455 208.905 45.7273 208.307C46.9167 207.708 48.2803 207.409 49.8182 207.409C51.3788 207.409 52.75 207.701 53.9318 208.284C55.1136 208.867 56.0303 209.667 56.6818 210.682C57.3409 211.697 57.6705 212.856 57.6705 214.159C57.6705 215.03 57.5038 215.886 57.1705 216.727C56.8371 217.568 56.25 218.5 55.4091 219.523C54.5758 220.545 53.4053 221.784 51.8977 223.239L47.8864 227.318V227.477H58.0227V231H42.0682ZM61.9432 231V227.955L70.0227 220.034C70.7955 219.254 71.4394 218.561 71.9545 217.955C72.4697 217.348 72.8561 216.761 73.1136 216.193C73.3712 215.625 73.5 215.019 73.5 214.375C73.5 213.64 73.3333 213.011 73 212.489C72.6667 211.958 72.2083 211.549 71.625 211.261C71.0417 210.973 70.3788 210.83 69.6364 210.83C68.8712 210.83 68.2008 210.989 67.625 211.307C67.0492 211.617 66.6023 212.061 66.2841 212.636C65.9735 213.212 65.8182 213.898 65.8182 214.693H61.8068C61.8068 213.216 62.1439 211.932 62.8182 210.841C63.4924 209.75 64.4205 208.905 65.6023 208.307C66.7917 207.708 68.1553 207.409 69.6932 207.409C71.2538 207.409 72.625 207.701 73.8068 208.284C74.9886 208.867 75.9053 209.667 76.5568 210.682C77.2159 211.697 77.5455 212.856 77.5455 214.159C77.5455 215.03 77.3788 215.886 77.0455 216.727C76.7121 217.568 76.125 218.5 75.2841 219.523C74.4508 220.545 73.2803 221.784 71.7727 223.239L67.7614 227.318V227.477H77.8977V231H61.9432ZM80.8977 226.682V223.33L90.7727 207.727H93.5682V212.5H91.8636L85.2159 223.034V223.216H99V226.682H80.8977ZM92 231V225.659L92.0455 224.159V207.727H96.0227V231H92ZM110.983 231.318C109.347 231.318 107.892 231.038 106.619 230.477C105.354 229.917 104.354 229.136 103.619 228.136C102.884 227.136 102.494 225.981 102.449 224.67H106.722C106.759 225.299 106.968 225.848 107.347 226.318C107.725 226.78 108.229 227.14 108.858 227.398C109.487 227.655 110.191 227.784 110.972 227.784C111.805 227.784 112.544 227.64 113.188 227.352C113.831 227.057 114.335 226.648 114.699 226.125C115.063 225.602 115.241 225 115.233 224.318C115.241 223.614 115.059 222.992 114.688 222.455C114.316 221.917 113.778 221.496 113.074 221.193C112.377 220.89 111.536 220.739 110.551 220.739H108.494V217.489H110.551C111.362 217.489 112.07 217.348 112.676 217.068C113.29 216.788 113.771 216.394 114.119 215.886C114.468 215.371 114.638 214.777 114.631 214.102C114.638 213.443 114.491 212.871 114.188 212.386C113.892 211.894 113.472 211.511 112.926 211.239C112.388 210.966 111.756 210.83 111.028 210.83C110.316 210.83 109.657 210.958 109.051 211.216C108.445 211.473 107.956 211.841 107.585 212.318C107.214 212.788 107.017 213.348 106.994 214H102.938C102.968 212.697 103.343 211.553 104.062 210.568C104.79 209.576 105.759 208.803 106.972 208.25C108.184 207.689 109.544 207.409 111.051 207.409C112.604 207.409 113.953 207.701 115.097 208.284C116.248 208.86 117.138 209.636 117.767 210.614C118.396 211.591 118.71 212.67 118.71 213.852C118.718 215.163 118.331 216.261 117.551 217.148C116.778 218.034 115.763 218.614 114.506 218.886V219.068C116.142 219.295 117.396 219.902 118.267 220.886C119.146 221.864 119.581 223.08 119.574 224.534C119.574 225.837 119.203 227.004 118.46 228.034C117.725 229.057 116.71 229.86 115.415 230.443C114.127 231.027 112.65 231.318 110.983 231.318ZM139.935 231.318C138.821 231.311 137.734 231.117 136.673 230.739C135.613 230.352 134.658 229.727 133.81 228.864C132.961 227.992 132.287 226.837 131.787 225.398C131.287 223.951 131.041 222.159 131.048 220.023C131.048 218.03 131.26 216.254 131.685 214.693C132.109 213.133 132.719 211.814 133.514 210.739C134.31 209.655 135.268 208.83 136.389 208.261C137.518 207.693 138.779 207.409 140.173 207.409C141.635 207.409 142.931 207.697 144.06 208.273C145.196 208.848 146.113 209.636 146.81 210.636C147.507 211.629 147.938 212.75 148.105 214H143.957C143.745 213.106 143.31 212.394 142.651 211.864C141.999 211.326 141.173 211.057 140.173 211.057C138.56 211.057 137.317 211.758 136.446 213.159C135.582 214.561 135.147 216.485 135.139 218.932H135.298C135.67 218.265 136.151 217.693 136.741 217.216C137.332 216.739 137.999 216.371 138.741 216.114C139.491 215.848 140.283 215.716 141.116 215.716C142.48 215.716 143.704 216.042 144.787 216.693C145.878 217.345 146.741 218.242 147.378 219.386C148.014 220.523 148.329 221.826 148.321 223.295C148.329 224.826 147.98 226.201 147.276 227.42C146.571 228.633 145.59 229.587 144.332 230.284C143.075 230.981 141.609 231.326 139.935 231.318ZM139.912 227.909C140.738 227.909 141.476 227.708 142.128 227.307C142.779 226.905 143.295 226.364 143.673 225.682C144.052 225 144.238 224.235 144.23 223.386C144.238 222.553 144.056 221.799 143.685 221.125C143.321 220.451 142.817 219.917 142.173 219.523C141.529 219.129 140.795 218.932 139.969 218.932C139.355 218.932 138.783 219.049 138.253 219.284C137.723 219.519 137.26 219.845 136.866 220.261C136.473 220.67 136.162 221.148 135.935 221.693C135.715 222.231 135.601 222.807 135.594 223.42C135.601 224.231 135.791 224.977 136.162 225.659C136.533 226.341 137.045 226.886 137.696 227.295C138.348 227.705 139.086 227.909 139.912 227.909ZM160.685 231.318C159.571 231.311 158.484 231.117 157.423 230.739C156.363 230.352 155.408 229.727 154.56 228.864C153.711 227.992 153.037 226.837 152.537 225.398C152.037 223.951 151.791 222.159 151.798 220.023C151.798 218.03 152.01 216.254 152.435 214.693C152.859 213.133 153.469 211.814 154.264 210.739C155.06 209.655 156.018 208.83 157.139 208.261C158.268 207.693 159.529 207.409 160.923 207.409C162.385 207.409 163.681 207.697 164.81 208.273C165.946 208.848 166.863 209.636 167.56 210.636C168.257 211.629 168.688 212.75 168.855 214H164.707C164.495 213.106 164.06 212.394 163.401 211.864C162.749 211.326 161.923 211.057 160.923 211.057C159.31 211.057 158.067 211.758 157.196 213.159C156.332 214.561 155.897 216.485 155.889 218.932H156.048C156.42 218.265 156.901 217.693 157.491 217.216C158.082 216.739 158.749 216.371 159.491 216.114C160.241 215.848 161.033 215.716 161.866 215.716C163.23 215.716 164.454 216.042 165.537 216.693C166.628 217.345 167.491 218.242 168.128 219.386C168.764 220.523 169.079 221.826 169.071 223.295C169.079 224.826 168.73 226.201 168.026 227.42C167.321 228.633 166.34 229.587 165.082 230.284C163.825 230.981 162.359 231.326 160.685 231.318ZM160.662 227.909C161.488 227.909 162.226 227.708 162.878 227.307C163.529 226.905 164.045 226.364 164.423 225.682C164.802 225 164.988 224.235 164.98 223.386C164.988 222.553 164.806 221.799 164.435 221.125C164.071 220.451 163.567 219.917 162.923 219.523C162.279 219.129 161.545 218.932 160.719 218.932C160.105 218.932 159.533 219.049 159.003 219.284C158.473 219.519 158.01 219.845 157.616 220.261C157.223 220.67 156.912 221.148 156.685 221.693C156.465 222.231 156.351 222.807 156.344 223.42C156.351 224.231 156.541 224.977 156.912 225.659C157.283 226.341 157.795 226.886 158.446 227.295C159.098 227.705 159.836 227.909 160.662 227.909ZM181.003 231.318C179.488 231.318 178.132 231.034 176.935 230.466C175.738 229.89 174.787 229.102 174.082 228.102C173.385 227.102 173.014 225.958 172.969 224.67H177.06C177.135 225.625 177.548 226.405 178.298 227.011C179.048 227.61 179.95 227.909 181.003 227.909C181.829 227.909 182.563 227.72 183.207 227.341C183.851 226.962 184.359 226.436 184.73 225.761C185.101 225.087 185.283 224.318 185.276 223.455C185.283 222.576 185.098 221.795 184.719 221.114C184.34 220.432 183.821 219.898 183.162 219.511C182.503 219.117 181.745 218.92 180.889 218.92C180.192 218.913 179.507 219.042 178.832 219.307C178.158 219.572 177.624 219.92 177.23 220.352L173.423 219.727L174.639 207.727H188.139V211.25H178.128L177.457 217.42H177.594C178.026 216.913 178.635 216.492 179.423 216.159C180.211 215.818 181.075 215.648 182.014 215.648C183.423 215.648 184.681 215.981 185.787 216.648C186.893 217.307 187.764 218.216 188.401 219.375C189.037 220.534 189.355 221.86 189.355 223.352C189.355 224.89 188.999 226.261 188.287 227.466C187.582 228.663 186.601 229.606 185.344 230.295C184.094 230.977 182.647 231.318 181.003 231.318ZM193.162 231V227.955L201.241 220.034C202.014 219.254 202.658 218.561 203.173 217.955C203.688 217.348 204.075 216.761 204.332 216.193C204.59 215.625 204.719 215.019 204.719 214.375C204.719 213.64 204.552 213.011 204.219 212.489C203.885 211.958 203.427 211.549 202.844 211.261C202.26 210.973 201.598 210.83 200.855 210.83C200.09 210.83 199.42 210.989 198.844 211.307C198.268 211.617 197.821 212.061 197.503 212.636C197.192 213.212 197.037 213.898 197.037 214.693H193.026C193.026 213.216 193.363 211.932 194.037 210.841C194.711 209.75 195.639 208.905 196.821 208.307C198.01 207.708 199.374 207.409 200.912 207.409C202.473 207.409 203.844 207.701 205.026 208.284C206.207 208.867 207.124 209.667 207.776 210.682C208.435 211.697 208.764 212.856 208.764 214.159C208.764 215.03 208.598 215.886 208.264 216.727C207.931 217.568 207.344 218.5 206.503 219.523C205.67 220.545 204.499 221.784 202.991 223.239L198.98 227.318V227.477H209.116V231H193.162ZM229.054 207.409C230.168 207.417 231.251 207.614 232.304 208C233.365 208.379 234.319 209 235.168 209.864C236.016 210.72 236.69 211.867 237.19 213.307C237.69 214.746 237.94 216.527 237.94 218.648C237.948 220.648 237.736 222.436 237.304 224.011C236.88 225.58 236.27 226.905 235.474 227.989C234.679 229.072 233.721 229.898 232.599 230.466C231.478 231.034 230.217 231.318 228.815 231.318C227.346 231.318 226.043 231.03 224.906 230.455C223.777 229.879 222.865 229.091 222.168 228.091C221.471 227.091 221.043 225.947 220.884 224.659H225.031C225.243 225.583 225.675 226.318 226.327 226.864C226.986 227.402 227.815 227.67 228.815 227.67C230.429 227.67 231.671 226.97 232.543 225.568C233.414 224.167 233.849 222.22 233.849 219.727H233.69C233.319 220.394 232.838 220.97 232.247 221.455C231.656 221.932 230.986 222.299 230.236 222.557C229.493 222.814 228.705 222.943 227.872 222.943C226.509 222.943 225.281 222.617 224.19 221.966C223.107 221.314 222.247 220.42 221.611 219.284C220.982 218.148 220.664 216.848 220.656 215.386C220.656 213.871 221.005 212.511 221.702 211.307C222.406 210.095 223.387 209.14 224.645 208.443C225.902 207.739 227.372 207.394 229.054 207.409ZM229.065 210.818C228.247 210.818 227.509 211.019 226.849 211.42C226.198 211.814 225.683 212.352 225.304 213.034C224.933 213.708 224.747 214.462 224.747 215.295C224.755 216.121 224.94 216.871 225.304 217.545C225.675 218.22 226.179 218.754 226.815 219.148C227.459 219.542 228.194 219.739 229.02 219.739C229.634 219.739 230.205 219.621 230.736 219.386C231.266 219.152 231.728 218.826 232.122 218.409C232.524 217.985 232.834 217.504 233.054 216.966C233.281 216.428 233.391 215.86 233.384 215.261C233.384 214.466 233.194 213.731 232.815 213.057C232.444 212.383 231.933 211.841 231.281 211.432C230.637 211.023 229.899 210.818 229.065 210.818ZM241.304 226.682V223.33L251.179 207.727H253.974V212.5H252.27L245.622 223.034V223.216H259.406V226.682H241.304ZM252.406 231V225.659L252.452 224.159V207.727H256.429V231H252.406ZM271.389 231.318C269.753 231.318 268.298 231.038 267.026 230.477C265.76 229.917 264.76 229.136 264.026 228.136C263.291 227.136 262.901 225.981 262.855 224.67H267.128C267.166 225.299 267.374 225.848 267.753 226.318C268.132 226.78 268.635 227.14 269.264 227.398C269.893 227.655 270.598 227.784 271.378 227.784C272.211 227.784 272.95 227.64 273.594 227.352C274.238 227.057 274.741 226.648 275.105 226.125C275.469 225.602 275.647 225 275.639 224.318C275.647 223.614 275.465 222.992 275.094 222.455C274.723 221.917 274.185 221.496 273.48 221.193C272.783 220.89 271.942 220.739 270.957 220.739H268.901V217.489H270.957C271.768 217.489 272.476 217.348 273.082 217.068C273.696 216.788 274.177 216.394 274.526 215.886C274.874 215.371 275.045 214.777 275.037 214.102C275.045 213.443 274.897 212.871 274.594 212.386C274.298 211.894 273.878 211.511 273.332 211.239C272.795 210.966 272.162 210.83 271.435 210.83C270.723 210.83 270.063 210.958 269.457 211.216C268.851 211.473 268.363 211.841 267.991 212.318C267.62 212.788 267.423 213.348 267.401 214H263.344C263.374 212.697 263.749 211.553 264.469 210.568C265.196 209.576 266.166 208.803 267.378 208.25C268.59 207.689 269.95 207.409 271.457 207.409C273.01 207.409 274.359 207.701 275.503 208.284C276.654 208.86 277.545 209.636 278.173 210.614C278.802 211.591 279.116 212.67 279.116 213.852C279.124 215.163 278.738 216.261 277.957 217.148C277.185 218.034 276.17 218.614 274.912 218.886V219.068C276.548 219.295 277.802 219.902 278.673 220.886C279.552 221.864 279.988 223.08 279.98 224.534C279.98 225.837 279.609 227.004 278.866 228.034C278.132 229.057 277.116 229.86 275.821 230.443C274.533 231.027 273.056 231.318 271.389 231.318ZM291.972 231.318C290.456 231.318 289.1 231.034 287.903 230.466C286.706 229.89 285.756 229.102 285.051 228.102C284.354 227.102 283.983 225.958 283.938 224.67H288.028C288.104 225.625 288.517 226.405 289.267 227.011C290.017 227.61 290.919 227.909 291.972 227.909C292.797 227.909 293.532 227.72 294.176 227.341C294.82 226.962 295.328 226.436 295.699 225.761C296.07 225.087 296.252 224.318 296.244 223.455C296.252 222.576 296.066 221.795 295.688 221.114C295.309 220.432 294.79 219.898 294.131 219.511C293.472 219.117 292.714 218.92 291.858 218.92C291.161 218.913 290.475 219.042 289.801 219.307C289.127 219.572 288.593 219.92 288.199 220.352L284.392 219.727L285.608 207.727H299.108V211.25H289.097L288.426 217.42H288.562C288.994 216.913 289.604 216.492 290.392 216.159C291.18 215.818 292.044 215.648 292.983 215.648C294.392 215.648 295.65 215.981 296.756 216.648C297.862 217.307 298.733 218.216 299.369 219.375C300.006 220.534 300.324 221.86 300.324 223.352C300.324 224.89 299.968 226.261 299.256 227.466C298.551 228.663 297.57 229.606 296.312 230.295C295.062 230.977 293.616 231.318 291.972 231.318ZM320.148 207.409C321.261 207.417 322.345 207.614 323.398 208C324.458 208.379 325.413 209 326.261 209.864C327.11 210.72 327.784 211.867 328.284 213.307C328.784 214.746 329.034 216.527 329.034 218.648C329.042 220.648 328.83 222.436 328.398 224.011C327.973 225.58 327.364 226.905 326.568 227.989C325.773 229.072 324.814 229.898 323.693 230.466C322.572 231.034 321.311 231.318 319.909 231.318C318.439 231.318 317.136 231.03 316 230.455C314.871 229.879 313.958 229.091 313.261 228.091C312.564 227.091 312.136 225.947 311.977 224.659H316.125C316.337 225.583 316.769 226.318 317.42 226.864C318.08 227.402 318.909 227.67 319.909 227.67C321.523 227.67 322.765 226.97 323.636 225.568C324.508 224.167 324.943 222.22 324.943 219.727H324.784C324.413 220.394 323.932 220.97 323.341 221.455C322.75 221.932 322.08 222.299 321.33 222.557C320.587 222.814 319.799 222.943 318.966 222.943C317.602 222.943 316.375 222.617 315.284 221.966C314.201 221.314 313.341 220.42 312.705 219.284C312.076 218.148 311.758 216.848 311.75 215.386C311.75 213.871 312.098 212.511 312.795 211.307C313.5 210.095 314.481 209.14 315.739 208.443C316.996 207.739 318.466 207.394 320.148 207.409ZM320.159 210.818C319.341 210.818 318.602 211.019 317.943 211.42C317.292 211.814 316.777 212.352 316.398 213.034C316.027 213.708 315.841 214.462 315.841 215.295C315.848 216.121 316.034 216.871 316.398 217.545C316.769 218.22 317.273 218.754 317.909 219.148C318.553 219.542 319.288 219.739 320.114 219.739C320.727 219.739 321.299 219.621 321.83 219.386C322.36 219.152 322.822 218.826 323.216 218.409C323.617 217.985 323.928 217.504 324.148 216.966C324.375 216.428 324.485 215.86 324.477 215.261C324.477 214.466 324.288 213.731 323.909 213.057C323.538 212.383 323.027 211.841 322.375 211.432C321.731 211.023 320.992 210.818 320.159 210.818ZM340.898 207.409C342.011 207.417 343.095 207.614 344.148 208C345.208 208.379 346.163 209 347.011 209.864C347.86 210.72 348.534 211.867 349.034 213.307C349.534 214.746 349.784 216.527 349.784 218.648C349.792 220.648 349.58 222.436 349.148 224.011C348.723 225.58 348.114 226.905 347.318 227.989C346.523 229.072 345.564 229.898 344.443 230.466C343.322 231.034 342.061 231.318 340.659 231.318C339.189 231.318 337.886 231.03 336.75 230.455C335.621 229.879 334.708 229.091 334.011 228.091C333.314 227.091 332.886 225.947 332.727 224.659H336.875C337.087 225.583 337.519 226.318 338.17 226.864C338.83 227.402 339.659 227.67 340.659 227.67C342.273 227.67 343.515 226.97 344.386 225.568C345.258 224.167 345.693 222.22 345.693 219.727H345.534C345.163 220.394 344.682 220.97 344.091 221.455C343.5 221.932 342.83 222.299 342.08 222.557C341.337 222.814 340.549 222.943 339.716 222.943C338.352 222.943 337.125 222.617 336.034 221.966C334.951 221.314 334.091 220.42 333.455 219.284C332.826 218.148 332.508 216.848 332.5 215.386C332.5 213.871 332.848 212.511 333.545 211.307C334.25 210.095 335.231 209.14 336.489 208.443C337.746 207.739 339.216 207.394 340.898 207.409ZM340.909 210.818C340.091 210.818 339.352 211.019 338.693 211.42C338.042 211.814 337.527 212.352 337.148 213.034C336.777 213.708 336.591 214.462 336.591 215.295C336.598 216.121 336.784 216.871 337.148 217.545C337.519 218.22 338.023 218.754 338.659 219.148C339.303 219.542 340.038 219.739 340.864 219.739C341.477 219.739 342.049 219.621 342.58 219.386C343.11 219.152 343.572 218.826 343.966 218.409C344.367 217.985 344.678 217.504 344.898 216.966C345.125 216.428 345.235 215.86 345.227 215.261C345.227 214.466 345.038 213.731 344.659 213.057C344.288 212.383 343.777 211.841 343.125 211.432C342.481 211.023 341.742 210.818 340.909 210.818ZM361.841 231.318C360.152 231.318 358.652 231.034 357.341 230.466C356.038 229.898 355.015 229.121 354.273 228.136C353.538 227.144 353.174 226.019 353.182 224.761C353.174 223.784 353.386 222.886 353.818 222.068C354.25 221.25 354.833 220.568 355.568 220.023C356.311 219.47 357.136 219.117 358.045 218.966V218.807C356.848 218.542 355.879 217.932 355.136 216.977C354.402 216.015 354.038 214.905 354.045 213.648C354.038 212.451 354.371 211.383 355.045 210.443C355.72 209.504 356.644 208.765 357.818 208.227C358.992 207.682 360.333 207.409 361.841 207.409C363.333 207.409 364.663 207.682 365.83 208.227C367.004 208.765 367.928 209.504 368.602 210.443C369.284 211.383 369.625 212.451 369.625 213.648C369.625 214.905 369.25 216.015 368.5 216.977C367.758 217.932 366.799 218.542 365.625 218.807V218.966C366.534 219.117 367.352 219.47 368.08 220.023C368.814 220.568 369.398 221.25 369.83 222.068C370.269 222.886 370.489 223.784 370.489 224.761C370.489 226.019 370.117 227.144 369.375 228.136C368.633 229.121 367.61 229.898 366.307 230.466C365.011 231.034 363.523 231.318 361.841 231.318ZM361.841 228.068C362.712 228.068 363.47 227.92 364.114 227.625C364.758 227.322 365.258 226.898 365.614 226.352C365.97 225.807 366.152 225.178 366.159 224.466C366.152 223.723 365.958 223.068 365.58 222.5C365.208 221.924 364.697 221.473 364.045 221.148C363.402 220.822 362.667 220.659 361.841 220.659C361.008 220.659 360.265 220.822 359.614 221.148C358.962 221.473 358.447 221.924 358.068 222.5C357.697 223.068 357.515 223.723 357.523 224.466C357.515 225.178 357.689 225.807 358.045 226.352C358.402 226.89 358.902 227.311 359.545 227.614C360.197 227.917 360.962 228.068 361.841 228.068ZM361.841 217.466C362.553 217.466 363.182 217.322 363.727 217.034C364.28 216.746 364.716 216.345 365.034 215.83C365.352 215.314 365.515 214.72 365.523 214.045C365.515 213.379 365.356 212.795 365.045 212.295C364.735 211.788 364.303 211.398 363.75 211.125C363.197 210.845 362.561 210.705 361.841 210.705C361.106 210.705 360.458 210.845 359.898 211.125C359.345 211.398 358.913 211.788 358.602 212.295C358.299 212.795 358.152 213.379 358.159 214.045C358.152 214.72 358.303 215.314 358.614 215.83C358.932 216.337 359.367 216.739 359.92 217.034C360.481 217.322 361.121 217.466 361.841 217.466ZM374.224 231V227.955L382.304 220.034C383.077 219.254 383.721 218.561 384.236 217.955C384.751 217.348 385.137 216.761 385.395 216.193C385.652 215.625 385.781 215.019 385.781 214.375C385.781 213.64 385.615 213.011 385.281 212.489C384.948 211.958 384.49 211.549 383.906 211.261C383.323 210.973 382.66 210.83 381.918 210.83C381.152 210.83 380.482 210.989 379.906 211.307C379.33 211.617 378.884 212.061 378.565 212.636C378.255 213.212 378.099 213.898 378.099 214.693H374.088C374.088 213.216 374.425 211.932 375.099 210.841C375.774 209.75 376.702 208.905 377.884 208.307C379.073 207.708 380.437 207.409 381.974 207.409C383.535 207.409 384.906 207.701 386.088 208.284C387.27 208.867 388.187 209.667 388.838 210.682C389.497 211.697 389.827 212.856 389.827 214.159C389.827 215.03 389.66 215.886 389.327 216.727C388.993 217.568 388.406 218.5 387.565 219.523C386.732 220.545 385.562 221.784 384.054 223.239L380.043 227.318V227.477H390.179V231H374.224Z" fill="white"/>
</g>
<path d="M41.9176 45.5455H45.1136L50.6705 59.1136H50.875L56.4318 45.5455H59.6278V63H57.1222V50.3693H56.9602L51.8125 62.9744H49.733L44.5852 50.3608H44.4233V63H41.9176V45.5455ZM66.0902 45.5455V63H63.4567V45.5455H66.0902ZM84.4226 51.2216H81.7635C81.6612 50.6534 81.4709 50.1534 81.1925 49.7216C80.9141 49.2898 80.5732 48.9233 80.1697 48.6222C79.7663 48.321 79.3146 48.0937 78.8146 47.9403C78.3203 47.7869 77.7947 47.7102 77.2379 47.7102C76.2322 47.7102 75.3317 47.9631 74.5362 48.4688C73.7464 48.9744 73.1214 49.7159 72.6612 50.6932C72.2067 51.6705 71.9794 52.8636 71.9794 54.2727C71.9794 55.6932 72.2067 56.892 72.6612 57.8693C73.1214 58.8466 73.7493 59.5852 74.5447 60.0852C75.3402 60.5852 76.2351 60.8352 77.2294 60.8352C77.7805 60.8352 78.3033 60.7614 78.7976 60.6136C79.2976 60.4602 79.7493 60.2358 80.1527 59.9403C80.5561 59.6449 80.897 59.2841 81.1754 58.858C81.4595 58.4261 81.6555 57.9318 81.7635 57.375L84.4226 57.3835C84.2805 58.2415 84.005 59.0312 83.5959 59.7528C83.1925 60.4688 82.6726 61.0881 82.0362 61.6108C81.4055 62.1278 80.6839 62.5284 79.8714 62.8125C79.0589 63.0966 78.1726 63.2386 77.2124 63.2386C75.701 63.2386 74.3544 62.8807 73.1726 62.1648C71.9908 61.4432 71.0589 60.4119 70.3771 59.071C69.701 57.7301 69.3629 56.1307 69.3629 54.2727C69.3629 52.4091 69.7038 50.8097 70.3857 49.4744C71.0675 48.1335 71.9993 47.1051 73.1811 46.3892C74.3629 45.6676 75.7067 45.3068 77.2124 45.3068C78.1385 45.3068 79.0021 45.4403 79.8033 45.7074C80.6101 45.9687 81.3345 46.3551 81.9766 46.8665C82.6186 47.3722 83.1499 47.9915 83.5703 48.7244C83.9908 49.4517 84.2749 50.2841 84.4226 51.2216ZM87.5739 63V45.5455H90.2074V53.1307H98.9091V45.5455H101.551V63H98.9091V55.3892H90.2074V63H87.5739ZM106.861 63H104.065L110.347 45.5455H113.389L119.67 63H116.875L111.94 48.7159H111.804L106.861 63ZM107.33 56.1648H116.398V58.3807H107.33V56.1648ZM122.191 63V45.5455H133.134V47.8125H124.825V53.1307H132.563V55.3892H124.825V60.733H133.237V63H122.191ZM136.652 63V45.5455H139.286V60.733H147.195V63H136.652ZM158.025 63H155.229L161.511 45.5455H164.553L170.835 63H168.039L163.104 48.7159H162.968L158.025 63ZM158.494 56.1648H167.562V58.3807H158.494V56.1648ZM187.443 45.5455V63H185.023L176.151 50.1989H175.989V63H173.355V45.5455H175.793L184.673 58.3636H184.835V45.5455H187.443ZM196.935 63H191.285V45.5455H197.114C198.825 45.5455 200.293 45.8949 201.521 46.5938C202.748 47.2869 203.688 48.2841 204.342 49.5852C205.001 50.8807 205.33 52.4347 205.33 54.2472C205.33 56.0653 204.998 57.6278 204.333 58.9347C203.674 60.2415 202.719 61.2472 201.469 61.9517C200.219 62.6506 198.708 63 196.935 63ZM193.918 60.6989H196.79C198.12 60.6989 199.225 60.4489 200.106 59.9489C200.987 59.4432 201.646 58.7131 202.083 57.7585C202.521 56.7983 202.739 55.6278 202.739 54.2472C202.739 52.8778 202.521 51.7159 202.083 50.7614C201.651 49.8068 201.006 49.0824 200.148 48.5881C199.29 48.0937 198.225 47.8466 196.952 47.8466H193.918V60.6989ZM208.605 63V45.5455H214.827C216.179 45.5455 217.301 45.7784 218.193 46.2443C219.091 46.7102 219.761 47.3551 220.205 48.179C220.648 48.9972 220.869 49.9432 220.869 51.017C220.869 52.0852 220.645 53.0256 220.196 53.8381C219.753 54.6449 219.082 55.2727 218.185 55.7216C217.293 56.1705 216.17 56.3949 214.818 56.3949H210.105V54.1278H214.58C215.432 54.1278 216.125 54.0057 216.659 53.7614C217.199 53.517 217.594 53.1619 217.844 52.696C218.094 52.2301 218.219 51.6705 218.219 51.017C218.219 50.358 218.091 49.7869 217.835 49.304C217.585 48.821 217.19 48.4517 216.651 48.196C216.116 47.9347 215.415 47.804 214.545 47.804H211.239V63H208.605ZM217.222 55.125L221.534 63H218.534L214.307 55.125H217.222ZM224.074 63V45.5455H235.017V47.8125H226.707V53.1307H234.446V55.3892H226.707V60.733H235.119V63H224.074ZM249.759 45.5455H252.401V57.0256C252.401 58.2472 252.114 59.3295 251.54 60.2727C250.967 61.2102 250.16 61.9489 249.12 62.4886C248.08 63.0227 246.862 63.2898 245.464 63.2898C244.072 63.2898 242.856 63.0227 241.816 62.4886C240.776 61.9489 239.969 61.2102 239.396 60.2727C238.822 59.3295 238.535 58.2472 238.535 57.0256V45.5455H241.168V56.8125C241.168 57.6023 241.342 58.304 241.688 58.9176C242.04 59.5312 242.538 60.0142 243.18 60.3665C243.822 60.7131 244.583 60.8864 245.464 60.8864C246.35 60.8864 247.114 60.7131 247.756 60.3665C248.404 60.0142 248.898 59.5312 249.239 58.9176C249.586 58.304 249.759 57.6023 249.759 56.8125V45.5455ZM255.778 63V61.2443L264.957 47.8125H255.702V45.5455H268.179V47.3011L259 60.733H268.256V63H255.778ZM271.107 63V61.2443L280.286 47.8125H271.03V45.5455H283.507V47.3011L274.328 60.733H283.584V63H271.107ZM288.361 63H285.565L291.847 45.5455H294.889L301.17 63H298.375L293.44 48.7159H293.304L288.361 63ZM288.83 56.1648H297.898V58.3807H288.83V56.1648Z" fill="white"/>
<path d="M46.108 317.227C45.0568 317.227 44.1501 316.995 43.3878 316.531C42.6302 316.062 42.0455 315.409 41.6335 314.571C41.2263 313.728 41.0227 312.748 41.0227 311.631C41.0227 310.513 41.2263 309.528 41.6335 308.676C42.0455 307.819 42.6184 307.152 43.3523 306.673C44.0909 306.19 44.9527 305.949 45.9375 305.949C46.5057 305.949 47.0668 306.044 47.6207 306.233C48.1747 306.422 48.679 306.73 49.1335 307.156C49.5881 307.578 49.9503 308.136 50.2202 308.832C50.4901 309.528 50.625 310.385 50.625 311.403V312.114H42.2159V310.665H48.9205C48.9205 310.049 48.7973 309.5 48.5511 309.017C48.3097 308.534 47.964 308.153 47.5142 307.874C47.0691 307.594 46.5436 307.455 45.9375 307.455C45.2699 307.455 44.6922 307.62 44.2045 307.952C43.7216 308.278 43.3499 308.705 43.0895 309.23C42.8291 309.756 42.6989 310.319 42.6989 310.92V311.886C42.6989 312.71 42.8409 313.409 43.125 313.982C43.4138 314.55 43.8139 314.983 44.3253 315.281C44.8366 315.575 45.4309 315.722 46.108 315.722C46.5483 315.722 46.946 315.66 47.3011 315.537C47.661 315.409 47.9711 315.22 48.2315 314.969C48.492 314.713 48.6932 314.396 48.8352 314.017L50.4545 314.472C50.2841 315.021 49.9976 315.504 49.5952 315.92C49.1927 316.332 48.6955 316.654 48.1037 316.886C47.5118 317.114 46.8466 317.227 46.108 317.227ZM54.1317 306.091L56.7454 310.551L59.359 306.091H61.2908L57.7681 311.545L61.2908 317H59.359L56.7454 312.767L54.1317 317H52.1999L55.6658 311.545L52.1999 306.091H54.1317ZM63.6825 321.091V306.091H65.3018V307.824H65.5007C65.6238 307.634 65.7943 307.393 66.0121 307.099C66.2346 306.801 66.5518 306.536 66.9638 306.304C67.3804 306.067 67.9439 305.949 68.6541 305.949C69.5727 305.949 70.3823 306.179 71.0831 306.638C71.7839 307.097 72.3307 307.748 72.7237 308.591C73.1167 309.434 73.3132 310.428 73.3132 311.574C73.3132 312.729 73.1167 313.731 72.7237 314.578C72.3307 315.421 71.7862 316.074 71.0902 316.538C70.3942 316.998 69.5916 317.227 68.6825 317.227C67.9818 317.227 67.4207 317.111 66.9993 316.879C66.5779 316.643 66.2536 316.375 66.0263 316.077C65.799 315.774 65.6238 315.523 65.5007 315.324H65.3587V321.091H63.6825ZM65.3303 311.545C65.3303 312.369 65.451 313.096 65.6925 313.726C65.9339 314.351 66.2867 314.841 66.7507 315.196C67.2147 315.546 67.7829 315.722 68.4553 315.722C69.156 315.722 69.7408 315.537 70.2095 315.168C70.683 314.794 71.0381 314.292 71.2749 313.662C71.5163 313.027 71.6371 312.322 71.6371 311.545C71.6371 310.778 71.5187 310.087 71.282 309.472C71.05 308.851 70.6972 308.361 70.2237 308.001C69.755 307.637 69.1655 307.455 68.4553 307.455C67.7734 307.455 67.2005 307.627 66.7365 307.973C66.2725 308.314 65.9221 308.792 65.6854 309.408C65.4486 310.018 65.3303 310.731 65.3303 311.545ZM75.87 317V306.091H77.5462V317H75.87ZM76.7223 304.273C76.3956 304.273 76.1139 304.161 75.8771 303.939C75.6451 303.716 75.5291 303.449 75.5291 303.136C75.5291 302.824 75.6451 302.556 75.8771 302.334C76.1139 302.111 76.3956 302 76.7223 302C77.049 302 77.3284 302.111 77.5604 302.334C77.7971 302.556 77.9155 302.824 77.9155 303.136C77.9155 303.449 77.7971 303.716 77.5604 303.939C77.3284 304.161 77.049 304.273 76.7223 304.273ZM80.6161 317V306.091H82.2354V307.739H82.3491C82.5479 307.199 82.9078 306.761 83.4286 306.425C83.9495 306.089 84.5366 305.92 85.19 305.92C85.3131 305.92 85.467 305.923 85.6516 305.928C85.8363 305.932 85.976 305.939 86.0707 305.949V307.653C86.0138 307.639 85.8836 307.618 85.68 307.589C85.4812 307.556 85.2705 307.54 85.0479 307.54C84.5176 307.54 84.0442 307.651 83.6275 307.874C83.2156 308.091 82.8888 308.394 82.6474 308.783C82.4106 309.166 82.2923 309.604 82.2923 310.097V317H80.6161ZM89.4691 321.091C89.185 321.091 88.9317 321.067 88.7092 321.02C88.4866 320.977 88.3327 320.935 88.2475 320.892L88.6737 319.415C89.0808 319.519 89.4407 319.557 89.7532 319.528C90.0657 319.5 90.3427 319.36 90.5842 319.109C90.8304 318.863 91.0553 318.463 91.2589 317.909L91.5714 317.057L87.5373 306.091H89.3555L92.3668 314.784H92.4805L95.4918 306.091H97.31L92.6793 318.591C92.471 319.154 92.2129 319.621 91.9052 319.99C91.5974 320.364 91.2399 320.641 90.8327 320.821C90.4303 321.001 89.9757 321.091 89.4691 321.091ZM109.863 317H105.375V302.455H110.062C111.473 302.455 112.681 302.746 113.684 303.328C114.688 303.906 115.458 304.737 115.993 305.821C116.528 306.901 116.795 308.193 116.795 309.699C116.795 311.214 116.525 312.518 115.985 313.612C115.446 314.701 114.66 315.539 113.627 316.126C112.595 316.709 111.341 317 109.863 317ZM107.136 315.438H109.75C110.952 315.438 111.949 315.205 112.74 314.741C113.53 314.277 114.12 313.617 114.508 312.76C114.896 311.903 115.091 310.883 115.091 309.699C115.091 308.525 114.899 307.514 114.515 306.666C114.132 305.814 113.559 305.161 112.797 304.706C112.034 304.247 111.085 304.017 109.949 304.017H107.136V315.438ZM122.733 317.256C122.041 317.256 121.414 317.125 120.85 316.865C120.287 316.6 119.84 316.219 119.508 315.722C119.177 315.22 119.011 314.614 119.011 313.903C119.011 313.278 119.134 312.772 119.38 312.384C119.627 311.991 119.956 311.683 120.368 311.46C120.779 311.238 121.234 311.072 121.731 310.963C122.233 310.849 122.737 310.759 123.244 310.693C123.907 310.608 124.444 310.544 124.856 310.501C125.273 310.454 125.576 310.376 125.765 310.267C125.959 310.158 126.056 309.969 126.056 309.699V309.642C126.056 308.941 125.865 308.397 125.481 308.009C125.102 307.62 124.527 307.426 123.755 307.426C122.955 307.426 122.328 307.601 121.873 307.952C121.419 308.302 121.099 308.676 120.914 309.074L119.324 308.506C119.608 307.843 119.986 307.327 120.46 306.957C120.938 306.583 121.459 306.323 122.022 306.176C122.591 306.025 123.149 305.949 123.699 305.949C124.049 305.949 124.451 305.991 124.906 306.077C125.365 306.157 125.808 306.325 126.234 306.581C126.665 306.837 127.022 307.223 127.306 307.739C127.591 308.255 127.733 308.946 127.733 309.812V317H126.056V315.523H125.971C125.858 315.759 125.668 316.013 125.403 316.283C125.138 316.553 124.785 316.782 124.345 316.972C123.904 317.161 123.367 317.256 122.733 317.256ZM122.988 315.75C123.651 315.75 124.21 315.62 124.664 315.359C125.124 315.099 125.469 314.763 125.701 314.351C125.938 313.939 126.056 313.506 126.056 313.051V311.517C125.985 311.602 125.829 311.68 125.588 311.751C125.351 311.818 125.076 311.877 124.764 311.929C124.456 311.976 124.155 312.019 123.862 312.057C123.573 312.09 123.339 312.118 123.159 312.142C122.723 312.199 122.316 312.291 121.937 312.419C121.563 312.542 121.26 312.729 121.028 312.98C120.801 313.226 120.687 313.562 120.687 313.989C120.687 314.571 120.903 315.011 121.333 315.31C121.769 315.603 122.321 315.75 122.988 315.75ZM135.536 306.091V307.511H129.883V306.091H135.536ZM131.531 303.477H133.207V313.875C133.207 314.348 133.275 314.704 133.413 314.94C133.555 315.172 133.735 315.329 133.952 315.409C134.175 315.485 134.409 315.523 134.656 315.523C134.84 315.523 134.992 315.513 135.11 315.494C135.228 315.471 135.323 315.452 135.394 315.438L135.735 316.943C135.621 316.986 135.463 317.028 135.259 317.071C135.056 317.118 134.798 317.142 134.485 317.142C134.012 317.142 133.548 317.04 133.093 316.837C132.643 316.633 132.269 316.323 131.971 315.906C131.677 315.49 131.531 314.964 131.531 314.33V303.477ZM142.514 317.227C141.463 317.227 140.556 316.995 139.794 316.531C139.036 316.062 138.452 315.409 138.04 314.571C137.633 313.728 137.429 312.748 137.429 311.631C137.429 310.513 137.633 309.528 138.04 308.676C138.452 307.819 139.025 307.152 139.759 306.673C140.497 306.19 141.359 305.949 142.344 305.949C142.912 305.949 143.473 306.044 144.027 306.233C144.581 306.422 145.085 306.73 145.54 307.156C145.994 307.578 146.357 308.136 146.626 308.832C146.896 309.528 147.031 310.385 147.031 311.403V312.114H138.622V310.665H145.327C145.327 310.049 145.204 309.5 144.957 309.017C144.716 308.534 144.37 308.153 143.92 307.874C143.475 307.594 142.95 307.455 142.344 307.455C141.676 307.455 141.098 307.62 140.611 307.952C140.128 308.278 139.756 308.705 139.496 309.23C139.235 309.756 139.105 310.319 139.105 310.92V311.886C139.105 312.71 139.247 313.409 139.531 313.982C139.82 314.55 140.22 314.983 140.732 315.281C141.243 315.575 141.837 315.722 142.514 315.722C142.955 315.722 143.352 315.66 143.707 315.537C144.067 315.409 144.377 315.22 144.638 314.969C144.898 314.713 145.099 314.396 145.241 314.017L146.861 314.472C146.69 315.021 146.404 315.504 146.001 315.92C145.599 316.332 145.102 316.654 144.51 316.886C143.918 317.114 143.253 317.227 142.514 317.227Z" fill="#C4C4C4"/>
<path d="M47.2088 334.455V349H44.5739V337.018H44.4886L41.0866 339.192V336.777L44.7017 334.455H47.2088ZM56.2784 349.277C55.1089 349.277 54.1051 348.981 53.267 348.389C52.4337 347.793 51.7921 346.933 51.3423 345.811C50.8973 344.684 50.6747 343.328 50.6747 341.741C50.6795 340.155 50.9044 338.806 51.3494 337.693C51.7992 336.576 52.4408 335.723 53.2741 335.136C54.1122 334.549 55.1136 334.256 56.2784 334.256C57.4432 334.256 58.4446 334.549 59.2827 335.136C60.1207 335.723 60.7623 336.576 61.2074 337.693C61.6572 338.811 61.8821 340.16 61.8821 341.741C61.8821 343.332 61.6572 344.691 61.2074 345.818C60.7623 346.94 60.1207 347.797 59.2827 348.389C58.4493 348.981 57.4479 349.277 56.2784 349.277ZM56.2784 347.054C57.1875 347.054 57.9048 346.607 58.4304 345.712C58.9607 344.812 59.2259 343.489 59.2259 341.741C59.2259 340.586 59.1051 339.616 58.8636 338.83C58.6222 338.044 58.2813 337.452 57.8409 337.054C57.4006 336.652 56.8797 336.45 56.2784 336.45C55.3741 336.45 54.6591 336.9 54.1335 337.8C53.608 338.695 53.3428 340.009 53.3381 341.741C53.3333 342.902 53.4493 343.877 53.6861 344.668C53.9276 345.458 54.2685 346.055 54.7088 346.457C55.1491 346.855 55.6723 347.054 56.2784 347.054ZM70.2077 333.773L65.5202 351.188H63.2688L67.9563 333.773H70.2077ZM71.82 349V347.097L76.8697 342.146C77.3526 341.659 77.7551 341.225 78.0771 340.847C78.399 340.468 78.6405 340.101 78.8015 339.746C78.9625 339.391 79.043 339.012 79.043 338.609C79.043 338.15 78.9388 337.757 78.7305 337.43C78.5221 337.099 78.2357 336.843 77.8711 336.663C77.5065 336.483 77.0922 336.393 76.6282 336.393C76.15 336.393 75.7309 336.493 75.3711 336.692C75.0112 336.886 74.7319 337.163 74.533 337.523C74.3389 337.883 74.2418 338.311 74.2418 338.808H71.7347C71.7347 337.885 71.9454 337.082 72.3668 336.401C72.7882 335.719 73.3683 335.191 74.1069 334.817C74.8503 334.443 75.7025 334.256 76.6637 334.256C77.6391 334.256 78.4961 334.438 79.2347 334.803C79.9734 335.167 80.5463 335.667 80.9535 336.301C81.3654 336.936 81.5714 337.66 81.5714 338.474C81.5714 339.019 81.4672 339.554 81.2589 340.08C81.0505 340.605 80.6836 341.187 80.158 341.827C79.6372 342.466 78.9057 343.24 77.9634 344.149L75.4563 346.699V346.798H81.7915V349H71.82ZM89.4123 349.199C88.3564 349.199 87.4189 349.021 86.5998 348.666C85.7854 348.311 85.1462 347.826 84.6822 347.21C84.2229 346.59 83.9956 345.887 84.0004 345.101C83.9956 344.49 84.1282 343.929 84.3981 343.418C84.668 342.906 85.0326 342.48 85.4918 342.139C85.9558 341.794 86.4719 341.573 87.0401 341.479V341.379C86.292 341.214 85.686 340.832 85.2219 340.236C84.7627 339.634 84.5354 338.941 84.5401 338.155C84.5354 337.407 84.7437 336.739 85.1651 336.152C85.5865 335.565 86.1642 335.103 86.8981 334.767C87.632 334.426 88.4701 334.256 89.4123 334.256C90.3451 334.256 91.176 334.426 91.9052 334.767C92.6391 335.103 93.2167 335.565 93.6381 336.152C94.0643 336.739 94.2773 337.407 94.2773 338.155C94.2773 338.941 94.043 339.634 93.5742 340.236C93.1102 340.832 92.5112 341.214 91.7773 341.379V341.479C92.3455 341.573 92.8569 341.794 93.3114 342.139C93.7707 342.48 94.1353 342.906 94.4052 343.418C94.6798 343.929 94.8171 344.49 94.8171 345.101C94.8171 345.887 94.5851 346.59 94.1211 347.21C93.6571 347.826 93.0179 348.311 92.2035 348.666C91.3938 349.021 90.4634 349.199 89.4123 349.199ZM89.4123 347.168C89.9568 347.168 90.4303 347.075 90.8327 346.891C91.2352 346.701 91.5477 346.436 91.7702 346.095C91.9928 345.754 92.1064 345.361 92.1112 344.916C92.1064 344.452 91.9857 344.043 91.7489 343.688C91.5169 343.328 91.1973 343.046 90.7901 342.842C90.3877 342.639 89.9284 342.537 89.4123 342.537C88.8915 342.537 88.4274 342.639 88.0202 342.842C87.613 343.046 87.2911 343.328 87.0543 343.688C86.8223 344.043 86.7087 344.452 86.7134 344.916C86.7087 345.361 86.8176 345.754 87.0401 346.095C87.2627 346.431 87.5752 346.694 87.9776 346.884C88.3848 347.073 88.863 347.168 89.4123 347.168ZM89.4123 340.541C89.8574 340.541 90.2504 340.451 90.5913 340.271C90.9369 340.091 91.2092 339.84 91.408 339.518C91.6069 339.196 91.7087 338.825 91.7134 338.403C91.7087 337.987 91.6093 337.622 91.4151 337.31C91.221 336.992 90.9511 336.749 90.6055 336.578C90.2598 336.403 89.8621 336.315 89.4123 336.315C88.953 336.315 88.5482 336.403 88.1978 336.578C87.8522 336.749 87.5823 336.992 87.3881 337.31C87.1987 337.622 87.1064 337.987 87.1112 338.403C87.1064 338.825 87.2011 339.196 87.3952 339.518C87.5941 339.836 87.8664 340.087 88.212 340.271C88.5624 340.451 88.9625 340.541 89.4123 340.541Z" fill="white"/>
<g clip-path="url(#clip1_545_2965)">
<rect x="480" y="301" width="65" height="50" rx="8" fill="#0F0F0F" fill-opacity="0.24"/>
<path fill-rule="evenodd" clip-rule="evenodd" d="M500 351H502V301H500V314H480V316H500V326H480V328H500V338H480V340H500V351Z" fill="#202130"/>
<path fill-rule="evenodd" clip-rule="evenodd" d="M522.271 326L522.423 325.635L522.445 325.583L522.445 325.583C523.744 322.466 525.056 319.319 526.161 316H543V314H526.793C528.106 309.607 529 304.878 529 299.5H527C527 309.434 523.83 317.061 520.577 324.865L520.555 324.917C520.405 325.278 520.255 325.639 520.104 326H520V326.251C516.948 333.605 514 341.234 514 351H516C516 347.016 516.51 343.402 517.331 340H543V338H517.854C518.83 334.533 520.101 331.26 521.442 328H543V326H522.271Z" fill="#202130"/>
</g>
<rect x="481" y="302" width="63" height="48" rx="7" stroke="#202130" stroke-width="2"/>
<path d="M546.073 73.7568L545.323 69.9681H536.943L535.61 73.7299L528.893 73.7434C532.091 65.9744 535.295 58.2082 538.507 50.445C539.053 49.1282 540.023 48.458 541.453 48.4648C542.547 48.4749 544.33 48.4749 546.807 48.4681L552 73.7467L546.073 73.7568ZM538.83 64.7783H544.23L542.213 55.2812L538.83 64.7783ZM495.533 48.4614L502.287 48.4681L491.847 73.7602L485.01 73.7535C483.291 67.0728 481.593 60.3866 479.917 53.6949C479.583 52.3613 478.923 51.4284 477.653 50.9872C476.523 50.5932 474.64 49.987 472 49.1619V48.4715H482.79C484.657 48.4715 485.747 49.3842 486.097 51.2566C486.45 53.1325 487.337 57.908 488.763 65.5832L495.533 48.4614ZM511.567 48.4681L506.227 73.7535L499.8 73.7467L505.133 48.4614L511.567 48.4681ZM524.6 48C526.523 48 528.947 48.6062 530.34 49.1619L529.213 54.4055C527.953 53.8936 525.88 53.2032 524.137 53.2268C521.603 53.2706 520.037 54.3449 520.037 55.3755C520.037 57.0526 522.757 57.8979 525.557 59.73C528.753 61.818 529.173 63.6939 529.133 65.7314C529.09 69.9613 525.557 74.134 518.103 74.134C514.703 74.0835 513.477 73.7939 510.703 72.8004L511.877 67.3277C514.7 68.5233 515.897 68.9038 518.31 68.9038C520.52 68.9038 522.417 68.0013 522.433 66.4285C522.447 65.3104 521.767 64.7547 519.287 63.3739C516.807 61.9898 513.327 60.0735 513.373 56.2275C513.43 51.3038 518.047 48 524.603 48H524.6Z" fill="#202130"/>
<g filter="url(#filter1_f_545_2965)">
<ellipse cx="558.5" cy="356.5" rx="118.5" ry="118.5" transform="rotate(-90 558.5 356.5)" fill="#3C459A" fill-opacity="0.5"/>
</g>
<mask id="mask0_545_2965" style="mask-type:alpha" maskUnits="userSpaceOnUse" x="79" y="70" width="960" height="573">
<rect x="79" y="70" width="960" height="573" fill="url(#paint0_radial_545_2965)"/>
</mask>
<g mask="url(#mask0_545_2965)">
<rect x="202.5" y="79.5" width="79" height="79" stroke="white"/>
<rect x="281.5" y="79.5" width="79" height="79" stroke="white"/>
<rect x="360.5" y="79.5" width="79" height="79" stroke="white"/>
<rect x="439.5" y="79.5" width="79" height="79" stroke="white"/>
<rect x="518.5" y="79.5" width="79" height="79" stroke="white"/>
<rect x="202.5" y="158.5" width="79" height="79" stroke="white"/>
<rect x="281.5" y="158.5" width="79" height="79" stroke="white"/>
<rect x="360.5" y="158.5" width="79" height="79" stroke="white"/>
<rect x="439.5" y="158.5" width="79" height="79" stroke="white"/>
<rect x="518.5" y="158.5" width="79" height="79" stroke="white"/>
<rect x="202.5" y="237.5" width="79" height="79" stroke="white"/>
<rect x="281.5" y="237.5" width="79" height="79" stroke="white"/>
<rect x="360.5" y="237.5" width="79" height="79" stroke="white"/>
<rect x="439.5" y="237.5" width="79" height="79" stroke="white"/>
<rect x="518.5" y="237.5" width="79" height="79" fill="white" fill-opacity="0.25" stroke="white"/>
<rect x="202.5" y="316.5" width="79" height="79" stroke="white"/>
<rect x="281.5" y="316.5" width="79" height="79" stroke="white"/>
<rect x="360.5" y="316.5" width="79" height="79" stroke="white"/>
<rect x="439.5" y="316.5" width="79" height="79" stroke="white"/>
<rect x="518.5" y="316.5" width="79" height="79" stroke="white"/>
</g>
</g>
<rect x="0.5" y="0.5" width="573" height="389" rx="31.5" stroke="url(#paint1_linear_545_2965)"/>
<defs>
<filter id="filter0_d_545_2965" x="33.9318" y="199.386" width="364.247" height="39.9432" filterUnits="userSpaceOnUse" color-interpolation-filters="sRGB">
<feFlood flood-opacity="0" result="BackgroundImageFix"/>
<feColorMatrix in="SourceAlpha" type="matrix" values="0 0 0 0 0 0 0 0 0 0 0 0 0 0 0 0 0 0 127 0" result="hardAlpha"/>
<feOffset/>
<feGaussianBlur stdDeviation="4"/>
<feComposite in2="hardAlpha" operator="out"/>
<feColorMatrix type="matrix" values="0 0 0 0 0 0 0 0 0 0 0 0 0 0 0 0 0 0 0.16 0"/>
<feBlend mode="normal" in2="BackgroundImageFix" result="effect1_dropShadow_545_2965"/>
<feBlend mode="normal" in="SourceGraphic" in2="effect1_dropShadow_545_2965" result="shape"/>
</filter>
<filter id="filter1_f_545_2965" x="240" y="38" width="637" height="637" filterUnits="userSpaceOnUse" color-interpolation-filters="sRGB">
<feFlood flood-opacity="0" result="BackgroundImageFix"/>
<feBlend mode="normal" in="SourceGraphic" in2="BackgroundImageFix" result="shape"/>
<feGaussianBlur stdDeviation="100" result="effect1_foregroundBlur_545_2965"/>
</filter>
<radialGradient id="paint0_radial_545_2965" cx="0" cy="0" r="1" gradientUnits="userSpaceOnUse" gradientTransform="translate(559 356.5) rotate(90) scale(353.19 591.732)">
<stop stop-color="#D9D9D9" stop-opacity="0.2"/>
<stop offset="0.802083" stop-color="#D9D9D9" stop-opacity="0"/>
</radialGradient>
<linearGradient id="paint1_linear_545_2965" x1="25.895" y1="377.464" x2="201.565" y2="-115.898" gradientUnits="userSpaceOnUse">
<stop stop-color="#7FCEF3"/>
<stop offset="1" stop-color="#4C00FF"/>
</linearGradient>
<clipPath id="clip0_545_2965">
<rect width="574" height="390" rx="32" fill="white"/>
</clipPath>
<clipPath id="clip1_545_2965">
<rect x="480" y="301" width="65" height="50" rx="8" fill="white"/>
</clipPath>
</defs>
</svg>
