<svg width="399" height="560" viewBox="0 0 399 560" fill="none" xmlns="http://www.w3.org/2000/svg">
<g filter="url(#filter0_b_519_3103)">
<g clip-path="url(#clip0_519_3103)">
<rect width="399" height="560" rx="32" fill="#202130"/>
<path d="M31.9176 388.545H35.1136L40.6705 402.114H40.875L46.4318 388.545H49.6278V406H47.1222V393.369H46.9602L41.8125 405.974H39.733L34.5852 393.361H34.4233V406H31.9176V388.545ZM56.0902 388.545V406H53.4567V388.545H56.0902ZM74.4226 394.222H71.7635C71.6612 393.653 71.4709 393.153 71.1925 392.722C70.9141 392.29 70.5732 391.923 70.1697 391.622C69.7663 391.321 69.3146 391.094 68.8146 390.94C68.3203 390.787 67.7947 390.71 67.2379 390.71C66.2322 390.71 65.3317 390.963 64.5362 391.469C63.7464 391.974 63.1214 392.716 62.6612 393.693C62.2067 394.67 61.9794 395.864 61.9794 397.273C61.9794 398.693 62.2067 399.892 62.6612 400.869C63.1214 401.847 63.7493 402.585 64.5447 403.085C65.3402 403.585 66.2351 403.835 67.2294 403.835C67.7805 403.835 68.3033 403.761 68.7976 403.614C69.2976 403.46 69.7493 403.236 70.1527 402.94C70.5561 402.645 70.897 402.284 71.1754 401.858C71.4595 401.426 71.6555 400.932 71.7635 400.375L74.4226 400.384C74.2805 401.241 74.005 402.031 73.5959 402.753C73.1925 403.469 72.6726 404.088 72.0362 404.611C71.4055 405.128 70.6839 405.528 69.8714 405.812C69.0589 406.097 68.1726 406.239 67.2124 406.239C65.701 406.239 64.3544 405.881 63.1726 405.165C61.9908 404.443 61.0589 403.412 60.3771 402.071C59.701 400.73 59.3629 399.131 59.3629 397.273C59.3629 395.409 59.7038 393.81 60.3857 392.474C61.0675 391.134 61.9993 390.105 63.1811 389.389C64.3629 388.668 65.7067 388.307 67.2124 388.307C68.1385 388.307 69.0021 388.44 69.8033 388.707C70.6101 388.969 71.3345 389.355 71.9766 389.866C72.6186 390.372 73.1499 390.991 73.5703 391.724C73.9908 392.452 74.2749 393.284 74.4226 394.222ZM77.5739 406V388.545H80.2074V396.131H88.9091V388.545H91.5511V406H88.9091V398.389H80.2074V406H77.5739ZM96.8608 406H94.0653L100.347 388.545H103.389L109.67 406H106.875L101.94 391.716H101.804L96.8608 406ZM97.3295 399.165H106.398V401.381H97.3295V399.165ZM112.191 406V388.545H123.134V390.812H114.825V396.131H122.563V398.389H114.825V403.733H123.237V406H112.191ZM126.652 406V388.545H129.286V403.733H137.195V406H126.652ZM148.025 406H145.229L151.511 388.545H154.553L160.835 406H158.039L153.104 391.716H152.968L148.025 406ZM148.494 399.165H157.562V401.381H148.494V399.165ZM177.443 388.545V406H175.023L166.151 393.199H165.989V406H163.355V388.545H165.793L174.673 401.364H174.835V388.545H177.443ZM186.935 406H181.285V388.545H187.114C188.825 388.545 190.293 388.895 191.521 389.594C192.748 390.287 193.688 391.284 194.342 392.585C195.001 393.881 195.33 395.435 195.33 397.247C195.33 399.065 194.998 400.628 194.333 401.935C193.674 403.241 192.719 404.247 191.469 404.952C190.219 405.651 188.708 406 186.935 406ZM183.918 403.699H186.79C188.12 403.699 189.225 403.449 190.106 402.949C190.987 402.443 191.646 401.713 192.083 400.759C192.521 399.798 192.739 398.628 192.739 397.247C192.739 395.878 192.521 394.716 192.083 393.761C191.651 392.807 191.006 392.082 190.148 391.588C189.29 391.094 188.225 390.847 186.952 390.847H183.918V403.699ZM198.605 406V388.545H204.827C206.179 388.545 207.301 388.778 208.193 389.244C209.091 389.71 209.761 390.355 210.205 391.179C210.648 391.997 210.869 392.943 210.869 394.017C210.869 395.085 210.645 396.026 210.196 396.838C209.753 397.645 209.082 398.273 208.185 398.722C207.293 399.17 206.17 399.395 204.818 399.395H200.105V397.128H204.58C205.432 397.128 206.125 397.006 206.659 396.761C207.199 396.517 207.594 396.162 207.844 395.696C208.094 395.23 208.219 394.67 208.219 394.017C208.219 393.358 208.091 392.787 207.835 392.304C207.585 391.821 207.19 391.452 206.651 391.196C206.116 390.935 205.415 390.804 204.545 390.804H201.239V406H198.605ZM207.222 398.125L211.534 406H208.534L204.307 398.125H207.222ZM214.074 406V388.545H225.017V390.812H216.707V396.131H224.446V398.389H216.707V403.733H225.119V406H214.074ZM239.759 388.545H242.401V400.026C242.401 401.247 242.114 402.33 241.54 403.273C240.967 404.21 240.16 404.949 239.12 405.489C238.08 406.023 236.862 406.29 235.464 406.29C234.072 406.29 232.856 406.023 231.816 405.489C230.776 404.949 229.969 404.21 229.396 403.273C228.822 402.33 228.535 401.247 228.535 400.026V388.545H231.168V399.812C231.168 400.602 231.342 401.304 231.688 401.918C232.04 402.531 232.538 403.014 233.18 403.366C233.822 403.713 234.583 403.886 235.464 403.886C236.35 403.886 237.114 403.713 237.756 403.366C238.404 403.014 238.898 402.531 239.239 401.918C239.586 401.304 239.759 400.602 239.759 399.812V388.545ZM245.778 406V404.244L254.957 390.812H245.702V388.545H258.179V390.301L249 403.733H258.256V406H245.778ZM261.107 406V404.244L270.286 390.812H261.03V388.545H273.507V390.301L264.328 403.733H273.584V406H261.107ZM278.361 406H275.565L281.847 388.545H284.889L291.17 406H288.375L283.44 391.716H283.304L278.361 406ZM278.83 399.165H287.898V401.381H278.83V399.165Z" fill="white"/>
<path d="M45.4659 258H43.7045C43.6004 257.493 43.4181 257.048 43.1577 256.665C42.902 256.281 42.5895 255.959 42.2202 255.699C41.8556 255.434 41.4508 255.235 41.0057 255.102C40.5606 254.97 40.0966 254.903 39.6136 254.903C38.733 254.903 37.9351 255.126 37.2202 255.571C36.5099 256.016 35.9441 256.672 35.5227 257.538C35.1061 258.405 34.8977 259.468 34.8977 260.727C34.8977 261.987 35.1061 263.05 35.5227 263.916C35.9441 264.783 36.5099 265.438 37.2202 265.884C37.9351 266.329 38.733 266.551 39.6136 266.551C40.0966 266.551 40.5606 266.485 41.0057 266.352C41.4508 266.22 41.8556 266.023 42.2202 265.763C42.5895 265.498 42.902 265.173 43.1577 264.79C43.4181 264.402 43.6004 263.956 43.7045 263.455H45.4659C45.3333 264.198 45.0919 264.863 44.7415 265.45C44.3911 266.037 43.9555 266.537 43.4347 266.949C42.9138 267.356 42.3291 267.666 41.6804 267.879C41.0365 268.092 40.3475 268.199 39.6136 268.199C38.3731 268.199 37.2699 267.896 36.304 267.29C35.3381 266.684 34.5781 265.822 34.0241 264.705C33.4702 263.587 33.1932 262.261 33.1932 260.727C33.1932 259.193 33.4702 257.867 34.0241 256.75C34.5781 255.633 35.3381 254.771 36.304 254.165C37.2699 253.559 38.3731 253.256 39.6136 253.256C40.3475 253.256 41.0365 253.362 41.6804 253.575C42.3291 253.788 42.9138 254.101 43.4347 254.513C43.9555 254.92 44.3911 255.417 44.7415 256.004C45.0919 256.587 45.3333 257.252 45.4659 258ZM51.2951 268.256C50.6038 268.256 49.9764 268.125 49.413 267.865C48.8496 267.6 48.4021 267.219 48.0707 266.722C47.7392 266.22 47.5735 265.614 47.5735 264.903C47.5735 264.278 47.6966 263.772 47.9428 263.384C48.189 262.991 48.5181 262.683 48.93 262.46C49.342 262.238 49.7965 262.072 50.2937 261.963C50.7956 261.849 51.2998 261.759 51.8065 261.693C52.4693 261.608 53.0067 261.544 53.4187 261.501C53.8353 261.454 54.1384 261.376 54.3278 261.267C54.5219 261.158 54.619 260.969 54.619 260.699V260.642C54.619 259.941 54.4272 259.397 54.0437 259.009C53.6649 258.62 53.0896 258.426 52.3178 258.426C51.5176 258.426 50.8903 258.601 50.4357 258.952C49.9812 259.302 49.6616 259.676 49.4769 260.074L47.886 259.506C48.1701 258.843 48.5489 258.327 49.0224 257.957C49.5006 257.583 50.0214 257.323 50.5849 257.176C51.1531 257.025 51.7118 256.949 52.261 256.949C52.6114 256.949 53.0138 256.991 53.4684 257.077C53.9277 257.157 54.3704 257.325 54.7965 257.581C55.2274 257.837 55.5849 258.223 55.869 258.739C56.1531 259.255 56.2951 259.946 56.2951 260.812V268H54.619V266.523H54.5337C54.4201 266.759 54.2307 267.013 53.9656 267.283C53.7004 267.553 53.3477 267.782 52.9073 267.972C52.467 268.161 51.9296 268.256 51.2951 268.256ZM51.5508 266.75C52.2137 266.75 52.7724 266.62 53.2269 266.359C53.6862 266.099 54.0318 265.763 54.2638 265.351C54.5006 264.939 54.619 264.506 54.619 264.051V262.517C54.5479 262.602 54.3917 262.68 54.1502 262.751C53.9135 262.818 53.6388 262.877 53.3263 262.929C53.0186 262.976 52.7179 263.019 52.4244 263.057C52.1355 263.09 51.9012 263.118 51.7212 263.142C51.2856 263.199 50.8784 263.291 50.4996 263.419C50.1256 263.542 49.8226 263.729 49.5906 263.98C49.3633 264.226 49.2496 264.562 49.2496 264.989C49.2496 265.571 49.4651 266.011 49.896 266.31C50.3316 266.603 50.8832 266.75 51.5508 266.75ZM59.3544 268V257.091H60.9737V258.739H61.0874C61.2862 258.199 61.6461 257.761 62.1669 257.425C62.6877 257.089 63.2749 256.92 63.9283 256.92C64.0514 256.92 64.2053 256.923 64.3899 256.928C64.5746 256.932 64.7143 256.939 64.8089 256.949V258.653C64.7521 258.639 64.6219 258.618 64.4183 258.589C64.2195 258.556 64.0088 258.54 63.7862 258.54C63.2559 258.54 62.7824 258.651 62.3658 258.874C61.9538 259.091 61.6271 259.394 61.3857 259.783C61.1489 260.166 61.0305 260.604 61.0305 261.097V268H59.3544ZM70.5831 268.227C69.674 268.227 68.8714 267.998 68.1754 267.538C67.4794 267.074 66.9349 266.421 66.5419 265.578C66.1489 264.731 65.9524 263.729 65.9524 262.574C65.9524 261.428 66.1489 260.434 66.5419 259.591C66.9349 258.748 67.4818 258.097 68.1825 257.638C68.8833 257.179 69.6929 256.949 70.6115 256.949C71.3217 256.949 71.8828 257.067 72.2947 257.304C72.7114 257.536 73.0286 257.801 73.2464 258.099C73.469 258.393 73.6418 258.634 73.7649 258.824H73.907V253.455H75.5831V268H73.9638V266.324H73.7649C73.6418 266.523 73.4666 266.774 73.2393 267.077C73.0121 267.375 72.6877 267.643 72.2663 267.879C71.8449 268.111 71.2839 268.227 70.5831 268.227ZM70.8104 266.722C71.4827 266.722 72.0509 266.546 72.5149 266.196C72.9789 265.841 73.3317 265.351 73.5732 264.726C73.8146 264.096 73.9354 263.369 73.9354 262.545C73.9354 261.731 73.817 261.018 73.5803 260.408C73.3435 259.792 72.9931 259.314 72.5291 258.973C72.0651 258.627 71.4922 258.455 70.8104 258.455C70.1001 258.455 69.5083 258.637 69.0348 259.001C68.5661 259.361 68.2133 259.851 67.9766 260.472C67.7446 261.087 67.6286 261.778 67.6286 262.545C67.6286 263.322 67.7469 264.027 67.9837 264.662C68.2251 265.292 68.5803 265.794 69.049 266.168C69.5225 266.537 70.1096 266.722 70.8104 266.722ZM96.272 253.455V268H94.5675L86.6413 256.58H86.4993V268H84.7379V253.455H86.4425L94.397 264.903H94.5391V253.455H96.272ZM106.444 263.54V257.091H108.12V268H106.444V266.153H106.331C106.075 266.707 105.677 267.179 105.137 267.567C104.598 267.95 103.916 268.142 103.092 268.142C102.41 268.142 101.804 267.993 101.274 267.695C100.743 267.392 100.327 266.937 100.024 266.331C99.7208 265.72 99.5692 264.951 99.5692 264.023V257.091H101.245V263.909C101.245 264.705 101.468 265.339 101.913 265.812C102.363 266.286 102.936 266.523 103.632 266.523C104.048 266.523 104.472 266.416 104.903 266.203C105.339 265.99 105.703 265.663 105.997 265.223C106.295 264.783 106.444 264.222 106.444 263.54ZM111.19 268V257.091H112.81V258.795H112.952C113.179 258.213 113.546 257.761 114.053 257.439C114.559 257.112 115.168 256.949 115.878 256.949C116.598 256.949 117.196 257.112 117.675 257.439C118.158 257.761 118.534 258.213 118.804 258.795H118.918C119.197 258.232 119.616 257.785 120.175 257.453C120.733 257.117 121.403 256.949 122.185 256.949C123.16 256.949 123.958 257.254 124.578 257.865C125.198 258.471 125.509 259.416 125.509 260.699V268H123.832V260.699C123.832 259.894 123.612 259.319 123.172 258.973C122.732 258.627 122.213 258.455 121.616 258.455C120.849 258.455 120.255 258.687 119.834 259.151C119.412 259.61 119.202 260.192 119.202 260.898V268H117.497V260.528C117.497 259.908 117.296 259.409 116.893 259.03C116.491 258.646 115.973 258.455 115.338 258.455C114.902 258.455 114.495 258.571 114.116 258.803C113.742 259.035 113.439 259.357 113.207 259.768C112.98 260.176 112.866 260.647 112.866 261.182V268H111.19ZM128.8 268V253.455H130.477V258.824H130.619C130.742 258.634 130.912 258.393 131.13 258.099C131.353 257.801 131.67 257.536 132.082 257.304C132.498 257.067 133.062 256.949 133.772 256.949C134.691 256.949 135.5 257.179 136.201 257.638C136.902 258.097 137.449 258.748 137.842 259.591C138.235 260.434 138.431 261.428 138.431 262.574C138.431 263.729 138.235 264.731 137.842 265.578C137.449 266.421 136.904 267.074 136.208 267.538C135.512 267.998 134.71 268.227 133.8 268.227C133.1 268.227 132.539 268.111 132.117 267.879C131.696 267.643 131.371 267.375 131.144 267.077C130.917 266.774 130.742 266.523 130.619 266.324H130.42V268H128.8ZM130.448 262.545C130.448 263.369 130.569 264.096 130.81 264.726C131.052 265.351 131.405 265.841 131.869 266.196C132.333 266.546 132.901 266.722 133.573 266.722C134.274 266.722 134.859 266.537 135.327 266.168C135.801 265.794 136.156 265.292 136.393 264.662C136.634 264.027 136.755 263.322 136.755 262.545C136.755 261.778 136.637 261.087 136.4 260.472C136.168 259.851 135.815 259.361 135.342 259.001C134.873 258.637 134.283 258.455 133.573 258.455C132.891 258.455 132.318 258.627 131.854 258.973C131.39 259.314 131.04 259.792 130.803 260.408C130.567 261.018 130.448 261.731 130.448 262.545ZM145.569 268.227C144.518 268.227 143.611 267.995 142.849 267.531C142.091 267.062 141.506 266.409 141.094 265.571C140.687 264.728 140.484 263.748 140.484 262.631C140.484 261.513 140.687 260.528 141.094 259.676C141.506 258.819 142.079 258.152 142.813 257.673C143.552 257.19 144.414 256.949 145.398 256.949C145.967 256.949 146.528 257.044 147.082 257.233C147.636 257.422 148.14 257.73 148.594 258.156C149.049 258.578 149.411 259.136 149.681 259.832C149.951 260.528 150.086 261.385 150.086 262.403V263.114H141.677V261.665H148.381C148.381 261.049 148.258 260.5 148.012 260.017C147.771 259.534 147.425 259.153 146.975 258.874C146.53 258.594 146.004 258.455 145.398 258.455C144.731 258.455 144.153 258.62 143.665 258.952C143.183 259.278 142.811 259.705 142.55 260.23C142.29 260.756 142.16 261.319 142.16 261.92V262.886C142.16 263.71 142.302 264.409 142.586 264.982C142.875 265.55 143.275 265.983 143.786 266.281C144.298 266.575 144.892 266.722 145.569 266.722C146.009 266.722 146.407 266.66 146.762 266.537C147.122 266.409 147.432 266.22 147.692 265.969C147.953 265.713 148.154 265.396 148.296 265.017L149.915 265.472C149.745 266.021 149.459 266.504 149.056 266.92C148.654 267.332 148.156 267.654 147.565 267.886C146.973 268.114 146.308 268.227 145.569 268.227ZM152.636 268V257.091H154.255V258.739H154.369C154.567 258.199 154.927 257.761 155.448 257.425C155.969 257.089 156.556 256.92 157.21 256.92C157.333 256.92 157.487 256.923 157.671 256.928C157.856 256.932 157.996 256.939 158.09 256.949V258.653C158.033 258.639 157.903 258.618 157.7 258.589C157.501 258.556 157.29 258.54 157.067 258.54C156.537 258.54 156.064 258.651 155.647 258.874C155.235 259.091 154.908 259.394 154.667 259.783C154.43 260.166 154.312 260.604 154.312 261.097V268H152.636Z" fill="#C4C4C4"/>
<g filter="url(#filter1_d_519_3103)">
<path d="M33.8097 312V309.335L40.8793 302.405C41.5554 301.722 42.1188 301.116 42.5696 300.585C43.0204 300.055 43.3584 299.541 43.5838 299.044C43.8092 298.547 43.9219 298.017 43.9219 297.453C43.9219 296.81 43.776 296.26 43.4844 295.803C43.1927 295.339 42.7917 294.981 42.2812 294.729C41.7708 294.477 41.1908 294.351 40.5412 294.351C39.8717 294.351 39.285 294.49 38.7812 294.768C38.2775 295.04 37.8864 295.428 37.608 295.932C37.3362 296.436 37.2003 297.036 37.2003 297.732H33.6903C33.6903 296.439 33.9853 295.315 34.5753 294.361C35.1652 293.406 35.9773 292.667 37.0114 292.143C38.0521 291.62 39.2453 291.358 40.5909 291.358C41.9564 291.358 43.1563 291.613 44.1903 292.124C45.2244 292.634 46.0265 293.333 46.5966 294.222C47.1733 295.11 47.4616 296.124 47.4616 297.264C47.4616 298.027 47.3158 298.776 47.0241 299.511C46.7325 300.247 46.2188 301.062 45.483 301.957C44.7538 302.852 43.7296 303.936 42.4105 305.209L38.9006 308.778V308.918H47.7699V312H33.8097ZM51.2003 312V309.335L58.2699 302.405C58.946 301.722 59.5095 301.116 59.9602 300.585C60.411 300.055 60.7491 299.541 60.9744 299.044C61.1998 298.547 61.3125 298.017 61.3125 297.453C61.3125 296.81 61.1667 296.26 60.875 295.803C60.5833 295.339 60.1823 294.981 59.6719 294.729C59.1615 294.477 58.5814 294.351 57.9318 294.351C57.2623 294.351 56.6757 294.49 56.1719 294.768C55.6681 295.04 55.277 295.428 54.9986 295.932C54.7268 296.436 54.5909 297.036 54.5909 297.732H51.081C51.081 296.439 51.3759 295.315 51.9659 294.361C52.5559 293.406 53.3679 292.667 54.402 292.143C55.4427 291.62 56.6359 291.358 57.9815 291.358C59.3471 291.358 60.5469 291.613 61.581 292.124C62.6151 292.634 63.4171 293.333 63.9872 294.222C64.5639 295.11 64.8523 296.124 64.8523 297.264C64.8523 298.027 64.7064 298.776 64.4148 299.511C64.1231 300.247 63.6094 301.062 62.8736 301.957C62.1444 302.852 61.1203 303.936 59.8011 305.209L56.2912 308.778V308.918H65.1605V312H51.2003ZM67.7855 308.222V305.288L76.4261 291.636H78.8722V295.812H77.3807L71.5639 305.03V305.189H83.625V308.222H67.7855ZM77.5 312V307.327L77.5398 306.014V291.636H81.0199V312H77.5ZM94.1101 312.278C92.6783 312.278 91.4055 312.033 90.2919 311.543C89.1849 311.052 88.3099 310.369 87.6669 309.494C87.0239 308.619 86.6825 307.608 86.6428 306.462H90.3814C90.4145 307.012 90.5968 307.492 90.9283 307.903C91.2597 308.308 91.7005 308.623 92.2507 308.848C92.8009 309.073 93.4174 309.186 94.1001 309.186C94.8293 309.186 95.4756 309.06 96.0391 308.808C96.6025 308.55 97.0433 308.192 97.3615 307.734C97.6797 307.277 97.8355 306.75 97.8288 306.153C97.8355 305.537 97.6764 304.993 97.3516 304.523C97.0268 304.052 96.5561 303.684 95.9396 303.419C95.3298 303.154 94.594 303.021 93.7322 303.021H91.9325V300.178H93.7322C94.4415 300.178 95.0613 300.055 95.5916 299.81C96.1286 299.564 96.5495 299.22 96.8544 298.776C97.1593 298.325 97.3085 297.804 97.3018 297.214C97.3085 296.638 97.1792 296.137 96.9141 295.713C96.6555 295.282 96.2876 294.947 95.8104 294.709C95.3397 294.47 94.7862 294.351 94.1499 294.351C93.5268 294.351 92.95 294.464 92.4197 294.689C91.8894 294.914 91.4619 295.236 91.1371 295.653C90.8123 296.064 90.6399 296.555 90.62 297.125H87.0703C87.0968 295.985 87.425 294.984 88.0547 294.122C88.6911 293.254 89.5395 292.578 90.6001 292.094C91.6607 291.603 92.8506 291.358 94.1697 291.358C95.5286 291.358 96.7086 291.613 97.7095 292.124C98.7171 292.627 99.496 293.307 100.046 294.162C100.596 295.017 100.871 295.962 100.871 296.996C100.878 298.143 100.54 299.104 99.8572 299.879C99.1811 300.655 98.2929 301.162 97.1925 301.401V301.56C98.6243 301.759 99.7214 302.289 100.484 303.151C101.253 304.006 101.634 305.07 101.627 306.342C101.627 307.482 101.302 308.503 100.653 309.405C100.01 310.3 99.1214 311.002 97.9879 311.513C96.861 312.023 95.5684 312.278 94.1101 312.278ZM119.443 312.278C118.468 312.272 117.517 312.103 116.589 311.771C115.661 311.433 114.826 310.886 114.083 310.131C113.341 309.368 112.751 308.357 112.314 307.098C111.876 305.832 111.661 304.264 111.667 302.395C111.667 300.652 111.853 299.097 112.224 297.732C112.595 296.366 113.129 295.213 113.825 294.271C114.521 293.323 115.359 292.601 116.341 292.104C117.328 291.607 118.432 291.358 119.652 291.358C120.931 291.358 122.065 291.61 123.052 292.114C124.047 292.617 124.849 293.307 125.458 294.182C126.068 295.05 126.446 296.031 126.592 297.125H122.963C122.777 296.343 122.396 295.72 121.819 295.256C121.249 294.785 120.527 294.55 119.652 294.55C118.24 294.55 117.153 295.163 116.39 296.389C115.635 297.616 115.253 299.299 115.247 301.44H115.386C115.711 300.857 116.132 300.357 116.649 299.939C117.166 299.521 117.749 299.2 118.399 298.974C119.055 298.742 119.748 298.626 120.477 298.626C121.67 298.626 122.741 298.911 123.689 299.482C124.643 300.052 125.399 300.837 125.956 301.838C126.512 302.832 126.788 303.973 126.781 305.259C126.788 306.598 126.483 307.801 125.866 308.868C125.25 309.929 124.391 310.764 123.291 311.374C122.19 311.983 120.908 312.285 119.443 312.278ZM119.423 309.295C120.145 309.295 120.792 309.12 121.362 308.768C121.932 308.417 122.383 307.943 122.714 307.347C123.046 306.75 123.208 306.08 123.201 305.338C123.208 304.609 123.049 303.949 122.724 303.359C122.406 302.769 121.965 302.302 121.402 301.957C120.838 301.613 120.195 301.44 119.473 301.44C118.936 301.44 118.435 301.543 117.971 301.749C117.507 301.954 117.103 302.239 116.758 302.604C116.413 302.962 116.142 303.379 115.943 303.857C115.751 304.327 115.651 304.831 115.645 305.368C115.651 306.077 115.817 306.73 116.142 307.327C116.467 307.923 116.914 308.401 117.484 308.759C118.054 309.116 118.7 309.295 119.423 309.295ZM137.599 312.278C136.625 312.272 135.673 312.103 134.745 311.771C133.817 311.433 132.982 310.886 132.24 310.131C131.497 309.368 130.907 308.357 130.47 307.098C130.032 305.832 129.817 304.264 129.824 302.395C129.824 300.652 130.009 299.097 130.38 297.732C130.752 296.366 131.285 295.213 131.981 294.271C132.677 293.323 133.516 292.601 134.497 292.104C135.484 291.607 136.588 291.358 137.808 291.358C139.087 291.358 140.221 291.61 141.208 292.114C142.203 292.617 143.005 293.307 143.615 294.182C144.225 295.05 144.602 296.031 144.748 297.125H141.119C140.933 296.343 140.552 295.72 139.975 295.256C139.405 294.785 138.683 294.55 137.808 294.55C136.396 294.55 135.309 295.163 134.547 296.389C133.791 297.616 133.41 299.299 133.403 301.44H133.542C133.867 300.857 134.288 300.357 134.805 299.939C135.322 299.521 135.905 299.2 136.555 298.974C137.211 298.742 137.904 298.626 138.633 298.626C139.826 298.626 140.897 298.911 141.845 299.482C142.799 300.052 143.555 300.837 144.112 301.838C144.669 302.832 144.944 303.973 144.937 305.259C144.944 306.598 144.639 307.801 144.022 308.868C143.406 309.929 142.547 310.764 141.447 311.374C140.347 311.983 139.064 312.285 137.599 312.278ZM137.579 309.295C138.302 309.295 138.948 309.12 139.518 308.768C140.088 308.417 140.539 307.943 140.87 307.347C141.202 306.75 141.364 306.08 141.358 305.338C141.364 304.609 141.205 303.949 140.88 303.359C140.562 302.769 140.121 302.302 139.558 301.957C138.994 301.613 138.351 301.44 137.629 301.44C137.092 301.44 136.592 301.543 136.127 301.749C135.663 301.954 135.259 302.239 134.914 302.604C134.57 302.962 134.298 303.379 134.099 303.857C133.907 304.327 133.807 304.831 133.801 305.368C133.807 306.077 133.973 306.73 134.298 307.327C134.623 307.923 135.07 308.401 135.64 308.759C136.21 309.116 136.857 309.295 137.579 309.295ZM155.377 312.278C154.052 312.278 152.865 312.03 151.818 311.533C150.77 311.029 149.939 310.339 149.322 309.464C148.712 308.589 148.387 307.589 148.348 306.462H151.927C151.993 307.297 152.355 307.98 153.011 308.51C153.667 309.034 154.456 309.295 155.377 309.295C156.1 309.295 156.743 309.13 157.306 308.798C157.87 308.467 158.314 308.006 158.639 307.416C158.964 306.826 159.123 306.153 159.116 305.398C159.123 304.629 158.96 303.946 158.629 303.349C158.297 302.753 157.843 302.286 157.267 301.947C156.69 301.603 156.027 301.43 155.278 301.43C154.668 301.424 154.068 301.536 153.478 301.768C152.888 302 152.421 302.305 152.076 302.683L148.745 302.136L149.809 291.636H161.622V294.719H152.862L152.275 300.118H152.395C152.772 299.674 153.306 299.306 153.995 299.014C154.685 298.716 155.44 298.567 156.262 298.567C157.495 298.567 158.596 298.858 159.564 299.442C160.531 300.018 161.294 300.814 161.85 301.828C162.407 302.842 162.686 304.002 162.686 305.308C162.686 306.654 162.374 307.854 161.751 308.908C161.135 309.955 160.276 310.78 159.176 311.384C158.082 311.98 156.816 312.278 155.377 312.278ZM166.017 312V309.335L173.086 302.405C173.762 301.722 174.326 301.116 174.777 300.585C175.227 300.055 175.565 299.541 175.791 299.044C176.016 298.547 176.129 298.017 176.129 297.453C176.129 296.81 175.983 296.26 175.691 295.803C175.4 295.339 174.999 294.981 174.488 294.729C173.978 294.477 173.398 294.351 172.748 294.351C172.079 294.351 171.492 294.49 170.988 294.768C170.484 295.04 170.093 295.428 169.815 295.932C169.543 296.436 169.407 297.036 169.407 297.732H165.897C165.897 296.439 166.192 295.315 166.782 294.361C167.372 293.406 168.184 292.667 169.218 292.143C170.259 291.62 171.452 291.358 172.798 291.358C174.163 291.358 175.363 291.613 176.397 292.124C177.431 292.634 178.234 293.333 178.804 294.222C179.38 295.11 179.669 296.124 179.669 297.264C179.669 298.027 179.523 298.776 179.231 299.511C178.94 300.247 178.426 301.062 177.69 301.957C176.961 302.852 175.937 303.936 174.618 305.209L171.108 308.778V308.918H179.977V312H166.017ZM197.422 291.358C198.397 291.365 199.345 291.537 200.266 291.875C201.194 292.206 202.029 292.75 202.772 293.506C203.514 294.255 204.104 295.259 204.542 296.518C204.979 297.778 205.198 299.336 205.198 301.192C205.204 302.942 205.019 304.506 204.641 305.885C204.27 307.257 203.736 308.417 203.04 309.365C202.344 310.313 201.506 311.036 200.525 311.533C199.543 312.03 198.44 312.278 197.213 312.278C195.927 312.278 194.787 312.027 193.793 311.523C192.805 311.019 192.007 310.33 191.397 309.455C190.787 308.58 190.412 307.579 190.273 306.452H193.902C194.088 307.26 194.466 307.903 195.036 308.381C195.613 308.851 196.338 309.087 197.213 309.087C198.625 309.087 199.712 308.473 200.475 307.247C201.237 306.021 201.618 304.317 201.618 302.136H201.479C201.154 302.72 200.733 303.223 200.216 303.648C199.699 304.065 199.113 304.387 198.456 304.612C197.807 304.838 197.117 304.95 196.388 304.95C195.195 304.95 194.121 304.665 193.167 304.095C192.219 303.525 191.466 302.743 190.909 301.749C190.359 300.754 190.081 299.617 190.074 298.338C190.074 297.012 190.379 295.822 190.989 294.768C191.605 293.708 192.464 292.873 193.564 292.263C194.665 291.646 195.951 291.345 197.422 291.358ZM197.432 294.341C196.716 294.341 196.07 294.517 195.493 294.868C194.923 295.213 194.472 295.683 194.141 296.28C193.816 296.87 193.654 297.529 193.654 298.259C193.66 298.981 193.823 299.637 194.141 300.227C194.466 300.817 194.907 301.285 195.463 301.629C196.027 301.974 196.67 302.146 197.392 302.146C197.929 302.146 198.43 302.044 198.894 301.838C199.358 301.633 199.762 301.348 200.107 300.983C200.458 300.612 200.73 300.191 200.922 299.72C201.121 299.25 201.217 298.752 201.211 298.229C201.211 297.533 201.045 296.89 200.713 296.3C200.389 295.71 199.941 295.236 199.371 294.878C198.808 294.52 198.161 294.341 197.432 294.341ZM208.141 308.222V305.288L216.782 291.636H219.228V295.812H217.736L211.919 305.03V305.189H223.98V308.222H208.141ZM217.855 312V307.327L217.895 306.014V291.636H221.375V312H217.855ZM234.466 312.278C233.034 312.278 231.761 312.033 230.647 311.543C229.54 311.052 228.665 310.369 228.022 309.494C227.379 308.619 227.038 307.608 226.998 306.462H230.737C230.77 307.012 230.952 307.492 231.284 307.903C231.615 308.308 232.056 308.623 232.606 308.848C233.156 309.073 233.773 309.186 234.456 309.186C235.185 309.186 235.831 309.06 236.395 308.808C236.958 308.55 237.399 308.192 237.717 307.734C238.035 307.277 238.191 306.75 238.184 306.153C238.191 305.537 238.032 304.993 237.707 304.523C237.382 304.052 236.912 303.684 236.295 303.419C235.685 303.154 234.949 303.021 234.088 303.021H232.288V300.178H234.088C234.797 300.178 235.417 300.055 235.947 299.81C236.484 299.564 236.905 299.22 237.21 298.776C237.515 298.325 237.664 297.804 237.657 297.214C237.664 296.638 237.535 296.137 237.27 295.713C237.011 295.282 236.643 294.947 236.166 294.709C235.695 294.47 235.142 294.351 234.505 294.351C233.882 294.351 233.306 294.464 232.775 294.689C232.245 294.914 231.817 295.236 231.493 295.653C231.168 296.064 230.995 296.555 230.975 297.125H227.426C227.452 295.985 227.78 294.984 228.41 294.122C229.047 293.254 229.895 292.578 230.956 292.094C232.016 291.603 233.206 291.358 234.525 291.358C235.884 291.358 237.064 291.613 238.065 292.124C239.073 292.627 239.851 293.307 240.402 294.162C240.952 295.017 241.227 295.962 241.227 296.996C241.234 298.143 240.895 299.104 240.213 299.879C239.537 300.655 238.648 301.162 237.548 301.401V301.56C238.98 301.759 240.077 302.289 240.839 303.151C241.608 304.006 241.989 305.07 241.983 306.342C241.983 307.482 241.658 308.503 241.008 309.405C240.365 310.3 239.477 311.002 238.343 311.513C237.217 312.023 235.924 312.278 234.466 312.278ZM252.475 312.278C251.149 312.278 249.963 312.03 248.915 311.533C247.868 311.029 247.036 310.339 246.42 309.464C245.81 308.589 245.485 307.589 245.445 306.462H249.025C249.091 307.297 249.452 307.98 250.109 308.51C250.765 309.034 251.554 309.295 252.475 309.295C253.198 309.295 253.841 309.13 254.404 308.798C254.968 308.467 255.412 308.006 255.737 307.416C256.061 306.826 256.22 306.153 256.214 305.398C256.22 304.629 256.058 303.946 255.727 303.349C255.395 302.753 254.941 302.286 254.364 301.947C253.788 301.603 253.125 301.43 252.376 301.43C251.766 301.424 251.166 301.536 250.576 301.768C249.986 302 249.519 302.305 249.174 302.683L245.843 302.136L246.907 291.636H258.719V294.719H249.96L249.373 300.118H249.492C249.87 299.674 250.404 299.306 251.093 299.014C251.782 298.716 252.538 298.567 253.36 298.567C254.593 298.567 255.693 298.858 256.661 299.442C257.629 300.018 258.391 300.814 258.948 301.828C259.505 302.842 259.783 304.002 259.783 305.308C259.783 306.654 259.472 307.854 258.849 308.908C258.232 309.955 257.374 310.78 256.273 311.384C255.18 311.98 253.914 312.278 252.475 312.278ZM277.129 291.358C278.104 291.365 279.052 291.537 279.973 291.875C280.901 292.206 281.736 292.75 282.479 293.506C283.221 294.255 283.811 295.259 284.249 296.518C284.686 297.778 284.905 299.336 284.905 301.192C284.911 302.942 284.726 304.506 284.348 305.885C283.977 307.257 283.443 308.417 282.747 309.365C282.051 310.313 281.213 311.036 280.232 311.533C279.25 312.03 278.147 312.278 276.92 312.278C275.634 312.278 274.494 312.027 273.5 311.523C272.512 311.019 271.714 310.33 271.104 309.455C270.494 308.58 270.119 307.579 269.98 306.452H273.609C273.795 307.26 274.173 307.903 274.743 308.381C275.32 308.851 276.045 309.087 276.92 309.087C278.332 309.087 279.42 308.473 280.182 307.247C280.944 306.021 281.325 304.317 281.325 302.136H281.186C280.861 302.72 280.44 303.223 279.923 303.648C279.406 304.065 278.82 304.387 278.163 304.612C277.514 304.838 276.824 304.95 276.095 304.95C274.902 304.95 273.828 304.665 272.874 304.095C271.926 303.525 271.173 302.743 270.616 301.749C270.066 300.754 269.788 299.617 269.781 298.338C269.781 297.012 270.086 295.822 270.696 294.768C271.313 293.708 272.171 292.873 273.271 292.263C274.372 291.646 275.658 291.345 277.129 291.358ZM277.139 294.341C276.423 294.341 275.777 294.517 275.2 294.868C274.63 295.213 274.179 295.683 273.848 296.28C273.523 296.87 273.361 297.529 273.361 298.259C273.367 298.981 273.53 299.637 273.848 300.227C274.173 300.817 274.614 301.285 275.17 301.629C275.734 301.974 276.377 302.146 277.099 302.146C277.636 302.146 278.137 302.044 278.601 301.838C279.065 301.633 279.469 301.348 279.814 300.983C280.165 300.612 280.437 300.191 280.629 299.72C280.828 299.25 280.924 298.752 280.918 298.229C280.918 297.533 280.752 296.89 280.42 296.3C280.096 295.71 279.648 295.236 279.078 294.878C278.515 294.52 277.868 294.341 277.139 294.341ZM295.286 291.358C296.26 291.365 297.208 291.537 298.129 291.875C299.057 292.206 299.893 292.75 300.635 293.506C301.377 294.255 301.967 295.259 302.405 296.518C302.842 297.778 303.061 299.336 303.061 301.192C303.068 302.942 302.882 304.506 302.504 305.885C302.133 307.257 301.599 308.417 300.903 309.365C300.207 310.313 299.369 311.036 298.388 311.533C297.407 312.03 296.303 312.278 295.077 312.278C293.791 312.278 292.651 312.027 291.656 311.523C290.669 311.019 289.87 310.33 289.26 309.455C288.65 308.58 288.276 307.579 288.136 306.452H291.766C291.951 307.26 292.329 307.903 292.899 308.381C293.476 308.851 294.202 309.087 295.077 309.087C296.489 309.087 297.576 308.473 298.338 307.247C299.1 306.021 299.482 304.317 299.482 302.136H299.342C299.018 302.72 298.597 303.223 298.08 303.648C297.563 304.065 296.976 304.387 296.32 304.612C295.67 304.838 294.981 304.95 294.251 304.95C293.058 304.95 291.984 304.665 291.03 304.095C290.082 303.525 289.33 302.743 288.773 301.749C288.223 300.754 287.944 299.617 287.938 298.338C287.938 297.012 288.242 295.822 288.852 294.768C289.469 293.708 290.327 292.873 291.428 292.263C292.528 291.646 293.814 291.345 295.286 291.358ZM295.295 294.341C294.58 294.341 293.933 294.517 293.357 294.868C292.786 295.213 292.336 295.683 292.004 296.28C291.679 296.87 291.517 297.529 291.517 298.259C291.524 298.981 291.686 299.637 292.004 300.227C292.329 300.817 292.77 301.285 293.327 301.629C293.89 301.974 294.533 302.146 295.256 302.146C295.793 302.146 296.293 302.044 296.757 301.838C297.221 301.633 297.625 301.348 297.97 300.983C298.321 300.612 298.593 300.191 298.786 299.72C298.984 299.25 299.08 298.752 299.074 298.229C299.074 297.533 298.908 296.89 298.577 296.3C298.252 295.71 297.804 295.236 297.234 294.878C296.671 294.52 296.025 294.341 295.295 294.341ZM313.611 312.278C312.133 312.278 310.82 312.03 309.673 311.533C308.533 311.036 307.638 310.356 306.989 309.494C306.346 308.626 306.027 307.642 306.034 306.541C306.027 305.686 306.213 304.901 306.591 304.185C306.969 303.469 307.479 302.872 308.122 302.395C308.772 301.911 309.494 301.603 310.29 301.47V301.331C309.242 301.099 308.394 300.565 307.744 299.73C307.101 298.888 306.783 297.917 306.79 296.817C306.783 295.769 307.075 294.835 307.665 294.013C308.255 293.191 309.063 292.545 310.091 292.074C311.118 291.597 312.292 291.358 313.611 291.358C314.917 291.358 316.08 291.597 317.101 292.074C318.128 292.545 318.937 293.191 319.527 294.013C320.124 294.835 320.422 295.769 320.422 296.817C320.422 297.917 320.094 298.888 319.438 299.73C318.788 300.565 317.949 301.099 316.922 301.331V301.47C317.717 301.603 318.433 301.911 319.07 302.395C319.713 302.872 320.223 303.469 320.601 304.185C320.985 304.901 321.178 305.686 321.178 306.541C321.178 307.642 320.853 308.626 320.203 309.494C319.554 310.356 318.659 311.036 317.518 311.533C316.385 312.03 315.082 312.278 313.611 312.278ZM313.611 309.435C314.373 309.435 315.036 309.305 315.599 309.047C316.163 308.782 316.6 308.411 316.912 307.933C317.223 307.456 317.383 306.906 317.389 306.283C317.383 305.633 317.214 305.06 316.882 304.562C316.557 304.059 316.11 303.664 315.54 303.379C314.976 303.094 314.333 302.952 313.611 302.952C312.882 302.952 312.232 303.094 311.662 303.379C311.092 303.664 310.641 304.059 310.31 304.562C309.985 305.06 309.826 305.633 309.832 306.283C309.826 306.906 309.978 307.456 310.29 307.933C310.601 308.404 311.039 308.772 311.602 309.037C312.172 309.302 312.842 309.435 313.611 309.435ZM313.611 300.158C314.234 300.158 314.784 300.032 315.261 299.78C315.745 299.528 316.126 299.177 316.405 298.726C316.683 298.275 316.826 297.755 316.832 297.165C316.826 296.581 316.687 296.071 316.415 295.634C316.143 295.189 315.765 294.848 315.281 294.609C314.797 294.364 314.241 294.241 313.611 294.241C312.968 294.241 312.401 294.364 311.911 294.609C311.427 294.848 311.049 295.189 310.777 295.634C310.512 296.071 310.383 296.581 310.389 297.165C310.383 297.755 310.515 298.275 310.787 298.726C311.065 299.17 311.446 299.521 311.93 299.78C312.421 300.032 312.981 300.158 313.611 300.158ZM324.446 312V309.335L331.516 302.405C332.192 301.722 332.756 301.116 333.206 300.585C333.657 300.055 333.995 299.541 334.221 299.044C334.446 298.547 334.559 298.017 334.559 297.453C334.559 296.81 334.413 296.26 334.121 295.803C333.829 295.339 333.428 294.981 332.918 294.729C332.408 294.477 331.828 294.351 331.178 294.351C330.508 294.351 329.922 294.49 329.418 294.768C328.914 295.04 328.523 295.428 328.245 295.932C327.973 296.436 327.837 297.036 327.837 297.732H324.327C324.327 296.439 324.622 295.315 325.212 294.361C325.802 293.406 326.614 292.667 327.648 292.143C328.689 291.62 329.882 291.358 331.228 291.358C332.593 291.358 333.793 291.613 334.827 292.124C335.861 292.634 336.663 293.333 337.233 294.222C337.81 295.11 338.098 296.124 338.098 297.264C338.098 298.027 337.953 298.776 337.661 299.511C337.369 300.247 336.855 301.062 336.12 301.957C335.391 302.852 334.366 303.936 333.047 305.209L329.537 308.778V308.918H338.407V312H324.446Z" fill="white"/>
</g>
<path d="M33.598 495V480.455H42.7173V482.344H35.7926V486.776H42.2415V488.658H35.7926V493.111H42.8026V495H33.598ZM47.1545 484.091L49.5621 488.338L51.9911 484.091H54.3136L50.9116 489.545L54.342 495H52.0195L49.5621 490.923L47.1119 495H44.7823L48.1772 489.545L44.8249 484.091H47.1545ZM56.494 499.091V484.091H58.5678V485.859H58.7454C58.8685 485.632 59.046 485.369 59.2781 485.071C59.5101 484.773 59.832 484.512 60.244 484.29C60.6559 484.062 61.2004 483.949 61.8775 483.949C62.7582 483.949 63.5442 484.171 64.2354 484.616C64.9267 485.062 65.4689 485.703 65.8619 486.541C66.2596 487.379 66.4585 488.388 66.4585 489.567C66.4585 490.746 66.262 491.757 65.869 492.599C65.476 493.437 64.9362 494.084 64.2496 494.538C63.5631 494.988 62.7795 495.213 61.8988 495.213C61.2359 495.213 60.6938 495.102 60.2724 494.879C59.8557 494.657 59.529 494.396 59.2923 494.098C59.0555 493.8 58.8732 493.535 58.7454 493.303H58.6175V499.091H56.494ZM58.5749 489.545C58.5749 490.312 58.6862 490.985 58.9087 491.562C59.1313 492.14 59.4532 492.592 59.8746 492.919C60.296 493.241 60.8121 493.402 61.4229 493.402C62.0574 493.402 62.5877 493.234 63.0138 492.898C63.44 492.557 63.762 492.095 63.9798 491.513C64.2023 490.93 64.3136 490.275 64.3136 489.545C64.3136 488.826 64.2047 488.179 63.9869 487.607C63.7738 487.034 63.4518 486.581 63.021 486.25C62.5948 485.919 62.0621 485.753 61.4229 485.753C60.8074 485.753 60.2866 485.911 59.8604 486.229C59.439 486.546 59.1194 486.989 58.9016 487.557C58.6838 488.125 58.5749 488.788 58.5749 489.545ZM68.8377 495V484.091H70.9613V495H68.8377ZM69.9102 482.408C69.5408 482.408 69.2236 482.285 68.9585 482.038C68.698 481.787 68.5678 481.489 68.5678 481.143C68.5678 480.793 68.698 480.495 68.9585 480.249C69.2236 479.998 69.5408 479.872 69.9102 479.872C70.2795 479.872 70.5943 479.998 70.8548 480.249C71.1199 480.495 71.2525 480.793 71.2525 481.143C71.2525 481.489 71.1199 481.787 70.8548 482.038C70.5943 482.285 70.2795 482.408 69.9102 482.408ZM73.8182 495V484.091H75.8707V485.824H75.9844C76.1832 485.237 76.5336 484.775 77.0355 484.439C77.5421 484.098 78.1151 483.928 78.7543 483.928C78.8868 483.928 79.0431 483.932 79.223 483.942C79.4077 483.951 79.5521 483.963 79.6562 483.977V486.009C79.571 485.985 79.4195 485.959 79.2017 485.93C78.9839 485.897 78.7661 485.881 78.5483 485.881C78.0464 485.881 77.599 485.987 77.206 486.2C76.8177 486.409 76.5099 486.7 76.2827 487.074C76.0554 487.443 75.9418 487.865 75.9418 488.338V495H73.8182ZM83.1683 499.091C82.8511 499.091 82.5623 499.065 82.3018 499.013C82.0414 498.965 81.8473 498.913 81.7195 498.857L82.2308 497.116C82.6191 497.221 82.9647 497.266 83.2678 497.251C83.5708 497.237 83.8383 497.124 84.0703 496.911C84.3071 496.697 84.5154 496.349 84.6953 495.866L84.9581 495.142L80.9666 484.091H83.2393L86.0021 492.557H86.1158L88.8786 484.091H91.1584L86.6626 496.456C86.4543 497.024 86.1892 497.505 85.8672 497.898C85.5452 498.295 85.1617 498.594 84.7166 498.793C84.2715 498.991 83.7554 499.091 83.1683 499.091ZM103.326 495H98.6175V480.455H103.475C104.901 480.455 106.125 480.746 107.147 481.328C108.17 481.906 108.954 482.737 109.498 483.821C110.047 484.901 110.322 486.196 110.322 487.706C110.322 489.221 110.045 490.523 109.491 491.612C108.942 492.701 108.146 493.539 107.105 494.126C106.063 494.709 104.804 495 103.326 495ZM100.812 493.082H103.206C104.314 493.082 105.234 492.874 105.968 492.457C106.702 492.036 107.252 491.428 107.616 490.632C107.981 489.832 108.163 488.857 108.163 487.706C108.163 486.565 107.981 485.597 107.616 484.801C107.256 484.006 106.719 483.402 106.004 482.99C105.289 482.578 104.401 482.372 103.341 482.372H100.812V493.082ZM116.055 495.241C115.364 495.241 114.739 495.114 114.18 494.858C113.622 494.598 113.179 494.221 112.852 493.729C112.53 493.236 112.369 492.633 112.369 491.918C112.369 491.302 112.488 490.795 112.724 490.398C112.961 490 113.281 489.685 113.683 489.453C114.086 489.221 114.536 489.046 115.033 488.928C115.53 488.809 116.036 488.719 116.553 488.658C117.206 488.582 117.736 488.52 118.143 488.473C118.551 488.421 118.847 488.338 119.031 488.224C119.216 488.111 119.308 487.926 119.308 487.67V487.621C119.308 487 119.133 486.52 118.783 486.179C118.437 485.838 117.921 485.668 117.234 485.668C116.519 485.668 115.956 485.826 115.544 486.143C115.137 486.456 114.855 486.804 114.699 487.188L112.703 486.733C112.94 486.07 113.286 485.535 113.74 485.128C114.199 484.716 114.727 484.418 115.324 484.233C115.92 484.044 116.548 483.949 117.206 483.949C117.642 483.949 118.103 484.001 118.591 484.105C119.083 484.205 119.543 484.389 119.969 484.659C120.4 484.929 120.752 485.315 121.027 485.817C121.302 486.314 121.439 486.96 121.439 487.756V495H119.365V493.509H119.28C119.143 493.783 118.937 494.053 118.662 494.318C118.387 494.583 118.035 494.804 117.604 494.979C117.173 495.154 116.657 495.241 116.055 495.241ZM116.517 493.537C117.104 493.537 117.606 493.421 118.023 493.189C118.444 492.957 118.764 492.654 118.982 492.28C119.204 491.901 119.315 491.496 119.315 491.065V489.659C119.24 489.735 119.093 489.806 118.875 489.872C118.662 489.934 118.418 489.988 118.143 490.036C117.869 490.078 117.601 490.118 117.341 490.156C117.08 490.189 116.863 490.218 116.688 490.241C116.276 490.294 115.899 490.381 115.558 490.504C115.222 490.627 114.952 490.805 114.749 491.037C114.55 491.264 114.45 491.567 114.45 491.946C114.45 492.472 114.644 492.869 115.033 493.139C115.421 493.404 115.916 493.537 116.517 493.537ZM129.36 484.091V485.795H123.401V484.091H129.36ZM124.999 481.477H127.123V491.797C127.123 492.209 127.184 492.519 127.307 492.727C127.43 492.931 127.589 493.071 127.783 493.146C127.982 493.217 128.197 493.253 128.429 493.253C128.6 493.253 128.749 493.241 128.877 493.217C129.005 493.194 129.104 493.175 129.175 493.161L129.559 494.915C129.435 494.962 129.26 495.009 129.033 495.057C128.806 495.109 128.522 495.137 128.181 495.142C127.622 495.152 127.101 495.052 126.618 494.844C126.135 494.635 125.745 494.313 125.446 493.878C125.148 493.442 124.999 492.895 124.999 492.237V481.477ZM136.293 495.22C135.219 495.22 134.293 494.991 133.516 494.531C132.745 494.067 132.148 493.416 131.727 492.578C131.31 491.735 131.102 490.748 131.102 489.616C131.102 488.499 131.31 487.514 131.727 486.662C132.148 485.81 132.735 485.144 133.488 484.666C134.246 484.188 135.131 483.949 136.144 483.949C136.76 483.949 137.356 484.051 137.934 484.254C138.512 484.458 139.03 484.777 139.489 485.213C139.949 485.649 140.311 486.214 140.576 486.911C140.841 487.602 140.974 488.442 140.974 489.432V490.185H132.302V488.594H138.893C138.893 488.035 138.779 487.54 138.552 487.109C138.325 486.674 138.005 486.33 137.593 486.08C137.186 485.829 136.708 485.703 136.158 485.703C135.562 485.703 135.041 485.85 134.596 486.143C134.156 486.432 133.815 486.811 133.573 487.28C133.336 487.744 133.218 488.248 133.218 488.793V490.036C133.218 490.765 133.346 491.385 133.602 491.896C133.862 492.408 134.224 492.798 134.688 493.068C135.152 493.333 135.694 493.466 136.315 493.466C136.717 493.466 137.084 493.409 137.415 493.295C137.747 493.177 138.033 493.002 138.275 492.77C138.516 492.538 138.701 492.251 138.829 491.911L140.839 492.273C140.678 492.865 140.389 493.383 139.972 493.828C139.56 494.268 139.042 494.612 138.417 494.858C137.797 495.099 137.089 495.22 136.293 495.22Z" fill="#C4C4C4"/>
<path d="M39.2088 512.455V527H36.5739V515.018H36.4886L33.0866 517.192V514.777L36.7017 512.455H39.2088ZM48.2784 527.277C47.1089 527.277 46.1051 526.981 45.267 526.389C44.4337 525.793 43.7921 524.933 43.3423 523.811C42.8973 522.684 42.6747 521.328 42.6747 519.741C42.6795 518.155 42.9044 516.806 43.3494 515.693C43.7992 514.576 44.4408 513.723 45.2741 513.136C46.1122 512.549 47.1136 512.256 48.2784 512.256C49.4432 512.256 50.4446 512.549 51.2827 513.136C52.1207 513.723 52.7623 514.576 53.2074 515.693C53.6572 516.811 53.8821 518.16 53.8821 519.741C53.8821 521.332 53.6572 522.691 53.2074 523.818C52.7623 524.94 52.1207 525.797 51.2827 526.389C50.4493 526.981 49.4479 527.277 48.2784 527.277ZM48.2784 525.054C49.1875 525.054 49.9048 524.607 50.4304 523.712C50.9607 522.812 51.2259 521.489 51.2259 519.741C51.2259 518.586 51.1051 517.616 50.8636 516.83C50.6222 516.044 50.2813 515.452 49.8409 515.054C49.4006 514.652 48.8797 514.45 48.2784 514.45C47.3741 514.45 46.6591 514.9 46.1335 515.8C45.608 516.695 45.3428 518.009 45.3381 519.741C45.3333 520.902 45.4493 521.877 45.6861 522.668C45.9276 523.458 46.2685 524.055 46.7088 524.457C47.1491 524.855 47.6723 525.054 48.2784 525.054ZM62.2077 511.773L57.5202 529.188H55.2688L59.9563 511.773H62.2077ZM63.82 527V525.097L68.8697 520.146C69.3526 519.659 69.7551 519.225 70.0771 518.847C70.399 518.468 70.6405 518.101 70.8015 517.746C70.9625 517.391 71.043 517.012 71.043 516.609C71.043 516.15 70.9388 515.757 70.7305 515.43C70.5221 515.099 70.2357 514.843 69.8711 514.663C69.5065 514.483 69.0922 514.393 68.6282 514.393C68.15 514.393 67.7309 514.493 67.3711 514.692C67.0112 514.886 66.7319 515.163 66.533 515.523C66.3389 515.883 66.2418 516.311 66.2418 516.808H63.7347C63.7347 515.885 63.9454 515.082 64.3668 514.401C64.7882 513.719 65.3683 513.191 66.1069 512.817C66.8503 512.443 67.7025 512.256 68.6637 512.256C69.6391 512.256 70.4961 512.438 71.2347 512.803C71.9734 513.167 72.5463 513.667 72.9535 514.301C73.3654 514.936 73.5714 515.66 73.5714 516.474C73.5714 517.019 73.4672 517.554 73.2589 518.08C73.0505 518.605 72.6836 519.187 72.158 519.827C71.6372 520.466 70.9057 521.24 69.9634 522.149L67.4563 524.699V524.798H73.7915V527H63.82ZM81.4123 527.199C80.3564 527.199 79.4189 527.021 78.5998 526.666C77.7854 526.311 77.1462 525.826 76.6822 525.21C76.2229 524.59 75.9956 523.887 76.0004 523.101C75.9956 522.49 76.1282 521.929 76.3981 521.418C76.668 520.906 77.0326 520.48 77.4918 520.139C77.9558 519.794 78.4719 519.573 79.0401 519.479V519.379C78.292 519.214 77.686 518.832 77.2219 518.236C76.7627 517.634 76.5354 516.941 76.5401 516.155C76.5354 515.407 76.7437 514.739 77.1651 514.152C77.5865 513.565 78.1642 513.103 78.8981 512.767C79.632 512.426 80.4701 512.256 81.4123 512.256C82.3451 512.256 83.176 512.426 83.9052 512.767C84.6391 513.103 85.2167 513.565 85.6381 514.152C86.0643 514.739 86.2773 515.407 86.2773 516.155C86.2773 516.941 86.043 517.634 85.5742 518.236C85.1102 518.832 84.5112 519.214 83.7773 519.379V519.479C84.3455 519.573 84.8569 519.794 85.3114 520.139C85.7707 520.48 86.1353 520.906 86.4052 521.418C86.6798 521.929 86.8171 522.49 86.8171 523.101C86.8171 523.887 86.5851 524.59 86.1211 525.21C85.6571 525.826 85.0179 526.311 84.2035 526.666C83.3938 527.021 82.4634 527.199 81.4123 527.199ZM81.4123 525.168C81.9568 525.168 82.4303 525.075 82.8327 524.891C83.2352 524.701 83.5477 524.436 83.7702 524.095C83.9928 523.754 84.1064 523.361 84.1112 522.916C84.1064 522.452 83.9857 522.043 83.7489 521.688C83.5169 521.328 83.1973 521.046 82.7901 520.842C82.3877 520.639 81.9284 520.537 81.4123 520.537C80.8915 520.537 80.4274 520.639 80.0202 520.842C79.613 521.046 79.2911 521.328 79.0543 521.688C78.8223 522.043 78.7087 522.452 78.7134 522.916C78.7087 523.361 78.8176 523.754 79.0401 524.095C79.2627 524.431 79.5752 524.694 79.9776 524.884C80.3848 525.073 80.863 525.168 81.4123 525.168ZM81.4123 518.541C81.8574 518.541 82.2504 518.451 82.5913 518.271C82.9369 518.091 83.2092 517.84 83.408 517.518C83.6069 517.196 83.7087 516.825 83.7134 516.403C83.7087 515.987 83.6093 515.622 83.4151 515.31C83.221 514.992 82.9511 514.749 82.6055 514.578C82.2598 514.403 81.8621 514.315 81.4123 514.315C80.953 514.315 80.5482 514.403 80.1978 514.578C79.8522 514.749 79.5823 514.992 79.3881 515.31C79.1987 515.622 79.1064 515.987 79.1112 516.403C79.1064 516.825 79.2011 517.196 79.3952 517.518C79.5941 517.836 79.8664 518.087 80.212 518.271C80.5624 518.451 80.9625 518.541 81.4123 518.541Z" fill="white"/>
<g clip-path="url(#clip1_519_3103)">
<rect x="302" y="40" width="65" height="50" rx="8" fill="white" fill-opacity="0.24"/>
<path fill-rule="evenodd" clip-rule="evenodd" d="M322 90H324V40H322V53H302V55H322V65H302V67H322V77H302V79H322V90Z" fill="white" fill-opacity="0.64"/>
<path fill-rule="evenodd" clip-rule="evenodd" d="M344.271 65L344.423 64.6348L344.445 64.5828L344.445 64.5828C345.744 61.4656 347.056 58.3191 348.161 55H365V53H348.793C350.106 48.6074 351 43.8778 351 38.5H349C349 48.4343 345.83 56.0611 342.577 63.8652L342.555 63.9172C342.405 64.2777 342.255 64.6385 342.104 65H342V65.2513C338.948 72.6054 336 80.2339 336 90H338C338 86.0156 338.51 82.4024 339.331 79H365V77H339.854C340.83 73.5325 342.101 70.2598 343.442 67H365V65H344.271Z" fill="white" fill-opacity="0.64"/>
</g>
<rect x="303" y="41" width="63" height="48" rx="7" stroke="white" stroke-opacity="0.64" stroke-width="2"/>
<path d="M98.0733 80.7568L97.3233 76.9681H88.9433L87.61 80.7299L80.8933 80.7434C84.0909 72.9744 87.2954 65.2082 90.5067 57.445C91.0533 56.1282 92.0233 55.458 93.4533 55.4648C94.5467 55.4749 96.33 55.4749 98.8067 55.4681L104 80.7467L98.0733 80.7568ZM90.83 71.7783H96.23L94.2133 62.2812L90.83 71.7783ZM47.5333 55.4614L54.2867 55.4681L43.8467 80.7602L37.01 80.7535C35.2908 74.0728 33.593 67.3866 31.9167 60.6949C31.5833 59.3613 30.9233 58.4284 29.6533 57.9872C28.5233 57.5932 26.64 56.987 24 56.1619V55.4715H34.79C36.6567 55.4715 37.7467 56.3842 38.0967 58.2566C38.45 60.1325 39.3367 64.908 40.7633 72.5832L47.5333 55.4614ZM63.5667 55.4681L58.2267 80.7535L51.8 80.7467L57.1333 55.4614L63.5667 55.4681ZM76.6 55C78.5233 55 80.9467 55.6062 82.34 56.1619L81.2133 61.4055C79.9533 60.8936 77.88 60.2032 76.1367 60.2268C73.6033 60.2706 72.0367 61.3449 72.0367 62.3755C72.0367 64.0526 74.7567 64.8979 77.5567 66.73C80.7533 68.818 81.1733 70.6939 81.1333 72.7314C81.09 76.9613 77.5567 81.134 70.1033 81.134C66.7033 81.0835 65.4767 80.7939 62.7033 79.8004L63.8767 74.3277C66.7 75.5233 67.8967 75.9038 70.31 75.9038C72.52 75.9038 74.4167 75.0013 74.4333 73.4285C74.4467 72.3104 73.7667 71.7547 71.2867 70.3739C68.8067 68.9898 65.3267 67.0735 65.3733 63.2275C65.43 58.3038 70.0467 55 76.6033 55H76.6Z" fill="white"/>
<g filter="url(#filter2_f_519_3103)">
<ellipse cx="346.5" cy="466.5" rx="118.5" ry="118.5" transform="rotate(-90 346.5 466.5)" fill="#3C459A" fill-opacity="0.5"/>
</g>
<mask id="mask0_519_3103" style="mask-type:alpha" maskUnits="userSpaceOnUse" x="-133" y="180" width="960" height="573">
<rect x="-133" y="180" width="960" height="573" fill="url(#paint0_radial_519_3103)"/>
</mask>
<g mask="url(#mask0_519_3103)">
<rect x="-9.5" y="189.5" width="79" height="79" stroke="white"/>
<rect x="69.5" y="189.5" width="79" height="79" stroke="white"/>
<rect x="148.5" y="189.5" width="79" height="79" stroke="white"/>
<rect x="227.5" y="189.5" width="79" height="79" stroke="white"/>
<rect x="306.5" y="189.5" width="79" height="79" stroke="white"/>
<rect x="385.5" y="189.5" width="79" height="79" stroke="white"/>
<rect x="-9.5" y="268.5" width="79" height="79" stroke="white"/>
<rect x="69.5" y="268.5" width="79" height="79" stroke="white"/>
<rect x="148.5" y="268.5" width="79" height="79" stroke="white"/>
<rect x="227.5" y="268.5" width="79" height="79" stroke="white"/>
<rect x="306.5" y="268.5" width="79" height="79" stroke="white"/>
<rect x="385.5" y="268.5" width="79" height="79" stroke="white"/>
<rect x="-9.5" y="347.5" width="79" height="79" stroke="white"/>
<rect x="69.5" y="347.5" width="79" height="79" stroke="white"/>
<rect x="148.5" y="347.5" width="79" height="79" stroke="white"/>
<rect x="227.5" y="347.5" width="79" height="79" stroke="white"/>
<rect x="306.5" y="347.5" width="79" height="79" fill="white" fill-opacity="0.25" stroke="white"/>
<rect x="385.5" y="347.5" width="79" height="79" stroke="white"/>
<rect x="-9.5" y="426.5" width="79" height="79" stroke="white"/>
<rect x="69.5" y="426.5" width="79" height="79" stroke="white"/>
<rect x="148.5" y="426.5" width="79" height="79" stroke="white"/>
<rect x="227.5" y="426.5" width="79" height="79" stroke="white"/>
<rect x="306.5" y="426.5" width="79" height="79" stroke="white"/>
<rect x="385.5" y="426.5" width="79" height="79" stroke="white"/>
<rect x="-9.5" y="505.5" width="79" height="79" stroke="white"/>
<rect x="69.5" y="505.5" width="79" height="79" stroke="white"/>
<rect x="148.5" y="505.5" width="79" height="79" stroke="white"/>
<rect x="227.5" y="505.5" width="79" height="79" fill="white" fill-opacity="0.25" stroke="white"/>
<rect x="306.5" y="505.5" width="79" height="79" stroke="white"/>
<rect x="385.5" y="505.5" width="79" height="79" stroke="white"/>
</g>
</g>
<rect x="0.5" y="0.5" width="398" height="559" rx="31.5" stroke="url(#paint1_linear_519_3103)"/>
</g>
<defs>
<filter id="filter0_b_519_3103" x="-40" y="-40" width="479" height="640" filterUnits="userSpaceOnUse" color-interpolation-filters="sRGB">
<feFlood flood-opacity="0" result="BackgroundImageFix"/>
<feGaussianBlur in="BackgroundImageFix" stdDeviation="20"/>
<feComposite in2="SourceAlpha" operator="in" result="effect1_backgroundBlur_519_3103"/>
<feBlend mode="normal" in="SourceGraphic" in2="effect1_backgroundBlur_519_3103" result="shape"/>
</filter>
<filter id="filter1_d_519_3103" x="25.6903" y="283.338" width="320.716" height="36.9503" filterUnits="userSpaceOnUse" color-interpolation-filters="sRGB">
<feFlood flood-opacity="0" result="BackgroundImageFix"/>
<feColorMatrix in="SourceAlpha" type="matrix" values="0 0 0 0 0 0 0 0 0 0 0 0 0 0 0 0 0 0 127 0" result="hardAlpha"/>
<feOffset/>
<feGaussianBlur stdDeviation="4"/>
<feComposite in2="hardAlpha" operator="out"/>
<feColorMatrix type="matrix" values="0 0 0 0 0 0 0 0 0 0 0 0 0 0 0 0 0 0 0.16 0"/>
<feBlend mode="normal" in2="BackgroundImageFix" result="effect1_dropShadow_519_3103"/>
<feBlend mode="normal" in="SourceGraphic" in2="effect1_dropShadow_519_3103" result="shape"/>
</filter>
<filter id="filter2_f_519_3103" x="28" y="148" width="637" height="637" filterUnits="userSpaceOnUse" color-interpolation-filters="sRGB">
<feFlood flood-opacity="0" result="BackgroundImageFix"/>
<feBlend mode="normal" in="SourceGraphic" in2="BackgroundImageFix" result="shape"/>
<feGaussianBlur stdDeviation="100" result="effect1_foregroundBlur_519_3103"/>
</filter>
<radialGradient id="paint0_radial_519_3103" cx="0" cy="0" r="1" gradientUnits="userSpaceOnUse" gradientTransform="translate(347 466.5) rotate(90) scale(353.19 591.732)">
<stop stop-color="#D9D9D9" stop-opacity="0.2"/>
<stop offset="0.802083" stop-color="#D9D9D9" stop-opacity="0"/>
</radialGradient>
<linearGradient id="paint1_linear_519_3103" x1="18.0002" y1="542" x2="399" y2="24.0002" gradientUnits="userSpaceOnUse">
<stop stop-color="#7FCEF3"/>
<stop offset="1" stop-color="#4C00FF"/>
</linearGradient>
<clipPath id="clip0_519_3103">
<rect width="399" height="560" rx="32" fill="white"/>
</clipPath>
<clipPath id="clip1_519_3103">
<rect x="302" y="40" width="65" height="50" rx="8" fill="white"/>
</clipPath>
</defs>
</svg>
